<?xml version="1.0" encoding="UTF-8" standalone="no"?>
<svg width="940px" height="600px" viewBox="0 0 940 600" version="1.1" xmlns="http://www.w3.org/2000/svg" xmlns:xlink="http://www.w3.org/1999/xlink">
    <!-- Generator: Sketch 49 (51002) - http://www.bohemiancoding.com/sketch -->
    <title>Group</title>
    <desc>Created with Sketch.</desc>
    <defs></defs>
    <g id="Page-1" stroke="none" stroke-width="1" fill="none" fill-rule="evenodd">
        <g id="Desktop-HD" transform="translate(-100.000000, -200.000000)">
            <g id="Group" transform="translate(100.000000, 200.000000)">
                <g id="Page" transform="translate(420.000000, 0.000000)">
                    <path d="M0,20 L100,20 L100,75 C100,77.7614237 97.7614237,80 95,80 L5,80 C2.23857625,80 3.38176876e-16,77.7614237 0,75 L0,20 Z" id="Rectangle" fill="#EEEEEE"></path>
                    <path d="M5,0 L95,0 C97.7614237,-5.07265313e-16 100,2.23857625 100,5 L100,20 L0,20 L0,5 C-3.38176876e-16,2.23857625 2.23857625,5.07265313e-16 5,0 Z" id="Rectangle" fill="#777777"></path>
                    <text id="0.0" font-family="Usual-Regular, Usual" font-size="10" font-weight="normal" fill="#FFFFFF">
                        <tspan x="6" y="14">0.0</tspan>
                    </text>
                    <text id="Homepage" font-family="Usual-Regular, Usual" font-size="10" font-weight="normal" fill="#777777">
                        <tspan x="23.555" y="53">Homepage</tspan>
                    </text>
                </g>
                <g id="Page-Copy" transform="translate(0.000000, 120.000000)">
                    <path d="M0,20 L100,20 L100,75 C100,77.7614237 97.7614237,80 95,80 L5,80 C2.23857625,80 3.38176876e-16,77.7614237 0,75 L0,20 Z" id="Rectangle" fill="#EEEEEE"></path>
                    <path d="M5,0 L95,0 C97.7614237,-5.07265313e-16 100,2.23857625 100,5 L100,20 L0,20 L0,5 C-3.38176876e-16,2.23857625 2.23857625,5.07265313e-16 5,0 Z" id="Rectangle" fill="#777777"></path>
                    <text id="1.0" font-family="Usual-Regular, Usual" font-size="10" font-weight="normal" fill="#FFFFFF">
                        <tspan x="6" y="14">1.0</tspan>
                    </text>
                    <text id="Why-McDonald’s?" font-family="Usual-Regular, Usual" font-size="10" font-weight="normal" fill="#777777">
                        <tspan x="39.24" y="47">Why</tspan>
                        <tspan x="19.65" y="59">McDonald’s?</tspan>
                    </text>
                </g>
                <g id="Page-Copy-2" transform="translate(120.000000, 120.000000)">
                    <path d="M0,20 L100,20 L100,75 C100,77.7614237 97.7614237,80 95,80 L5,80 C2.23857625,80 3.38176876e-16,77.7614237 0,75 L0,20 Z" id="Rectangle" fill="#EEEEEE"></path>
                    <path d="M5,0 L95,0 C97.7614237,-5.07265313e-16 100,2.23857625 100,5 L100,20 L0,20 L0,5 C-3.38176876e-16,2.23857625 2.23857625,5.07265313e-16 5,0 Z" id="Rectangle" fill="#777777"></path>
                    <text id="2.0" font-family="Usual-Regular, Usual" font-size="10" font-weight="normal" fill="#FFFFFF">
                        <tspan x="6" y="14">2.0</tspan>
                    </text>
                    <text id="Your-restaurant" font-family="Usual-Regular, Usual" font-size="10" font-weight="normal" fill="#777777">
                        <tspan x="38.565" y="47">Your</tspan>
                        <tspan x="25.365" y="59">restaurant</tspan>
                    </text>
                </g>
                <g id="Page-Copy-3" transform="translate(240.000000, 120.000000)">
                    <path d="M0,20 L100,20 L100,75 C100,77.7614237 97.7614237,80 95,80 L5,80 C2.23857625,80 3.38176876e-16,77.7614237 0,75 L0,20 Z" id="Rectangle" fill="#EEEEEE"></path>
                    <path d="M5,0 L95,0 C97.7614237,-5.07265313e-16 100,2.23857625 100,5 L100,20 L0,20 L0,5 C-3.38176876e-16,2.23857625 2.23857625,5.07265313e-16 5,0 Z" id="Rectangle" fill="#777777"></path>
                    <text id="3.0" font-family="Usual-Regular, Usual" font-size="10" font-weight="normal" fill="#FFFFFF">
                        <tspan x="6" y="14">3.0</tspan>
                    </text>
                    <text id="Our-people" font-family="Usual-Regular, Usual" font-size="10" font-weight="normal" fill="#777777">
                        <tspan x="23.195" y="53">Our people</tspan>
                    </text>
                </g>
                <g id="Page-Copy-4" transform="translate(360.000000, 120.000000)">
                    <path d="M0,20 L100,20 L100,75 C100,77.7614237 97.7614237,80 95,80 L5,80 C2.23857625,80 3.38176876e-16,77.7614237 0,75 L0,20 Z" id="Rectangle" fill="#EEEEEE"></path>
                    <path d="M5,0 L95,0 C97.7614237,-5.07265313e-16 100,2.23857625 100,5 L100,20 L0,20 L0,5 C-3.38176876e-16,2.23857625 2.23857625,5.07265313e-16 5,0 Z" id="Rectangle" fill="#777777"></path>
                    <text id="4.0" font-family="Usual-Regular, Usual" font-size="10" font-weight="normal" fill="#FFFFFF">
                        <tspan x="6" y="14">4.0</tspan>
                    </text>
                    <text id="The-financials" font-family="Usual-Regular, Usual" font-size="10" font-weight="normal" fill="#777777">
                        <tspan x="16.97" y="53">The financials</tspan>
                    </text>
                </g>
                <g id="Page-Copy-5" transform="translate(480.000000, 120.000000)">
                    <path d="M0,20 L100,20 L100,75 C100,77.7614237 97.7614237,80 95,80 L5,80 C2.23857625,80 3.38176876e-16,77.7614237 0,75 L0,20 Z" id="Rectangle" fill="#EEEEEE"></path>
                    <path d="M5,0 L95,0 C97.7614237,-5.07265313e-16 100,2.23857625 100,5 L100,20 L0,20 L0,5 C-3.38176876e-16,2.23857625 2.23857625,5.07265313e-16 5,0 Z" id="Rectangle" fill="#777777"></path>
                    <text id="5.0" font-family="Usual-Regular, Usual" font-size="10" font-weight="normal" fill="#FFFFFF">
                        <tspan x="6" y="14">5.0</tspan>
                    </text>
                    <text id="Your-support" font-family="Usual-Regular, Usual" font-size="10" font-weight="normal" fill="#777777">
                        <tspan x="18.46" y="53">Your support</tspan>
                    </text>
                </g>
                <g id="Page-Copy-6" transform="translate(600.000000, 120.000000)">
                    <path d="M0,20 L100,20 L100,75 C100,77.7614237 97.7614237,80 95,80 L5,80 C2.23857625,80 3.38176876e-16,77.7614237 0,75 L0,20 Z" id="Rectangle" fill="#EEEEEE"></path>
                    <path d="M5,0 L95,0 C97.7614237,-5.07265313e-16 100,2.23857625 100,5 L100,20 L0,20 L0,5 C-3.38176876e-16,2.23857625 2.23857625,5.07265313e-16 5,0 Z" id="Rectangle" fill="#777777"></path>
                    <text id="6.0" font-family="Usual-Regular, Usual" font-size="10" font-weight="normal" fill="#FFFFFF">
                        <tspan x="6" y="14">6.0</tspan>
                    </text>
                    <text id="Your-application" font-family="Usual-Regular, Usual" font-size="10" font-weight="normal" fill="#777777">
                        <tspan x="10.875" y="53">Your application</tspan>
                    </text>
                </g>
                <g id="Page-Copy-7" transform="translate(720.000000, 120.000000)">
                    <path d="M0,20 L100,20 L100,75 C100,77.7614237 97.7614237,80 95,80 L5,80 C2.23857625,80 3.38176876e-16,77.7614237 0,75 L0,20 Z" id="Rectangle" fill="#EEEEEE"></path>
                    <path d="M5,0 L95,0 C97.7614237,-5.07265313e-16 100,2.23857625 100,5 L100,20 L0,20 L0,5 C-3.38176876e-16,2.23857625 2.23857625,5.07265313e-16 5,0 Z" id="Rectangle" fill="#777777"></path>
                    <text id="7.0" font-family="Usual-Regular, Usual" font-size="10" font-weight="normal" fill="#FFFFFF">
                        <tspan x="6" y="14">7.0</tspan>
                    </text>
                    <text id="FAQs" font-family="Usual-Regular, Usual" font-size="10" font-weight="normal" fill="#777777">
                        <tspan x="36.6" y="53">FAQs</tspan>
                    </text>
                </g>
                <g id="Page-Copy-8" transform="translate(840.000000, 120.000000)">
                    <path d="M0,20 L100,20 L100,75 C100,77.7614237 97.7614237,80 95,80 L5,80 C2.23857625,80 3.38176876e-16,77.7614237 0,75 L0,20 Z" id="Rectangle" fill="#EEEEEE"></path>
                    <path d="M5,0 L95,0 C97.7614237,-5.07265313e-16 100,2.23857625 100,5 L100,20 L0,20 L0,5 C-3.38176876e-16,2.23857625 2.23857625,5.07265313e-16 5,0 Z" id="Rectangle" fill="#777777"></path>
                    <text id="8.0" font-family="Usual-Regular, Usual" font-size="10" font-weight="normal" fill="#FFFFFF">
                        <tspan x="6" y="14">8.0</tspan>
                    </text>
                    <text id="Register-interest" font-family="Usual-Regular, Usual" font-size="10" font-weight="normal" fill="#777777">
                        <tspan x="10.645" y="53">Register interest</tspan>
                    </text>
                </g>
                <g id="Page-Copy-9" transform="translate(850.000000, 220.000000)">
                    <path d="M0,20 L90,20 L90,75 C90,77.7614237 87.7614237,80 85,80 L5,80 C2.23857625,80 3.38176876e-16,77.7614237 0,75 L0,20 Z" id="Rectangle" fill="#EEEEEE"></path>
                    <path d="M5,0 L85,0 C87.7614237,-5.07265313e-16 90,2.23857625 90,5 L90,20 L0,20 L0,5 C-3.38176876e-16,2.23857625 2.23857625,5.07265313e-16 5,0 Z" id="Rectangle" fill="#777777"></path>
                    <text id="8.1" font-family="Usual-Regular, Usual" font-size="10" font-weight="normal" fill="#FFFFFF">
                        <tspan x="6" y="14">8.1</tspan>
                    </text>
                    <text id="Mailing-list" font-family="Usual-Regular, Usual" font-size="10" font-weight="normal" fill="#777777">
                        <tspan x="27.465" y="47">Mailing</tspan>
                        <tspan x="38.06" y="59">list</tspan>
                    </text>
                </g>
                <g id="Page-Copy-15" transform="translate(850.000000, 320.000000)">
                    <path d="M0,20 L90,20 L90,75 C90,77.7614237 87.7614237,80 85,80 L5,80 C2.23857625,80 3.38176876e-16,77.7614237 0,75 L0,20 Z" id="Rectangle" fill="#EEEEEE"></path>
                    <path d="M5,0 L85,0 C87.7614237,-5.07265313e-16 90,2.23857625 90,5 L90,20 L0,20 L0,5 C-3.38176876e-16,2.23857625 2.23857625,5.07265313e-16 5,0 Z" id="Rectangle" fill="#777777"></path>
                    <text id="8.2" font-family="Usual-Regular, Usual" font-size="10" font-weight="normal" fill="#FFFFFF">
                        <tspan x="6" y="14">8.2</tspan>
                    </text>
                    <text id="Register-insight-day" font-family="Usual-Regular, Usual" font-size="10" font-weight="normal" fill="#777777">
                        <tspan x="25.075" y="47">Register</tspan>
                        <tspan x="18.795" y="59">insight day</tspan>
                    </text>
                </g>
                <g id="Page-Copy-10" transform="translate(250.000000, 220.000000)">
                    <path d="M0,20 L90,20 L90,75 C90,77.7614237 87.7614237,80 85,80 L5,80 C2.23857625,80 3.38176876e-16,77.7614237 0,75 L0,20 Z" id="Rectangle" fill="#EEEEEE"></path>
                    <path d="M5,0 L85,0 C87.7614237,-5.07265313e-16 90,2.23857625 90,5 L90,20 L0,20 L0,5 C-3.38176876e-16,2.23857625 2.23857625,5.07265313e-16 5,0 Z" id="Rectangle" fill="#BBDCDB"></path>
                    <text id="3.1" font-family="Usual-Regular, Usual" font-size="10" font-weight="normal" fill="#FFFFFF">
                        <tspan x="6" y="14">3.1</tspan>
                    </text>
                    <text id="Franchisee-profile" font-family="Usual-Regular, Usual" font-size="10" font-weight="normal" fill="#777777">
                        <tspan x="18.88" y="47">Franchisee</tspan>
                        <tspan x="29.655" y="59">profile</tspan>
                    </text>
                </g>
                <g id="Page-Copy-14" transform="translate(490.000000, 220.000000)">
                    <path d="M0,20 L90,20 L90,75 C90,77.7614237 87.7614237,80 85,80 L5,80 C2.23857625,80 3.38176876e-16,77.7614237 0,75 L0,20 Z" id="Rectangle" fill="#EEEEEE"></path>
                    <path d="M5,0 L85,0 C87.7614237,-5.07265313e-16 90,2.23857625 90,5 L90,20 L0,20 L0,5 C-3.38176876e-16,2.23857625 2.23857625,5.07265313e-16 5,0 Z" id="Rectangle" fill="#777777"></path>
                    <text id="5.1" font-family="Usual-Regular, Usual" font-size="10" font-weight="normal" fill="#FFFFFF">
                        <tspan x="6" y="14">5.1</tspan>
                    </text>
                    <text id="Training" font-family="Usual-Regular, Usual" font-size="10" font-weight="normal" fill="#777777">
                        <tspan x="25.175" y="52">Training</tspan>
                    </text>
                </g>
                <g id="Page-Copy-11" transform="translate(250.000000, 320.000000)">
                    <path d="M0,20 L90,20 L90,75 C90,77.7614237 87.7614237,80 85,80 L5,80 C2.23857625,80 3.38176876e-16,77.7614237 0,75 L0,20 Z" id="Rectangle" fill="#EEEEEE"></path>
                    <path d="M5,0 L85,0 C87.7614237,-5.07265313e-16 90,2.23857625 90,5 L90,20 L0,20 L0,5 C-3.38176876e-16,2.23857625 2.23857625,5.07265313e-16 5,0 Z" id="Rectangle" fill="#D2B3C2"></path>
                    <text id="3.2" font-family="Usual-Regular, Usual" font-size="10" font-weight="normal" fill="#FFFFFF">
                        <tspan x="6" y="14">3.2</tspan>
                    </text>
                    <text id="Franchisee-profile" font-family="Usual-Regular, Usual" font-size="10" font-weight="normal" fill="#777777">
                        <tspan x="18.88" y="47">Franchisee</tspan>
                        <tspan x="29.655" y="59">profile</tspan>
                    </text>
                </g>
                <g id="Page-Copy-12" transform="translate(250.000000, 420.000000)">
                    <path d="M0,20 L90,20 L90,75 C90,77.7614237 87.7614237,80 85,80 L5,80 C2.23857625,80 3.38176876e-16,77.7614237 0,75 L0,20 Z" id="Rectangle" fill="#EEEEEE"></path>
                    <path d="M5,0 L85,0 C87.7614237,-5.07265313e-16 90,2.23857625 90,5 L90,20 L0,20 L0,5 C-3.38176876e-16,2.23857625 2.23857625,5.07265313e-16 5,0 Z" id="Rectangle" fill="#EFCAC4"></path>
                    <text id="3.3" font-family="Usual-Regular, Usual" font-size="10" font-weight="normal" fill="#FFFFFF">
                        <tspan x="6" y="14">3.3</tspan>
                    </text>
                    <text id="Franchisee-profile" font-family="Usual-Regular, Usual" font-size="10" font-weight="normal" fill="#777777">
                        <tspan x="18.88" y="47">Franchisee</tspan>
                        <tspan x="29.655" y="59">profile</tspan>
                    </text>
                </g>
                <g id="Page-Copy-13" transform="translate(250.000000, 520.000000)">
                    <path d="M0,20 L90,20 L90,75 C90,77.7614237 87.7614237,80 85,80 L5,80 C2.23857625,80 3.38176876e-16,77.7614237 0,75 L0,20 Z" id="Rectangle" fill="#EEEEEE"></path>
                    <path d="M5,0 L85,0 C87.7614237,-5.07265313e-16 90,2.23857625 90,5 L90,20 L0,20 L0,5 C-3.38176876e-16,2.23857625 2.23857625,5.07265313e-16 5,0 Z" id="Rectangle" fill="#BEC2E1"></path>
                    <text id="3.4" font-family="Usual-Regular, Usual" font-size="10" font-weight="normal" fill="#FFFFFF">
                        <tspan x="6" y="14">3.4</tspan>
                    </text>
                    <text id="Franchisee-profile" font-family="Usual-Regular, Usual" font-size="10" font-weight="normal" fill="#777777">
                        <tspan x="18.88" y="47">Franchisee</tspan>
                        <tspan x="29.655" y="59">profile</tspan>
                    </text>
                </g>
                <path d="M470.5,80.5 L470.5,99.5" id="Line-2-Copy-10" stroke="#DDDDDD" stroke-linecap="square"></path>
                <path d="M50.5,100.5 L889.5,100.5" id="Line" stroke="#DDDDDD" stroke-linecap="square"></path>
                <path d="M50.5,100.5 L50.5,119.5" id="Line-2" stroke="#DDDDDD" stroke-linecap="square"></path>
                <path d="M170.5,100.5 L170.5,119.5" id="Line-2-Copy" stroke="#DDDDDD" stroke-linecap="square"></path>
                <path d="M290.5,100.5 L290.5,119.5" id="Line-2-Copy-2" stroke="#DDDDDD" stroke-linecap="square"></path>
                <path d="M410.5,100.5 L410.5,119.5" id="Line-2-Copy-3" stroke="#DDDDDD" stroke-linecap="square"></path>
                <path d="M530.5,100.5 L530.5,119.5" id="Line-2-Copy-4" stroke="#DDDDDD" stroke-linecap="square"></path>
                <path d="M650.5,100.5 L650.5,119.5" id="Line-2-Copy-5" stroke="#DDDDDD" stroke-linecap="square"></path>
                <path d="M770.5,100.5 L770.5,119.5" id="Line-2-Copy-6" stroke="#DDDDDD" stroke-linecap="square"></path>
                <path d="M890.5,100.5 L890.5,119.5" id="Line-2-Copy-7" stroke="#DDDDDD" stroke-linecap="square"></path>
                <path d="M830.5,130.5 L830.5,329.5" id="Line-2-Copy-8" stroke="#DDDDDD" stroke-linecap="square"></path>
                <path d="M230.5,130.5 L230.5,529.5" id="Line-2-Copy-11" stroke="#DDDDDD" stroke-linecap="square"></path>
                <path d="M470.5,130.5 L470.5,229.5" id="Line-2-Copy-9" stroke="#DDDDDD" stroke-linecap="square"></path>
                <path d="M830.5,130.5 L839.5,130.5" id="Line-3" stroke="#DDDDDD" stroke-linecap="square"></path>
                <path d="M230.5,130.5 L239.5,130.5" id="Line-3-Copy-5" stroke="#DDDDDD" stroke-linecap="square"></path>
                <path d="M470.5,130.5 L479.5,130.5" id="Line-3-Copy-3" stroke="#DDDDDD" stroke-linecap="square"></path>
                <path d="M830.5,230.5 L849.5,230.5" id="Line-3-Copy" stroke="#DDDDDD" stroke-linecap="square"></path>
                <path d="M230.5,230.5 L249.5,230.5" id="Line-3-Copy-6" stroke="#DDDDDD" stroke-linecap="square"></path>
                <path d="M470.5,230.5 L489.5,230.5" id="Line-3-Copy-4" stroke="#DDDDDD" stroke-linecap="square"></path>
                <path d="M830.5,330.5 L849.5,330.5" id="Line-3-Copy-2" stroke="#DDDDDD" stroke-linecap="square"></path>
                <path d="M230.5,330.5 L249.5,330.5" id="Line-3-Copy-7" stroke="#DDDDDD" stroke-linecap="square"></path>
                <path d="M230.5,430.5 L249.5,430.5" id="Line-3-Copy-8" stroke="#DDDDDD" stroke-linecap="square"></path>
                <path d="M230.5,530.5 L249.5,530.5" id="Line-3-Copy-9" stroke="#DDDDDD" stroke-linecap="square"></path>
            </g>
        </g>
    </g>
</svg>