<?xml version="1.0" encoding="UTF-8" standalone="no"?>
<svg width="940px" height="600px" viewBox="0 0 940 600" version="1.1" xmlns="http://www.w3.org/2000/svg" xmlns:xlink="http://www.w3.org/1999/xlink">
    <!-- Generator: Sketch 49 (51002) - http://www.bohemiancoding.com/sketch -->
    <title>Group 2</title>
    <desc>Created with Sketch.</desc>
    <defs></defs>
    <g id="Page-1" stroke="none" stroke-width="1" fill="none" fill-rule="evenodd">
        <g id="Desktop-HD" transform="translate(-1140.000000, -200.000000)">
            <g id="Group-2" transform="translate(1140.000000, 200.000000)">
                <g id="Group-Copy">
                    <g id="Page" transform="translate(420.000000, 0.000000)">
                        <path d="M0,20 L100,20 L100,75 C100,77.7614237 97.7614237,80 95,80 L5,80 C2.23857625,80 3.38176876e-16,77.7614237 0,75 L0,20 Z" id="Rectangle" fill="#EEEEEE"></path>
                        <path d="M5,0 L95,0 C97.7614237,-5.07265313e-16 100,2.23857625 100,5 L100,20 L0,20 L0,5 C-3.38176876e-16,2.23857625 2.23857625,5.07265313e-16 5,0 Z" id="Rectangle" fill="#777777"></path>
                        <path d="M9.14,14.11 C6.98,14.11 6.49,12.28 6.49,10.34 C6.49,8.41 6.97,6.55 9.14,6.55 C11.3,6.55 11.79,8.38 11.79,10.32 C11.79,12.25 11.31,14.11 9.14,14.11 Z M9.14,13.26 C10.65,13.26 10.8,11.76 10.8,10.33 C10.8,8.9 10.65,7.4 9.14,7.4 C7.63,7.4 7.48,8.9 7.48,10.33 C7.48,11.76 7.63,13.26 9.14,13.26 Z M13.17,14 L13.17,12.9 L14.27,12.9 L14.27,14 L13.17,14 Z M18.3,14.11 C16.14,14.11 15.65,12.28 15.65,10.34 C15.65,8.41 16.13,6.55 18.3,6.55 C20.46,6.55 20.95,8.38 20.95,10.32 C20.95,12.25 20.47,14.11 18.3,14.11 Z M18.3,13.26 C19.81,13.26 19.96,11.76 19.96,10.33 C19.96,8.9 19.81,7.4 18.3,7.4 C16.79,7.4 16.64,8.9 16.64,10.33 C16.64,11.76 16.79,13.26 18.3,13.26 Z" id="0.0" fill="#FFFFFF"></path>
                        <path d="M25.435,53 L24.425,53 L24.425,45.32 L25.435,45.32 L25.435,48.69 L29.445,48.69 L29.445,45.32 L30.455,45.32 L30.455,53 L29.445,53 L29.445,49.57 L25.435,49.57 L25.435,53 Z M34.405,53.11 C32.725,53.11 31.765,51.87 31.765,50.32 C31.765,48.76 32.725,47.52 34.405,47.52 C36.095,47.52 37.035,48.78 37.035,50.32 C37.035,51.85 36.095,53.11 34.405,53.11 Z M34.395,48.33 C33.285,48.33 32.725,49.25 32.725,50.32 C32.725,51.38 33.285,52.3 34.395,52.3 C35.505,52.3 36.075,51.38 36.075,50.32 C36.075,49.25 35.505,48.33 34.395,48.33 Z M39.205,48.35 L39.225,48.35 C39.555,47.84 40.065,47.52 40.805,47.52 C41.575,47.52 42.155,47.87 42.425,48.44 C42.815,47.81 43.435,47.52 44.165,47.52 C45.245,47.52 45.955,48.2 45.955,49.22 L45.955,53 L45.005,53 L45.005,49.44 C45.005,48.82 44.645,48.34 43.895,48.34 C43.095,48.34 42.585,48.88 42.585,49.62 L42.585,53 L41.635,53 L41.635,49.44 C41.635,48.82 41.265,48.34 40.535,48.34 C39.735,48.34 39.215,48.88 39.215,49.62 L39.215,53 L38.265,53 L38.265,47.63 L39.185,47.63 L39.205,48.35 Z M48.125,49.9 L51.105,49.9 C51.045,49.02 50.605,48.32 49.655,48.32 C48.715,48.32 48.215,49 48.125,49.9 Z M51.185,51.65 L51.845,52.24 C51.365,52.8 50.675,53.11 49.815,53.11 C48.125,53.11 47.165,52 47.165,50.31 C47.165,48.69 48.125,47.52 49.675,47.52 C51.215,47.52 52.045,48.67 52.045,50.14 C52.045,50.3 52.035,50.55 52.015,50.69 L48.135,50.69 C48.235,51.71 48.825,52.3 49.825,52.3 C50.415,52.3 50.865,52.08 51.185,51.65 Z M55.975,53.11 C55.205,53.11 54.615,52.8 54.205,52.22 L54.185,52.22 L54.185,54.83 L53.235,54.83 L53.235,47.63 L54.155,47.63 L54.175,48.48 L54.195,48.48 C54.605,47.87 55.265,47.52 56.015,47.52 C57.505,47.52 58.395,48.73 58.395,50.29 C58.395,51.83 57.475,53.11 55.975,53.11 Z M55.775,52.28 C56.865,52.28 57.435,51.38 57.435,50.31 C57.435,49.3 56.925,48.35 55.785,48.35 C54.715,48.35 54.155,49.27 54.155,50.34 C54.155,51.44 54.735,52.28 55.775,52.28 Z M63.675,53 L62.745,53 L62.725,52.22 L62.705,52.22 C62.405,52.75 61.855,53.11 61.085,53.11 C60.035,53.11 59.355,52.44 59.355,51.49 C59.355,50.79 59.715,50.32 60.395,50.1 C60.985,49.91 61.855,49.87 62.735,49.84 L62.735,49.36 C62.735,48.81 62.355,48.32 61.545,48.32 C60.865,48.32 60.475,48.64 60.305,49.13 L59.515,48.75 C59.825,47.94 60.595,47.52 61.575,47.52 C62.855,47.52 63.675,48.19 63.675,49.36 L63.675,53 Z M61.305,52.31 C62.175,52.31 62.735,51.65 62.735,50.88 L62.735,50.57 C62.375,50.58 61.815,50.62 61.365,50.68 C60.755,50.76 60.305,50.93 60.305,51.48 C60.305,51.98 60.685,52.31 61.305,52.31 Z M69.935,47.63 L69.935,52.41 C69.935,54.12 68.835,54.94 67.215,54.94 C66.365,54.94 65.685,54.7 65.205,54.38 L65.635,53.63 C66.025,53.89 66.495,54.13 67.205,54.13 C68.205,54.13 68.995,53.68 68.995,52.41 L68.995,51.95 L68.975,51.95 C68.565,52.59 67.915,52.91 67.185,52.91 C65.765,52.91 64.895,51.71 64.895,50.25 C64.895,48.78 65.775,47.52 67.255,47.52 C68.035,47.52 68.615,47.87 68.995,48.4 L69.015,48.4 L69.045,47.63 L69.935,47.63 Z M67.425,52.08 C68.455,52.08 69.015,51.24 69.015,50.2 C69.015,49.17 68.445,48.35 67.435,48.35 C66.385,48.35 65.855,49.21 65.855,50.22 C65.855,51.19 66.345,52.08 67.425,52.08 Z M72.125,49.9 L75.105,49.9 C75.045,49.02 74.605,48.32 73.655,48.32 C72.715,48.32 72.215,49 72.125,49.9 Z M75.185,51.65 L75.845,52.24 C75.365,52.8 74.675,53.11 73.815,53.11 C72.125,53.11 71.165,52 71.165,50.31 C71.165,48.69 72.125,47.52 73.675,47.52 C75.215,47.52 76.045,48.67 76.045,50.14 C76.045,50.3 76.035,50.55 76.015,50.69 L72.135,50.69 C72.235,51.71 72.825,52.3 73.825,52.3 C74.415,52.3 74.865,52.08 75.185,51.65 Z" id="Homepage" fill="#777777"></path>
                    </g>
                    <g id="Page-Copy" transform="translate(0.000000, 120.000000)">
                        <path d="M0,20 L100,20 L100,75 C100,77.7614237 97.7614237,80 95,80 L5,80 C2.23857625,80 3.38176876e-16,77.7614237 0,75 L0,20 Z" id="Rectangle" fill="#EEEEEE"></path>
                        <path d="M5,0 L95,0 C97.7614237,-5.07265313e-16 100,2.23857625 100,5 L100,20 L0,20 L0,5 C-3.38176876e-16,2.23857625 2.23857625,5.07265313e-16 5,0 Z" id="Rectangle" fill="#777777"></path>
                        <path d="M7,14 L7,13.13 L8.79,13.13 L8.79,7.88 C8.24,8.21 7.62,8.41 7,8.57 L7,7.7 C7.83,7.45 8.53,7.12 9.1,6.66 L9.78,6.66 L9.78,13.13 L11.56,13.13 L11.56,14 L7,14 Z M13.17,14 L13.17,12.9 L14.27,12.9 L14.27,14 L13.17,14 Z M18.3,14.11 C16.14,14.11 15.65,12.28 15.65,10.34 C15.65,8.41 16.13,6.55 18.3,6.55 C20.46,6.55 20.95,8.38 20.95,10.32 C20.95,12.25 20.47,14.11 18.3,14.11 Z M18.3,13.26 C19.81,13.26 19.96,11.76 19.96,10.33 C19.96,8.9 19.81,7.4 18.3,7.4 C16.79,7.4 16.64,8.9 16.64,10.33 C16.64,11.76 16.79,13.26 18.3,13.26 Z" id="1.0" fill="#FFFFFF"></path>
                        <path d="M48.98,39.32 L50.01,39.32 L47.73,47 L46.58,47 L44.69,40.71 L44.67,40.71 L42.78,47 L41.62,47 L39.34,39.32 L40.41,39.32 L42.24,45.7 L42.26,45.7 L44.13,39.32 L45.27,39.32 L47.15,45.71 L47.17,45.71 L48.98,39.32 Z M50.9,47 L50.9,39.32 L51.85,39.32 L51.85,42.4 L51.87,42.4 C52.23,41.85 52.83,41.52 53.6,41.52 C54.76,41.52 55.49,42.27 55.49,43.4 L55.49,47 L54.54,47 L54.54,43.59 C54.54,42.89 54.13,42.34 53.32,42.34 C52.42,42.34 51.85,42.96 51.85,43.8 L51.85,47 L50.9,47 Z M60.63,41.63 L61.63,41.63 L59.35,47.41 C58.89,48.58 58.42,48.94 57.62,48.94 C57.34,48.94 57.13,48.89 56.97,48.83 L56.97,48.06 C57.09,48.1 57.23,48.13 57.42,48.13 C57.95,48.13 58.27,47.92 58.52,47.14 L58.54,47.08 L56.39,41.63 L57.43,41.63 L59.01,45.91 L59.03,45.91 L60.63,41.63 Z M26.82,51.32 L28.25,51.32 L28.25,59 L27.25,59 L27.25,52.77 L27.23,52.77 L24.84,59 L23.91,59 L21.52,52.77 L21.5,52.77 L21.5,59 L20.52,59 L20.52,51.32 L21.97,51.32 L24.38,57.7 L24.4,57.7 L26.82,51.32 Z M32.18,59.11 C30.53,59.11 29.57,57.92 29.57,56.34 C29.57,54.75 30.52,53.52 32.17,53.52 C33.19,53.52 33.91,54.01 34.32,54.78 L33.53,55.23 C33.26,54.71 32.83,54.33 32.15,54.33 C31.1,54.33 30.53,55.21 30.53,56.32 C30.53,57.4 31.08,58.3 32.21,58.3 C32.92,58.3 33.35,57.94 33.61,57.43 L34.36,57.86 C33.98,58.61 33.22,59.11 32.18,59.11 Z M35.36,59 L35.36,51.32 L37.94,51.32 C40.53,51.32 41.81,53.05 41.81,55.16 C41.81,57.46 40.33,59 38.03,59 L35.36,59 Z M36.37,58.12 L37.97,58.12 C39.64,58.12 40.78,57.15 40.78,55.17 C40.78,53.1 39.5,52.2 37.88,52.2 L36.37,52.2 L36.37,58.12 Z M45.34,59.11 C43.66,59.11 42.7,57.87 42.7,56.32 C42.7,54.76 43.66,53.52 45.34,53.52 C47.03,53.52 47.97,54.78 47.97,56.32 C47.97,57.85 47.03,59.11 45.34,59.11 Z M45.33,54.33 C44.22,54.33 43.66,55.25 43.66,56.32 C43.66,57.38 44.22,58.3 45.33,58.3 C46.44,58.3 47.01,57.38 47.01,56.32 C47.01,55.25 46.44,54.33 45.33,54.33 Z M49.2,59 L49.2,53.63 L50.12,53.63 L50.14,54.42 L50.16,54.42 C50.5,53.88 51.1,53.52 51.9,53.52 C53.06,53.52 53.79,54.27 53.79,55.4 L53.79,59 L52.84,59 L52.84,55.59 C52.84,54.89 52.43,54.34 51.62,54.34 C50.72,54.34 50.15,54.96 50.15,55.8 L50.15,59 L49.2,59 Z M59.37,59 L58.44,59 L58.42,58.22 L58.4,58.22 C58.1,58.75 57.55,59.11 56.78,59.11 C55.73,59.11 55.05,58.44 55.05,57.49 C55.05,56.79 55.41,56.32 56.09,56.1 C56.68,55.91 57.55,55.87 58.43,55.84 L58.43,55.36 C58.43,54.81 58.05,54.32 57.24,54.32 C56.56,54.32 56.17,54.64 56,55.13 L55.21,54.75 C55.52,53.94 56.29,53.52 57.27,53.52 C58.55,53.52 59.37,54.19 59.37,55.36 L59.37,59 Z M57,58.31 C57.87,58.31 58.43,57.65 58.43,56.88 L58.43,56.57 C58.07,56.58 57.51,56.62 57.06,56.68 C56.45,56.76 56,56.93 56,57.48 C56,57.98 56.38,58.31 57,58.31 Z M61.88,59 L60.93,59 L60.93,51.32 L61.88,51.32 L61.88,59 Z M65.53,59.11 C64.02,59.11 63.14,57.86 63.14,56.36 C63.14,54.78 64.07,53.52 65.58,53.52 C66.29,53.52 66.91,53.83 67.33,54.41 L67.35,54.41 L67.35,51.32 L68.3,51.32 L68.3,59 L67.37,59 L67.36,58.13 L67.34,58.13 C66.89,58.78 66.25,59.11 65.53,59.11 Z M65.7,58.28 C66.76,58.28 67.38,57.45 67.38,56.31 C67.38,55.13 66.76,54.35 65.73,54.35 C64.61,54.35 64.1,55.3 64.1,56.33 C64.1,57.33 64.61,58.28 65.7,58.28 Z M69.62,54.05 L70.13,51.32 L71.09,51.32 L70.36,54.05 L69.62,54.05 Z M74.16,59.11 C73.21,59.11 72.47,58.83 71.91,58.3 L72.49,57.65 C72.96,58.1 73.55,58.31 74.19,58.31 C75.04,58.31 75.45,58 75.45,57.54 C75.45,57.03 74.91,56.91 74.01,56.72 C73,56.5 72.1,56.19 72.1,55.15 C72.1,54.23 72.82,53.52 74.22,53.52 C75.08,53.52 75.75,53.78 76.31,54.29 L75.74,54.94 C75.28,54.52 74.77,54.32 74.19,54.32 C73.44,54.32 73.06,54.64 73.06,55.05 C73.06,55.55 73.54,55.66 74.47,55.86 C75.46,56.08 76.41,56.36 76.41,57.43 C76.41,58.41 75.63,59.11 74.16,59.11 Z M79.87,55.21 C79.33,55.7 79.2,55.88 79.2,56.52 L79.2,57.06 L78.38,57.06 L78.38,56.27 C78.38,55.41 78.72,55.12 79.34,54.55 C79.81,54.12 80.15,53.76 80.15,53.15 C80.15,52.43 79.69,52.05 78.99,52.05 C78.45,52.05 78,52.27 77.65,52.67 L77.07,52.03 C77.47,51.59 78.15,51.21 79.04,51.21 C80.26,51.21 81.12,51.93 81.12,53.11 C81.12,54.03 80.62,54.52 79.87,55.21 Z M78.24,59 L78.24,57.9 L79.34,57.9 L79.34,59 L78.24,59 Z" id="Why-McDonald’s?" fill="#777777"></path>
                    </g>
                    <g id="Page-Copy-2" transform="translate(120.000000, 120.000000)">
                        <path d="M0,20 L100,20 L100,75 C100,77.7614237 97.7614237,80 95,80 L5,80 C2.23857625,80 3.38176876e-16,77.7614237 0,75 L0,20 Z" id="Rectangle" fill="#EEEEEE"></path>
                        <path d="M5,0 L95,0 C97.7614237,-5.07265313e-16 100,2.23857625 100,5 L100,20 L0,20 L0,5 C-3.38176876e-16,2.23857625 2.23857625,5.07265313e-16 5,0 Z" id="Rectangle" fill="#777777"></path>
                        <path d="M6.69,14 L6.69,13.29 L9.25,10.73 C9.97,10.02 10.43,9.38 10.43,8.67 C10.43,7.93 9.94,7.42 9,7.42 C8.25,7.42 7.79,7.74 7.38,8.31 L6.67,7.76 C7.21,7.01 7.97,6.55 9.07,6.55 C10.55,6.55 11.42,7.38 11.42,8.6 C11.42,9.39 11.05,10.17 10.25,10.97 L8.1,13.11 L8.1,13.13 L11.57,13.13 L11.57,14 L6.69,14 Z M13.17,14 L13.17,12.9 L14.27,12.9 L14.27,14 L13.17,14 Z M18.3,14.11 C16.14,14.11 15.65,12.28 15.65,10.34 C15.65,8.41 16.13,6.55 18.3,6.55 C20.46,6.55 20.95,8.38 20.95,10.32 C20.95,12.25 20.47,14.11 18.3,14.11 Z M18.3,13.26 C19.81,13.26 19.96,11.76 19.96,10.33 C19.96,8.9 19.81,7.4 18.3,7.4 C16.79,7.4 16.64,8.9 16.64,10.33 C16.64,11.76 16.79,13.26 18.3,13.26 Z" id="2.0" fill="#FFFFFF"></path>
                        <path d="M44.185,39.32 L45.315,39.32 L42.455,43.97 L42.455,47 L41.445,47 L41.445,43.99 L38.585,39.32 L39.755,39.32 L41.945,43.01 L41.965,43.01 L44.185,39.32 Z M48.415,47.11 C46.735,47.11 45.775,45.87 45.775,44.32 C45.775,42.76 46.735,41.52 48.415,41.52 C50.105,41.52 51.045,42.78 51.045,44.32 C51.045,45.85 50.105,47.11 48.415,47.11 Z M48.405,42.33 C47.295,42.33 46.735,43.25 46.735,44.32 C46.735,45.38 47.295,46.3 48.405,46.3 C49.515,46.3 50.085,45.38 50.085,44.32 C50.085,43.25 49.515,42.33 48.405,42.33 Z M56.845,41.63 L56.845,47 L55.915,47 L55.905,46.21 L55.885,46.21 C55.535,46.74 54.925,47.11 54.145,47.11 C52.985,47.11 52.255,46.36 52.255,45.23 L52.255,41.63 L53.205,41.63 L53.205,45.04 C53.205,45.74 53.595,46.29 54.425,46.29 C55.325,46.29 55.895,45.67 55.895,44.83 L55.895,41.63 L56.845,41.63 Z M58.425,47 L58.425,41.63 L59.345,41.63 L59.365,42.44 L59.385,42.44 C59.745,41.77 60.245,41.52 60.765,41.52 C60.955,41.52 61.095,41.55 61.215,41.59 L61.215,42.52 C61.125,42.49 60.935,42.45 60.715,42.45 C59.825,42.45 59.375,43.08 59.375,43.74 L59.375,47 L58.425,47 Z M26.155,59 L26.155,53.63 L27.075,53.63 L27.095,54.44 L27.115,54.44 C27.475,53.77 27.975,53.52 28.495,53.52 C28.685,53.52 28.825,53.55 28.945,53.59 L28.945,54.52 C28.855,54.49 28.665,54.45 28.445,54.45 C27.555,54.45 27.105,55.08 27.105,55.74 L27.105,59 L26.155,59 Z M30.565,55.9 L33.545,55.9 C33.485,55.02 33.045,54.32 32.095,54.32 C31.155,54.32 30.655,55 30.565,55.9 Z M33.625,57.65 L34.285,58.24 C33.805,58.8 33.115,59.11 32.255,59.11 C30.565,59.11 29.605,58 29.605,56.31 C29.605,54.69 30.565,53.52 32.115,53.52 C33.655,53.52 34.485,54.67 34.485,56.14 C34.485,56.3 34.475,56.55 34.455,56.69 L30.575,56.69 C30.675,57.71 31.265,58.3 32.265,58.3 C32.855,58.3 33.305,58.08 33.625,57.65 Z M37.425,59.11 C36.475,59.11 35.735,58.83 35.175,58.3 L35.755,57.65 C36.225,58.1 36.815,58.31 37.455,58.31 C38.305,58.31 38.715,58 38.715,57.54 C38.715,57.03 38.175,56.91 37.275,56.72 C36.265,56.5 35.365,56.19 35.365,55.15 C35.365,54.23 36.085,53.52 37.485,53.52 C38.345,53.52 39.015,53.78 39.575,54.29 L39.005,54.94 C38.545,54.52 38.035,54.32 37.455,54.32 C36.705,54.32 36.325,54.64 36.325,55.05 C36.325,55.55 36.805,55.66 37.735,55.86 C38.725,56.08 39.675,56.36 39.675,57.43 C39.675,58.41 38.895,59.11 37.425,59.11 Z M40.135,54.42 L40.135,53.63 L41.205,53.63 L41.205,51.93 L42.155,51.93 L42.155,53.63 L43.445,53.63 L43.445,54.42 L42.155,54.42 L42.155,57.36 C42.155,58 42.325,58.29 43.025,58.29 C43.205,58.29 43.335,58.27 43.445,58.25 L43.445,59.02 C43.235,59.07 42.995,59.11 42.695,59.11 C41.675,59.11 41.205,58.55 41.205,57.6 L41.205,54.42 L40.135,54.42 Z M48.515,59 L47.585,59 L47.565,58.22 L47.545,58.22 C47.245,58.75 46.695,59.11 45.925,59.11 C44.875,59.11 44.195,58.44 44.195,57.49 C44.195,56.79 44.555,56.32 45.235,56.1 C45.825,55.91 46.695,55.87 47.575,55.84 L47.575,55.36 C47.575,54.81 47.195,54.32 46.385,54.32 C45.705,54.32 45.315,54.64 45.145,55.13 L44.355,54.75 C44.665,53.94 45.435,53.52 46.415,53.52 C47.695,53.52 48.515,54.19 48.515,55.36 L48.515,59 Z M46.145,58.31 C47.015,58.31 47.575,57.65 47.575,56.88 L47.575,56.57 C47.215,56.58 46.655,56.62 46.205,56.68 C45.595,56.76 45.145,56.93 45.145,57.48 C45.145,57.98 45.525,58.31 46.145,58.31 Z M54.645,53.63 L54.645,59 L53.715,59 L53.705,58.21 L53.685,58.21 C53.335,58.74 52.725,59.11 51.945,59.11 C50.785,59.11 50.055,58.36 50.055,57.23 L50.055,53.63 L51.005,53.63 L51.005,57.04 C51.005,57.74 51.395,58.29 52.225,58.29 C53.125,58.29 53.695,57.67 53.695,56.83 L53.695,53.63 L54.645,53.63 Z M56.225,59 L56.225,53.63 L57.145,53.63 L57.165,54.44 L57.185,54.44 C57.545,53.77 58.045,53.52 58.565,53.52 C58.755,53.52 58.895,53.55 59.015,53.59 L59.015,54.52 C58.925,54.49 58.735,54.45 58.515,54.45 C57.625,54.45 57.175,55.08 57.175,55.74 L57.175,59 L56.225,59 Z M64.045,59 L63.115,59 L63.095,58.22 L63.075,58.22 C62.775,58.75 62.225,59.11 61.455,59.11 C60.405,59.11 59.725,58.44 59.725,57.49 C59.725,56.79 60.085,56.32 60.765,56.1 C61.355,55.91 62.225,55.87 63.105,55.84 L63.105,55.36 C63.105,54.81 62.725,54.32 61.915,54.32 C61.235,54.32 60.845,54.64 60.675,55.13 L59.885,54.75 C60.195,53.94 60.965,53.52 61.945,53.52 C63.225,53.52 64.045,54.19 64.045,55.36 L64.045,59 Z M61.675,58.31 C62.545,58.31 63.105,57.65 63.105,56.88 L63.105,56.57 C62.745,56.58 62.185,56.62 61.735,56.68 C61.125,56.76 60.675,56.93 60.675,57.48 C60.675,57.98 61.055,58.31 61.675,58.31 Z M65.605,59 L65.605,53.63 L66.525,53.63 L66.545,54.42 L66.565,54.42 C66.905,53.88 67.505,53.52 68.305,53.52 C69.465,53.52 70.195,54.27 70.195,55.4 L70.195,59 L69.245,59 L69.245,55.59 C69.245,54.89 68.835,54.34 68.025,54.34 C67.125,54.34 66.555,54.96 66.555,55.8 L66.555,59 L65.605,59 Z M71.065,54.42 L71.065,53.63 L72.135,53.63 L72.135,51.93 L73.085,51.93 L73.085,53.63 L74.375,53.63 L74.375,54.42 L73.085,54.42 L73.085,57.36 C73.085,58 73.255,58.29 73.955,58.29 C74.135,58.29 74.265,58.27 74.375,58.25 L74.375,59.02 C74.165,59.07 73.925,59.11 73.625,59.11 C72.605,59.11 72.135,58.55 72.135,57.6 L72.135,54.42 L71.065,54.42 Z" id="Your-restaurant" fill="#777777"></path>
                    </g>
                    <g id="Page-Copy-3" transform="translate(240.000000, 120.000000)">
                        <path d="M0,20 L100,20 L100,75 C100,77.7614237 97.7614237,80 95,80 L5,80 C2.23857625,80 3.38176876e-16,77.7614237 0,75 L0,20 Z" id="Rectangle" fill="#EEEEEE"></path>
                        <path d="M5,0 L95,0 C97.7614237,-5.07265313e-16 100,2.23857625 100,5 L100,20 L0,20 L0,5 C-3.38176876e-16,2.23857625 2.23857625,5.07265313e-16 5,0 Z" id="Rectangle" fill="#777777"></path>
                        <path d="M8.94,14.11 C7.75,14.11 6.88,13.61 6.49,12.94 L7.24,12.41 C7.59,12.96 8.12,13.26 8.93,13.26 C9.99,13.26 10.6,12.74 10.6,11.96 C10.6,11.19 9.96,10.66 8.95,10.66 L8.24,10.66 L8.24,9.82 L8.95,9.82 C9.86,9.82 10.45,9.32 10.45,8.61 C10.45,7.89 9.89,7.4 8.93,7.4 C8.18,7.4 7.69,7.69 7.39,8.18 L6.66,7.66 C7.04,7.04 7.85,6.55 8.96,6.55 C10.48,6.55 11.44,7.39 11.44,8.55 C11.44,9.33 11,9.9 10.26,10.18 L10.26,10.2 C11.13,10.51 11.59,11.14 11.59,11.99 C11.59,13.22 10.58,14.11 8.94,14.11 Z M13.17,14 L13.17,12.9 L14.27,12.9 L14.27,14 L13.17,14 Z M18.3,14.11 C16.14,14.11 15.65,12.28 15.65,10.34 C15.65,8.41 16.13,6.55 18.3,6.55 C20.46,6.55 20.95,8.38 20.95,10.32 C20.95,12.25 20.47,14.11 18.3,14.11 Z M18.3,13.26 C19.81,13.26 19.96,11.76 19.96,10.33 C19.96,8.9 19.81,7.4 18.3,7.4 C16.79,7.4 16.64,8.9 16.64,10.33 C16.64,11.76 16.79,13.26 18.3,13.26 Z" id="3.0" fill="#FFFFFF"></path>
                        <path d="M23.735,49.17 C23.735,47.01 24.985,45.21 27.315,45.21 C29.615,45.21 30.905,46.94 30.905,49.15 C30.905,51.31 29.655,53.11 27.325,53.11 C25.025,53.11 23.735,51.38 23.735,49.17 Z M24.765,49.17 C24.765,50.76 25.565,52.23 27.325,52.23 C29.045,52.23 29.875,50.79 29.875,49.16 C29.875,47.56 29.075,46.09 27.315,46.09 C25.595,46.09 24.765,47.53 24.765,49.17 Z M36.805,47.63 L36.805,53 L35.875,53 L35.865,52.21 L35.845,52.21 C35.495,52.74 34.885,53.11 34.105,53.11 C32.945,53.11 32.215,52.36 32.215,51.23 L32.215,47.63 L33.165,47.63 L33.165,51.04 C33.165,51.74 33.555,52.29 34.385,52.29 C35.285,52.29 35.855,51.67 35.855,50.83 L35.855,47.63 L36.805,47.63 Z M38.385,53 L38.385,47.63 L39.305,47.63 L39.325,48.44 L39.345,48.44 C39.705,47.77 40.205,47.52 40.725,47.52 C40.915,47.52 41.055,47.55 41.175,47.59 L41.175,48.52 C41.085,48.49 40.895,48.45 40.675,48.45 C39.785,48.45 39.335,49.08 39.335,49.74 L39.335,53 L38.385,53 Z M47.375,53.11 C46.605,53.11 46.015,52.8 45.605,52.22 L45.585,52.22 L45.585,54.83 L44.635,54.83 L44.635,47.63 L45.555,47.63 L45.575,48.48 L45.595,48.48 C46.005,47.87 46.665,47.52 47.415,47.52 C48.905,47.52 49.795,48.73 49.795,50.29 C49.795,51.83 48.875,53.11 47.375,53.11 Z M47.175,52.28 C48.265,52.28 48.835,51.38 48.835,50.31 C48.835,49.3 48.325,48.35 47.185,48.35 C46.115,48.35 45.555,49.27 45.555,50.34 C45.555,51.44 46.135,52.28 47.175,52.28 Z M51.665,49.9 L54.645,49.9 C54.585,49.02 54.145,48.32 53.195,48.32 C52.255,48.32 51.755,49 51.665,49.9 Z M54.725,51.65 L55.385,52.24 C54.905,52.8 54.215,53.11 53.355,53.11 C51.665,53.11 50.705,52 50.705,50.31 C50.705,48.69 51.665,47.52 53.215,47.52 C54.755,47.52 55.585,48.67 55.585,50.14 C55.585,50.3 55.575,50.55 55.555,50.69 L51.675,50.69 C51.775,51.71 52.365,52.3 53.365,52.3 C53.955,52.3 54.405,52.08 54.725,51.65 Z M59.065,53.11 C57.385,53.11 56.425,51.87 56.425,50.32 C56.425,48.76 57.385,47.52 59.065,47.52 C60.755,47.52 61.695,48.78 61.695,50.32 C61.695,51.85 60.755,53.11 59.065,53.11 Z M59.055,48.33 C57.945,48.33 57.385,49.25 57.385,50.32 C57.385,51.38 57.945,52.3 59.055,52.3 C60.165,52.3 60.735,51.38 60.735,50.32 C60.735,49.25 60.165,48.33 59.055,48.33 Z M65.665,53.11 C64.895,53.11 64.305,52.8 63.895,52.22 L63.875,52.22 L63.875,54.83 L62.925,54.83 L62.925,47.63 L63.845,47.63 L63.865,48.48 L63.885,48.48 C64.295,47.87 64.955,47.52 65.705,47.52 C67.195,47.52 68.085,48.73 68.085,50.29 C68.085,51.83 67.165,53.11 65.665,53.11 Z M65.465,52.28 C66.555,52.28 67.125,51.38 67.125,50.31 C67.125,49.3 66.615,48.35 65.475,48.35 C64.405,48.35 63.845,49.27 63.845,50.34 C63.845,51.44 64.425,52.28 65.465,52.28 Z M70.295,53 L69.345,53 L69.345,45.32 L70.295,45.32 L70.295,53 Z M72.485,49.9 L75.465,49.9 C75.405,49.02 74.965,48.32 74.015,48.32 C73.075,48.32 72.575,49 72.485,49.9 Z M75.545,51.65 L76.205,52.24 C75.725,52.8 75.035,53.11 74.175,53.11 C72.485,53.11 71.525,52 71.525,50.31 C71.525,48.69 72.485,47.52 74.035,47.52 C75.575,47.52 76.405,48.67 76.405,50.14 C76.405,50.3 76.395,50.55 76.375,50.69 L72.495,50.69 C72.595,51.71 73.185,52.3 74.185,52.3 C74.775,52.3 75.225,52.08 75.545,51.65 Z" id="Our-people" fill="#777777"></path>
                    </g>
                    <g id="Page-Copy-4" transform="translate(360.000000, 120.000000)">
                        <path d="M0,20 L100,20 L100,75 C100,77.7614237 97.7614237,80 95,80 L5,80 C2.23857625,80 3.38176876e-16,77.7614237 0,75 L0,20 Z" id="Rectangle" fill="#EEEEEE"></path>
                        <path d="M5,0 L95,0 C97.7614237,-5.07265313e-16 100,2.23857625 100,5 L100,20 L0,20 L0,5 C-3.38176876e-16,2.23857625 2.23857625,5.07265313e-16 5,0 Z" id="Rectangle" fill="#777777"></path>
                        <path d="M12.16,11.48 L12.16,12.32 L10.82,12.32 L10.82,14 L9.84,14 L9.84,12.32 L6.14,12.32 L6.14,11.59 L9.58,6.66 L10.82,6.66 L10.82,11.48 L12.16,11.48 Z M7.21,11.48 L9.84,11.48 L9.84,7.75 L9.82,7.75 L7.21,11.48 Z M13.17,14 L13.17,12.9 L14.27,12.9 L14.27,14 L13.17,14 Z M18.3,14.11 C16.14,14.11 15.65,12.28 15.65,10.34 C15.65,8.41 16.13,6.55 18.3,6.55 C20.46,6.55 20.95,8.38 20.95,10.32 C20.95,12.25 20.47,14.11 18.3,14.11 Z M18.3,13.26 C19.81,13.26 19.96,11.76 19.96,10.33 C19.96,8.9 19.81,7.4 18.3,7.4 C16.79,7.4 16.64,8.9 16.64,10.33 C16.64,11.76 16.79,13.26 18.3,13.26 Z" id="4.0" fill="#FFFFFF"></path>
                        <path d="M20.79,53 L19.78,53 L19.78,46.2 L17.12,46.2 L17.12,45.32 L23.45,45.32 L23.45,46.2 L20.79,46.2 L20.79,53 Z M24.39,53 L24.39,45.32 L25.34,45.32 L25.34,48.4 L25.36,48.4 C25.72,47.85 26.32,47.52 27.09,47.52 C28.25,47.52 28.98,48.27 28.98,49.4 L28.98,53 L28.03,53 L28.03,49.59 C28.03,48.89 27.62,48.34 26.81,48.34 C25.91,48.34 25.34,48.96 25.34,49.8 L25.34,53 L24.39,53 Z M31.15,49.9 L34.13,49.9 C34.07,49.02 33.63,48.32 32.68,48.32 C31.74,48.32 31.24,49 31.15,49.9 Z M34.21,51.65 L34.87,52.24 C34.39,52.8 33.7,53.11 32.84,53.11 C31.15,53.11 30.19,52 30.19,50.31 C30.19,48.69 31.15,47.52 32.7,47.52 C34.24,47.52 35.07,48.67 35.07,50.14 C35.07,50.3 35.06,50.55 35.04,50.69 L31.16,50.69 C31.26,51.71 31.85,52.3 32.85,52.3 C33.44,52.3 33.89,52.08 34.21,51.65 Z M39.16,53 L39.16,48.42 L38.09,48.42 L38.09,47.63 L39.16,47.63 L39.16,46.68 C39.16,45.74 39.7,45.21 40.69,45.21 C40.92,45.21 41.12,45.24 41.29,45.29 L41.29,46.07 C41.2,46.05 41.04,46.03 40.89,46.03 C40.32,46.03 40.11,46.28 40.11,46.8 L40.11,47.63 L43.2,47.63 L43.2,53 L42.25,53 L42.25,48.42 L40.11,48.42 L40.11,53 L39.16,53 Z M42.21,46.35 L42.21,45.32 L43.24,45.32 L43.24,46.35 L42.21,46.35 Z M44.78,53 L44.78,47.63 L45.7,47.63 L45.72,48.42 L45.74,48.42 C46.08,47.88 46.68,47.52 47.48,47.52 C48.64,47.52 49.37,48.27 49.37,49.4 L49.37,53 L48.42,53 L48.42,49.59 C48.42,48.89 48.01,48.34 47.2,48.34 C46.3,48.34 45.73,48.96 45.73,49.8 L45.73,53 L44.78,53 Z M54.95,53 L54.02,53 L54,52.22 L53.98,52.22 C53.68,52.75 53.13,53.11 52.36,53.11 C51.31,53.11 50.63,52.44 50.63,51.49 C50.63,50.79 50.99,50.32 51.67,50.1 C52.26,49.91 53.13,49.87 54.01,49.84 L54.01,49.36 C54.01,48.81 53.63,48.32 52.82,48.32 C52.14,48.32 51.75,48.64 51.58,49.13 L50.79,48.75 C51.1,47.94 51.87,47.52 52.85,47.52 C54.13,47.52 54.95,48.19 54.95,49.36 L54.95,53 Z M52.58,52.31 C53.45,52.31 54.01,51.65 54.01,50.88 L54.01,50.57 C53.65,50.58 53.09,50.62 52.64,50.68 C52.03,50.76 51.58,50.93 51.58,51.48 C51.58,51.98 51.96,52.31 52.58,52.31 Z M56.51,53 L56.51,47.63 L57.43,47.63 L57.45,48.42 L57.47,48.42 C57.81,47.88 58.41,47.52 59.21,47.52 C60.37,47.52 61.1,48.27 61.1,49.4 L61.1,53 L60.15,53 L60.15,49.59 C60.15,48.89 59.74,48.34 58.93,48.34 C58.03,48.34 57.46,48.96 57.46,49.8 L57.46,53 L56.51,53 Z M64.93,53.11 C63.28,53.11 62.32,51.92 62.32,50.34 C62.32,48.75 63.27,47.52 64.92,47.52 C65.94,47.52 66.66,48.01 67.07,48.78 L66.28,49.23 C66.01,48.71 65.58,48.33 64.9,48.33 C63.85,48.33 63.28,49.21 63.28,50.32 C63.28,51.4 63.83,52.3 64.96,52.3 C65.67,52.3 66.1,51.94 66.36,51.43 L67.11,51.86 C66.73,52.61 65.97,53.11 64.93,53.11 Z M67.99,46.35 L67.99,45.32 L69.02,45.32 L69.02,46.35 L67.99,46.35 Z M68.98,53 L68.03,53 L68.03,47.63 L68.98,47.63 L68.98,53 Z M74.58,53 L73.65,53 L73.63,52.22 L73.61,52.22 C73.31,52.75 72.76,53.11 71.99,53.11 C70.94,53.11 70.26,52.44 70.26,51.49 C70.26,50.79 70.62,50.32 71.3,50.1 C71.89,49.91 72.76,49.87 73.64,49.84 L73.64,49.36 C73.64,48.81 73.26,48.32 72.45,48.32 C71.77,48.32 71.38,48.64 71.21,49.13 L70.42,48.75 C70.73,47.94 71.5,47.52 72.48,47.52 C73.76,47.52 74.58,48.19 74.58,49.36 L74.58,53 Z M72.21,52.31 C73.08,52.31 73.64,51.65 73.64,50.88 L73.64,50.57 C73.28,50.58 72.72,50.62 72.27,50.68 C71.66,50.76 71.21,50.93 71.21,51.48 C71.21,51.98 71.59,52.31 72.21,52.31 Z M77.09,53 L76.14,53 L76.14,45.32 L77.09,45.32 L77.09,53 Z M80.42,53.11 C79.47,53.11 78.73,52.83 78.17,52.3 L78.75,51.65 C79.22,52.1 79.81,52.31 80.45,52.31 C81.3,52.31 81.71,52 81.71,51.54 C81.71,51.03 81.17,50.91 80.27,50.72 C79.26,50.5 78.36,50.19 78.36,49.15 C78.36,48.23 79.08,47.52 80.48,47.52 C81.34,47.52 82.01,47.78 82.57,48.29 L82,48.94 C81.54,48.52 81.03,48.32 80.45,48.32 C79.7,48.32 79.32,48.64 79.32,49.05 C79.32,49.55 79.8,49.66 80.73,49.86 C81.72,50.08 82.67,50.36 82.67,51.43 C82.67,52.41 81.89,53.11 80.42,53.11 Z" id="The-financials" fill="#777777"></path>
                    </g>
                    <g id="Page-Copy-5" transform="translate(480.000000, 120.000000)">
                        <path d="M0,20 L100,20 L100,75 C100,77.7614237 97.7614237,80 95,80 L5,80 C2.23857625,80 3.38176876e-16,77.7614237 0,75 L0,20 Z" id="Rectangle" fill="#EEEEEE"></path>
                        <path d="M5,0 L95,0 C97.7614237,-5.07265313e-16 100,2.23857625 100,5 L100,20 L0,20 L0,5 C-3.38176876e-16,2.23857625 2.23857625,5.07265313e-16 5,0 Z" id="Rectangle" fill="#777777"></path>
                        <path d="M8.18,7.53 L8.02,9.6 C8.3,9.48 8.64,9.4 9.09,9.4 C10.58,9.4 11.65,10.31 11.65,11.74 C11.65,13.14 10.61,14.11 8.95,14.11 C7.85,14.11 7.04,13.68 6.59,13.1 L7.29,12.47 C7.68,12.98 8.21,13.26 8.97,13.26 C10.03,13.26 10.66,12.68 10.66,11.76 C10.66,10.86 10,10.24 8.91,10.24 C8.4,10.24 8.04,10.38 7.73,10.56 L6.98,10.56 L7.29,6.66 L11.23,6.66 L11.23,7.53 L8.18,7.53 Z M13.17,14 L13.17,12.9 L14.27,12.9 L14.27,14 L13.17,14 Z M18.3,14.11 C16.14,14.11 15.65,12.28 15.65,10.34 C15.65,8.41 16.13,6.55 18.3,6.55 C20.46,6.55 20.95,8.38 20.95,10.32 C20.95,12.25 20.47,14.11 18.3,14.11 Z M18.3,13.26 C19.81,13.26 19.96,11.76 19.96,10.33 C19.96,8.9 19.81,7.4 18.3,7.4 C16.79,7.4 16.64,8.9 16.64,10.33 C16.64,11.76 16.79,13.26 18.3,13.26 Z" id="5.0" fill="#FFFFFF"></path>
                        <path d="M24.08,45.32 L25.21,45.32 L22.35,49.97 L22.35,53 L21.34,53 L21.34,49.99 L18.48,45.32 L19.65,45.32 L21.84,49.01 L21.86,49.01 L24.08,45.32 Z M28.31,53.11 C26.63,53.11 25.67,51.87 25.67,50.32 C25.67,48.76 26.63,47.52 28.31,47.52 C30,47.52 30.94,48.78 30.94,50.32 C30.94,51.85 30,53.11 28.31,53.11 Z M28.3,48.33 C27.19,48.33 26.63,49.25 26.63,50.32 C26.63,51.38 27.19,52.3 28.3,52.3 C29.41,52.3 29.98,51.38 29.98,50.32 C29.98,49.25 29.41,48.33 28.3,48.33 Z M36.74,47.63 L36.74,53 L35.81,53 L35.8,52.21 L35.78,52.21 C35.43,52.74 34.82,53.11 34.04,53.11 C32.88,53.11 32.15,52.36 32.15,51.23 L32.15,47.63 L33.1,47.63 L33.1,51.04 C33.1,51.74 33.49,52.29 34.32,52.29 C35.22,52.29 35.79,51.67 35.79,50.83 L35.79,47.63 L36.74,47.63 Z M38.32,53 L38.32,47.63 L39.24,47.63 L39.26,48.44 L39.28,48.44 C39.64,47.77 40.14,47.52 40.66,47.52 C40.85,47.52 40.99,47.55 41.11,47.59 L41.11,48.52 C41.02,48.49 40.83,48.45 40.61,48.45 C39.72,48.45 39.27,49.08 39.27,49.74 L39.27,53 L38.32,53 Z M46.32,53.11 C45.37,53.11 44.63,52.83 44.07,52.3 L44.65,51.65 C45.12,52.1 45.71,52.31 46.35,52.31 C47.2,52.31 47.61,52 47.61,51.54 C47.61,51.03 47.07,50.91 46.17,50.72 C45.16,50.5 44.26,50.19 44.26,49.15 C44.26,48.23 44.98,47.52 46.38,47.52 C47.24,47.52 47.91,47.78 48.47,48.29 L47.9,48.94 C47.44,48.52 46.93,48.32 46.35,48.32 C45.6,48.32 45.22,48.64 45.22,49.05 C45.22,49.55 45.7,49.66 46.63,49.86 C47.62,50.08 48.57,50.36 48.57,51.43 C48.57,52.41 47.79,53.11 46.32,53.11 Z M54.29,47.63 L54.29,53 L53.36,53 L53.35,52.21 L53.33,52.21 C52.98,52.74 52.37,53.11 51.59,53.11 C50.43,53.11 49.7,52.36 49.7,51.23 L49.7,47.63 L50.65,47.63 L50.65,51.04 C50.65,51.74 51.04,52.29 51.87,52.29 C52.77,52.29 53.34,51.67 53.34,50.83 L53.34,47.63 L54.29,47.63 Z M58.61,53.11 C57.84,53.11 57.25,52.8 56.84,52.22 L56.82,52.22 L56.82,54.83 L55.87,54.83 L55.87,47.63 L56.79,47.63 L56.81,48.48 L56.83,48.48 C57.24,47.87 57.9,47.52 58.65,47.52 C60.14,47.52 61.03,48.73 61.03,50.29 C61.03,51.83 60.11,53.11 58.61,53.11 Z M58.41,52.28 C59.5,52.28 60.07,51.38 60.07,50.31 C60.07,49.3 59.56,48.35 58.42,48.35 C57.35,48.35 56.79,49.27 56.79,50.34 C56.79,51.44 57.37,52.28 58.41,52.28 Z M65.03,53.11 C64.26,53.11 63.67,52.8 63.26,52.22 L63.24,52.22 L63.24,54.83 L62.29,54.83 L62.29,47.63 L63.21,47.63 L63.23,48.48 L63.25,48.48 C63.66,47.87 64.32,47.52 65.07,47.52 C66.56,47.52 67.45,48.73 67.45,50.29 C67.45,51.83 66.53,53.11 65.03,53.11 Z M64.83,52.28 C65.92,52.28 66.49,51.38 66.49,50.31 C66.49,49.3 65.98,48.35 64.84,48.35 C63.77,48.35 63.21,49.27 63.21,50.34 C63.21,51.44 63.79,52.28 64.83,52.28 Z M71,53.11 C69.32,53.11 68.36,51.87 68.36,50.32 C68.36,48.76 69.32,47.52 71,47.52 C72.69,47.52 73.63,48.78 73.63,50.32 C73.63,51.85 72.69,53.11 71,53.11 Z M70.99,48.33 C69.88,48.33 69.32,49.25 69.32,50.32 C69.32,51.38 69.88,52.3 70.99,52.3 C72.1,52.3 72.67,51.38 72.67,50.32 C72.67,49.25 72.1,48.33 70.99,48.33 Z M74.86,53 L74.86,47.63 L75.78,47.63 L75.8,48.44 L75.82,48.44 C76.18,47.77 76.68,47.52 77.2,47.52 C77.39,47.52 77.53,47.55 77.65,47.59 L77.65,48.52 C77.56,48.49 77.37,48.45 77.15,48.45 C76.26,48.45 75.81,49.08 75.81,49.74 L75.81,53 L74.86,53 Z M77.97,48.42 L77.97,47.63 L79.04,47.63 L79.04,45.93 L79.99,45.93 L79.99,47.63 L81.28,47.63 L81.28,48.42 L79.99,48.42 L79.99,51.36 C79.99,52 80.16,52.29 80.86,52.29 C81.04,52.29 81.17,52.27 81.28,52.25 L81.28,53.02 C81.07,53.07 80.83,53.11 80.53,53.11 C79.51,53.11 79.04,52.55 79.04,51.6 L79.04,48.42 L77.97,48.42 Z" id="Your-support" fill="#777777"></path>
                    </g>
                    <g id="Page-Copy-6" transform="translate(600.000000, 120.000000)">
                        <path d="M0,20 L100,20 L100,75 C100,77.7614237 97.7614237,80 95,80 L5,80 C2.23857625,80 3.38176876e-16,77.7614237 0,75 L0,20 Z" id="Rectangle" fill="#EEEEEE"></path>
                        <path d="M5,0 L95,0 C97.7614237,-5.07265313e-16 100,2.23857625 100,5 L100,20 L0,20 L0,5 C-3.38176876e-16,2.23857625 2.23857625,5.07265313e-16 5,0 Z" id="Rectangle" fill="#777777"></path>
                        <path d="M11.48,6.92 L11.12,7.72 C10.75,7.5 10.3,7.4 9.85,7.4 C8.31,7.4 7.63,8.61 7.52,10.28 L7.54,10.28 C7.98,9.69 8.76,9.4 9.53,9.4 C10.98,9.4 11.9,10.4 11.9,11.73 C11.9,13.13 10.89,14.11 9.29,14.11 C7.2,14.11 6.55,12.42 6.55,10.64 C6.55,8.61 7.4,6.55 9.87,6.55 C10.51,6.55 11.04,6.69 11.48,6.92 Z M9.34,13.27 C10.34,13.27 10.92,12.64 10.92,11.76 C10.92,10.91 10.38,10.23 9.32,10.23 C8.46,10.23 7.66,10.69 7.66,11.61 C7.66,12.3 8.11,13.27 9.34,13.27 Z M13.17,14 L13.17,12.9 L14.27,12.9 L14.27,14 L13.17,14 Z M18.3,14.11 C16.14,14.11 15.65,12.28 15.65,10.34 C15.65,8.41 16.13,6.55 18.3,6.55 C20.46,6.55 20.95,8.38 20.95,10.32 C20.95,12.25 20.47,14.11 18.3,14.11 Z M18.3,13.26 C19.81,13.26 19.96,11.76 19.96,10.33 C19.96,8.9 19.81,7.4 18.3,7.4 C16.79,7.4 16.64,8.9 16.64,10.33 C16.64,11.76 16.79,13.26 18.3,13.26 Z" id="6.0" fill="#FFFFFF"></path>
                        <path d="M16.495,45.32 L17.625,45.32 L14.765,49.97 L14.765,53 L13.755,53 L13.755,49.99 L10.895,45.32 L12.065,45.32 L14.255,49.01 L14.275,49.01 L16.495,45.32 Z M20.725,53.11 C19.045,53.11 18.085,51.87 18.085,50.32 C18.085,48.76 19.045,47.52 20.725,47.52 C22.415,47.52 23.355,48.78 23.355,50.32 C23.355,51.85 22.415,53.11 20.725,53.11 Z M20.715,48.33 C19.605,48.33 19.045,49.25 19.045,50.32 C19.045,51.38 19.605,52.3 20.715,52.3 C21.825,52.3 22.395,51.38 22.395,50.32 C22.395,49.25 21.825,48.33 20.715,48.33 Z M29.155,47.63 L29.155,53 L28.225,53 L28.215,52.21 L28.195,52.21 C27.845,52.74 27.235,53.11 26.455,53.11 C25.295,53.11 24.565,52.36 24.565,51.23 L24.565,47.63 L25.515,47.63 L25.515,51.04 C25.515,51.74 25.905,52.29 26.735,52.29 C27.635,52.29 28.205,51.67 28.205,50.83 L28.205,47.63 L29.155,47.63 Z M30.735,53 L30.735,47.63 L31.655,47.63 L31.675,48.44 L31.695,48.44 C32.055,47.77 32.555,47.52 33.075,47.52 C33.265,47.52 33.405,47.55 33.525,47.59 L33.525,48.52 C33.435,48.49 33.245,48.45 33.025,48.45 C32.135,48.45 31.685,49.08 31.685,49.74 L31.685,53 L30.735,53 Z M41.005,53 L40.075,53 L40.055,52.22 L40.035,52.22 C39.735,52.75 39.185,53.11 38.415,53.11 C37.365,53.11 36.685,52.44 36.685,51.49 C36.685,50.79 37.045,50.32 37.725,50.1 C38.315,49.91 39.185,49.87 40.065,49.84 L40.065,49.36 C40.065,48.81 39.685,48.32 38.875,48.32 C38.195,48.32 37.805,48.64 37.635,49.13 L36.845,48.75 C37.155,47.94 37.925,47.52 38.905,47.52 C40.185,47.52 41.005,48.19 41.005,49.36 L41.005,53 Z M38.635,52.31 C39.505,52.31 40.065,51.65 40.065,50.88 L40.065,50.57 C39.705,50.58 39.145,50.62 38.695,50.68 C38.085,50.76 37.635,50.93 37.635,51.48 C37.635,51.98 38.015,52.31 38.635,52.31 Z M45.305,53.11 C44.535,53.11 43.945,52.8 43.535,52.22 L43.515,52.22 L43.515,54.83 L42.565,54.83 L42.565,47.63 L43.485,47.63 L43.505,48.48 L43.525,48.48 C43.935,47.87 44.595,47.52 45.345,47.52 C46.835,47.52 47.725,48.73 47.725,50.29 C47.725,51.83 46.805,53.11 45.305,53.11 Z M45.105,52.28 C46.195,52.28 46.765,51.38 46.765,50.31 C46.765,49.3 46.255,48.35 45.115,48.35 C44.045,48.35 43.485,49.27 43.485,50.34 C43.485,51.44 44.065,52.28 45.105,52.28 Z M51.725,53.11 C50.955,53.11 50.365,52.8 49.955,52.22 L49.935,52.22 L49.935,54.83 L48.985,54.83 L48.985,47.63 L49.905,47.63 L49.925,48.48 L49.945,48.48 C50.355,47.87 51.015,47.52 51.765,47.52 C53.255,47.52 54.145,48.73 54.145,50.29 C54.145,51.83 53.225,53.11 51.725,53.11 Z M51.525,52.28 C52.615,52.28 53.185,51.38 53.185,50.31 C53.185,49.3 52.675,48.35 51.535,48.35 C50.465,48.35 49.905,49.27 49.905,50.34 C49.905,51.44 50.485,52.28 51.525,52.28 Z M56.355,53 L55.405,53 L55.405,45.32 L56.355,45.32 L56.355,53 Z M57.895,46.35 L57.895,45.32 L58.925,45.32 L58.925,46.35 L57.895,46.35 Z M58.885,53 L57.935,53 L57.935,47.63 L58.885,47.63 L58.885,53 Z M62.735,53.11 C61.085,53.11 60.125,51.92 60.125,50.34 C60.125,48.75 61.075,47.52 62.725,47.52 C63.745,47.52 64.465,48.01 64.875,48.78 L64.085,49.23 C63.815,48.71 63.385,48.33 62.705,48.33 C61.655,48.33 61.085,49.21 61.085,50.32 C61.085,51.4 61.635,52.3 62.765,52.3 C63.475,52.3 63.905,51.94 64.165,51.43 L64.915,51.86 C64.535,52.61 63.775,53.11 62.735,53.11 Z M69.855,53 L68.925,53 L68.905,52.22 L68.885,52.22 C68.585,52.75 68.035,53.11 67.265,53.11 C66.215,53.11 65.535,52.44 65.535,51.49 C65.535,50.79 65.895,50.32 66.575,50.1 C67.165,49.91 68.035,49.87 68.915,49.84 L68.915,49.36 C68.915,48.81 68.535,48.32 67.725,48.32 C67.045,48.32 66.655,48.64 66.485,49.13 L65.695,48.75 C66.005,47.94 66.775,47.52 67.755,47.52 C69.035,47.52 69.855,48.19 69.855,49.36 L69.855,53 Z M67.485,52.31 C68.355,52.31 68.915,51.65 68.915,50.88 L68.915,50.57 C68.555,50.58 67.995,50.62 67.545,50.68 C66.935,50.76 66.485,50.93 66.485,51.48 C66.485,51.98 66.865,52.31 67.485,52.31 Z M70.725,48.42 L70.725,47.63 L71.795,47.63 L71.795,45.93 L72.745,45.93 L72.745,47.63 L74.035,47.63 L74.035,48.42 L72.745,48.42 L72.745,51.36 C72.745,52 72.915,52.29 73.615,52.29 C73.795,52.29 73.925,52.27 74.035,52.25 L74.035,53.02 C73.825,53.07 73.585,53.11 73.285,53.11 C72.265,53.11 71.795,52.55 71.795,51.6 L71.795,48.42 L70.725,48.42 Z M75.045,46.35 L75.045,45.32 L76.075,45.32 L76.075,46.35 L75.045,46.35 Z M76.035,53 L75.085,53 L75.085,47.63 L76.035,47.63 L76.035,53 Z M79.905,53.11 C78.225,53.11 77.265,51.87 77.265,50.32 C77.265,48.76 78.225,47.52 79.905,47.52 C81.595,47.52 82.535,48.78 82.535,50.32 C82.535,51.85 81.595,53.11 79.905,53.11 Z M79.895,48.33 C78.785,48.33 78.225,49.25 78.225,50.32 C78.225,51.38 78.785,52.3 79.895,52.3 C81.005,52.3 81.575,51.38 81.575,50.32 C81.575,49.25 81.005,48.33 79.895,48.33 Z M83.765,53 L83.765,47.63 L84.685,47.63 L84.705,48.42 L84.725,48.42 C85.065,47.88 85.665,47.52 86.465,47.52 C87.625,47.52 88.355,48.27 88.355,49.4 L88.355,53 L87.405,53 L87.405,49.59 C87.405,48.89 86.995,48.34 86.185,48.34 C85.285,48.34 84.715,48.96 84.715,49.8 L84.715,53 L83.765,53 Z" id="Your-application" fill="#777777"></path>
                    </g>
                    <g id="Page-Copy-7" transform="translate(720.000000, 120.000000)">
                        <path d="M0,20 L100,20 L100,75 C100,77.7614237 97.7614237,80 95,80 L5,80 C2.23857625,80 3.38176876e-16,77.7614237 0,75 L0,20 Z" id="Rectangle" fill="#EEEEEE"></path>
                        <path d="M5,0 L95,0 C97.7614237,-5.07265313e-16 100,2.23857625 100,5 L100,20 L0,20 L0,5 C-3.38176876e-16,2.23857625 2.23857625,5.07265313e-16 5,0 Z" id="Rectangle" fill="#777777"></path>
                        <path d="M7.76,14 L10.55,7.53 L6.62,7.53 L6.62,6.66 L11.6,6.66 L11.6,7.39 L8.8,14 L7.76,14 Z M13.17,14 L13.17,12.9 L14.27,12.9 L14.27,14 L13.17,14 Z M18.3,14.11 C16.14,14.11 15.65,12.28 15.65,10.34 C15.65,8.41 16.13,6.55 18.3,6.55 C20.46,6.55 20.95,8.38 20.95,10.32 C20.95,12.25 20.47,14.11 18.3,14.11 Z M18.3,13.26 C19.81,13.26 19.96,11.76 19.96,10.33 C19.96,8.9 19.81,7.4 18.3,7.4 C16.79,7.4 16.64,8.9 16.64,10.33 C16.64,11.76 16.79,13.26 18.3,13.26 Z" id="7.0" fill="#FFFFFF"></path>
                        <path d="M38.48,53 L37.47,53 L37.47,45.32 L42.39,45.32 L42.39,46.2 L38.48,46.2 L38.48,48.8 L41.9,48.8 L41.9,49.67 L38.48,49.67 L38.48,53 Z M48.85,53 L48.02,50.85 L44.6,50.85 L43.78,53 L42.72,53 L45.74,45.32 L46.93,45.32 L49.95,53 L48.85,53 Z M44.93,49.98 L47.68,49.98 L46.31,46.41 L46.29,46.41 L44.93,49.98 Z M55.77,54.48 L54.93,53.03 C54.69,53.08 54.41,53.11 54.13,53.11 C51.83,53.11 50.54,51.38 50.54,49.16 C50.54,47 51.79,45.21 54.13,45.21 C56.43,45.21 57.72,46.94 57.72,49.15 C57.72,50.69 57.09,52.03 55.9,52.69 L56.98,54.48 L55.77,54.48 Z M51.57,49.16 C51.57,50.76 52.38,52.24 54.14,52.24 C55.87,52.24 56.69,50.8 56.69,49.16 C56.69,47.56 55.89,46.08 54.12,46.08 C52.4,46.08 51.57,47.52 51.57,49.16 Z M60.79,53.11 C59.84,53.11 59.1,52.83 58.54,52.3 L59.12,51.65 C59.59,52.1 60.18,52.31 60.82,52.31 C61.67,52.31 62.08,52 62.08,51.54 C62.08,51.03 61.54,50.91 60.64,50.72 C59.63,50.5 58.73,50.19 58.73,49.15 C58.73,48.23 59.45,47.52 60.85,47.52 C61.71,47.52 62.38,47.78 62.94,48.29 L62.37,48.94 C61.91,48.52 61.4,48.32 60.82,48.32 C60.07,48.32 59.69,48.64 59.69,49.05 C59.69,49.55 60.17,49.66 61.1,49.86 C62.09,50.08 63.04,50.36 63.04,51.43 C63.04,52.41 62.26,53.11 60.79,53.11 Z" id="FAQs" fill="#777777"></path>
                    </g>
                    <g id="Page-Copy-8" transform="translate(840.000000, 120.000000)">
                        <path d="M0,20 L100,20 L100,75 C100,77.7614237 97.7614237,80 95,80 L5,80 C2.23857625,80 3.38176876e-16,77.7614237 0,75 L0,20 Z" id="Rectangle" fill="#EEEEEE"></path>
                        <path d="M5,0 L95,0 C97.7614237,-5.07265313e-16 100,2.23857625 100,5 L100,20 L0,20 L0,5 C-3.38176876e-16,2.23857625 2.23857625,5.07265313e-16 5,0 Z" id="Rectangle" fill="#777777"></path>
                        <path d="M9.13,14.11 C7.51,14.11 6.48,13.26 6.48,12.03 C6.48,11.18 6.96,10.58 7.84,10.24 L7.84,10.22 C7.09,9.91 6.64,9.31 6.64,8.53 C6.64,7.37 7.63,6.55 9.13,6.55 C10.65,6.55 11.63,7.37 11.63,8.53 C11.63,9.31 11.17,9.89 10.43,10.18 L10.43,10.2 C11.3,10.55 11.79,11.18 11.79,12.03 C11.79,13.26 10.75,14.11 9.13,14.11 Z M9.13,9.83 C10.01,9.83 10.64,9.3 10.64,8.59 C10.64,7.9 10.09,7.39 9.13,7.39 C8.17,7.39 7.63,7.9 7.63,8.59 C7.63,9.3 8.26,9.83 9.13,9.83 Z M9.13,10.64 C8.15,10.64 7.47,11.2 7.47,11.99 C7.47,12.73 8.07,13.27 9.13,13.27 C10.2,13.27 10.8,12.73 10.8,11.99 C10.8,11.2 10.11,10.64 9.13,10.64 Z M13.17,14 L13.17,12.9 L14.27,12.9 L14.27,14 L13.17,14 Z M18.3,14.11 C16.14,14.11 15.65,12.28 15.65,10.34 C15.65,8.41 16.13,6.55 18.3,6.55 C20.46,6.55 20.95,8.38 20.95,10.32 C20.95,12.25 20.47,14.11 18.3,14.11 Z M18.3,13.26 C19.81,13.26 19.96,11.76 19.96,10.33 C19.96,8.9 19.81,7.4 18.3,7.4 C16.79,7.4 16.64,8.9 16.64,10.33 C16.64,11.76 16.79,13.26 18.3,13.26 Z" id="8.0" fill="#FFFFFF"></path>
                        <path d="M16.125,53 L14.565,49.77 L12.525,49.77 L12.525,53 L11.515,53 L11.515,45.32 L14.645,45.32 C16.065,45.32 17.115,46.13 17.115,47.52 C17.115,48.55 16.495,49.24 15.575,49.54 L17.265,53 L16.125,53 Z M12.525,46.2 L12.525,48.89 L14.625,48.89 C15.445,48.89 16.095,48.45 16.095,47.55 C16.095,46.64 15.465,46.2 14.635,46.2 L12.525,46.2 Z M19.025,49.9 L22.005,49.9 C21.945,49.02 21.505,48.32 20.555,48.32 C19.615,48.32 19.115,49 19.025,49.9 Z M22.085,51.65 L22.745,52.24 C22.265,52.8 21.575,53.11 20.715,53.11 C19.025,53.11 18.065,52 18.065,50.31 C18.065,48.69 19.025,47.52 20.575,47.52 C22.115,47.52 22.945,48.67 22.945,50.14 C22.945,50.3 22.935,50.55 22.915,50.69 L19.035,50.69 C19.135,51.71 19.725,52.3 20.725,52.3 C21.315,52.3 21.765,52.08 22.085,51.65 Z M28.835,47.63 L28.835,52.41 C28.835,54.12 27.735,54.94 26.115,54.94 C25.265,54.94 24.585,54.7 24.105,54.38 L24.535,53.63 C24.925,53.89 25.395,54.13 26.105,54.13 C27.105,54.13 27.895,53.68 27.895,52.41 L27.895,51.95 L27.875,51.95 C27.465,52.59 26.815,52.91 26.085,52.91 C24.665,52.91 23.795,51.71 23.795,50.25 C23.795,48.78 24.675,47.52 26.155,47.52 C26.935,47.52 27.515,47.87 27.895,48.4 L27.915,48.4 L27.945,47.63 L28.835,47.63 Z M26.325,52.08 C27.355,52.08 27.915,51.24 27.915,50.2 C27.915,49.17 27.345,48.35 26.335,48.35 C25.285,48.35 24.755,49.21 24.755,50.22 C24.755,51.19 25.245,52.08 26.325,52.08 Z M30.375,46.35 L30.375,45.32 L31.405,45.32 L31.405,46.35 L30.375,46.35 Z M31.365,53 L30.415,53 L30.415,47.63 L31.365,47.63 L31.365,53 Z M34.695,53.11 C33.745,53.11 33.005,52.83 32.445,52.3 L33.025,51.65 C33.495,52.1 34.085,52.31 34.725,52.31 C35.575,52.31 35.985,52 35.985,51.54 C35.985,51.03 35.445,50.91 34.545,50.72 C33.535,50.5 32.635,50.19 32.635,49.15 C32.635,48.23 33.355,47.52 34.755,47.52 C35.615,47.52 36.285,47.78 36.845,48.29 L36.275,48.94 C35.815,48.52 35.305,48.32 34.725,48.32 C33.975,48.32 33.595,48.64 33.595,49.05 C33.595,49.55 34.075,49.66 35.005,49.86 C35.995,50.08 36.945,50.36 36.945,51.43 C36.945,52.41 36.165,53.11 34.695,53.11 Z M37.405,48.42 L37.405,47.63 L38.475,47.63 L38.475,45.93 L39.425,45.93 L39.425,47.63 L40.715,47.63 L40.715,48.42 L39.425,48.42 L39.425,51.36 C39.425,52 39.595,52.29 40.295,52.29 C40.475,52.29 40.605,52.27 40.715,52.25 L40.715,53.02 C40.505,53.07 40.265,53.11 39.965,53.11 C38.945,53.11 38.475,52.55 38.475,51.6 L38.475,48.42 L37.405,48.42 Z M42.375,49.9 L45.355,49.9 C45.295,49.02 44.855,48.32 43.905,48.32 C42.965,48.32 42.465,49 42.375,49.9 Z M45.435,51.65 L46.095,52.24 C45.615,52.8 44.925,53.11 44.065,53.11 C42.375,53.11 41.415,52 41.415,50.31 C41.415,48.69 42.375,47.52 43.925,47.52 C45.465,47.52 46.295,48.67 46.295,50.14 C46.295,50.3 46.285,50.55 46.265,50.69 L42.385,50.69 C42.485,51.71 43.075,52.3 44.075,52.3 C44.665,52.3 45.115,52.08 45.435,51.65 Z M47.485,53 L47.485,47.63 L48.405,47.63 L48.425,48.44 L48.445,48.44 C48.805,47.77 49.305,47.52 49.825,47.52 C50.015,47.52 50.155,47.55 50.275,47.59 L50.275,48.52 C50.185,48.49 49.995,48.45 49.775,48.45 C48.885,48.45 48.435,49.08 48.435,49.74 L48.435,53 L47.485,53 Z M53.695,46.35 L53.695,45.32 L54.725,45.32 L54.725,46.35 L53.695,46.35 Z M54.685,53 L53.735,53 L53.735,47.63 L54.685,47.63 L54.685,53 Z M56.265,53 L56.265,47.63 L57.185,47.63 L57.205,48.42 L57.225,48.42 C57.565,47.88 58.165,47.52 58.965,47.52 C60.125,47.52 60.855,48.27 60.855,49.4 L60.855,53 L59.905,53 L59.905,49.59 C59.905,48.89 59.495,48.34 58.685,48.34 C57.785,48.34 57.215,48.96 57.215,49.8 L57.215,53 L56.265,53 Z M61.725,48.42 L61.725,47.63 L62.795,47.63 L62.795,45.93 L63.745,45.93 L63.745,47.63 L65.035,47.63 L65.035,48.42 L63.745,48.42 L63.745,51.36 C63.745,52 63.915,52.29 64.615,52.29 C64.795,52.29 64.925,52.27 65.035,52.25 L65.035,53.02 C64.825,53.07 64.585,53.11 64.285,53.11 C63.265,53.11 62.795,52.55 62.795,51.6 L62.795,48.42 L61.725,48.42 Z M66.695,49.9 L69.675,49.9 C69.615,49.02 69.175,48.32 68.225,48.32 C67.285,48.32 66.785,49 66.695,49.9 Z M69.755,51.65 L70.415,52.24 C69.935,52.8 69.245,53.11 68.385,53.11 C66.695,53.11 65.735,52 65.735,50.31 C65.735,48.69 66.695,47.52 68.245,47.52 C69.785,47.52 70.615,48.67 70.615,50.14 C70.615,50.3 70.605,50.55 70.585,50.69 L66.705,50.69 C66.805,51.71 67.395,52.3 68.395,52.3 C68.985,52.3 69.435,52.08 69.755,51.65 Z M71.805,53 L71.805,47.63 L72.725,47.63 L72.745,48.44 L72.765,48.44 C73.125,47.77 73.625,47.52 74.145,47.52 C74.335,47.52 74.475,47.55 74.595,47.59 L74.595,48.52 C74.505,48.49 74.315,48.45 74.095,48.45 C73.205,48.45 72.755,49.08 72.755,49.74 L72.755,53 L71.805,53 Z M76.215,49.9 L79.195,49.9 C79.135,49.02 78.695,48.32 77.745,48.32 C76.805,48.32 76.305,49 76.215,49.9 Z M79.275,51.65 L79.935,52.24 C79.455,52.8 78.765,53.11 77.905,53.11 C76.215,53.11 75.255,52 75.255,50.31 C75.255,48.69 76.215,47.52 77.765,47.52 C79.305,47.52 80.135,48.67 80.135,50.14 C80.135,50.3 80.125,50.55 80.105,50.69 L76.225,50.69 C76.325,51.71 76.915,52.3 77.915,52.3 C78.505,52.3 78.955,52.08 79.275,51.65 Z M83.075,53.11 C82.125,53.11 81.385,52.83 80.825,52.3 L81.405,51.65 C81.875,52.1 82.465,52.31 83.105,52.31 C83.955,52.31 84.365,52 84.365,51.54 C84.365,51.03 83.825,50.91 82.925,50.72 C81.915,50.5 81.015,50.19 81.015,49.15 C81.015,48.23 81.735,47.52 83.135,47.52 C83.995,47.52 84.665,47.78 85.225,48.29 L84.655,48.94 C84.195,48.52 83.685,48.32 83.105,48.32 C82.355,48.32 81.975,48.64 81.975,49.05 C81.975,49.55 82.455,49.66 83.385,49.86 C84.375,50.08 85.325,50.36 85.325,51.43 C85.325,52.41 84.545,53.11 83.075,53.11 Z M85.785,48.42 L85.785,47.63 L86.855,47.63 L86.855,45.93 L87.805,45.93 L87.805,47.63 L89.095,47.63 L89.095,48.42 L87.805,48.42 L87.805,51.36 C87.805,52 87.975,52.29 88.675,52.29 C88.855,52.29 88.985,52.27 89.095,52.25 L89.095,53.02 C88.885,53.07 88.645,53.11 88.345,53.11 C87.325,53.11 86.855,52.55 86.855,51.6 L86.855,48.42 L85.785,48.42 Z" id="Register-interest" fill="#777777"></path>
                    </g>
                    <g id="Page-Copy-9" transform="translate(850.000000, 220.000000)">
                        <path d="M0,20 L90,20 L90,75 C90,77.7614237 87.7614237,80 85,80 L5,80 C2.23857625,80 3.38176876e-16,77.7614237 0,75 L0,20 Z" id="Rectangle" fill="#EEEEEE"></path>
                        <path d="M5,0 L85,0 C87.7614237,-5.07265313e-16 90,2.23857625 90,5 L90,20 L0,20 L0,5 C-3.38176876e-16,2.23857625 2.23857625,5.07265313e-16 5,0 Z" id="Rectangle" fill="#777777"></path>
                        <path d="M9.13,14.11 C7.51,14.11 6.48,13.26 6.48,12.03 C6.48,11.18 6.96,10.58 7.84,10.24 L7.84,10.22 C7.09,9.91 6.64,9.31 6.64,8.53 C6.64,7.37 7.63,6.55 9.13,6.55 C10.65,6.55 11.63,7.37 11.63,8.53 C11.63,9.31 11.17,9.89 10.43,10.18 L10.43,10.2 C11.3,10.55 11.79,11.18 11.79,12.03 C11.79,13.26 10.75,14.11 9.13,14.11 Z M9.13,9.83 C10.01,9.83 10.64,9.3 10.64,8.59 C10.64,7.9 10.09,7.39 9.13,7.39 C8.17,7.39 7.63,7.9 7.63,8.59 C7.63,9.3 8.26,9.83 9.13,9.83 Z M9.13,10.64 C8.15,10.64 7.47,11.2 7.47,11.99 C7.47,12.73 8.07,13.27 9.13,13.27 C10.2,13.27 10.8,12.73 10.8,11.99 C10.8,11.2 10.11,10.64 9.13,10.64 Z M13.17,14 L13.17,12.9 L14.27,12.9 L14.27,14 L13.17,14 Z M16.16,14 L16.16,13.13 L17.95,13.13 L17.95,7.88 C17.4,8.21 16.78,8.41 16.16,8.57 L16.16,7.7 C16.99,7.45 17.69,7.12 18.26,6.66 L18.94,6.66 L18.94,13.13 L20.72,13.13 L20.72,14 L16.16,14 Z" id="8.1" fill="#FFFFFF"></path>
                        <path d="M34.635,39.32 L36.065,39.32 L36.065,47 L35.065,47 L35.065,40.77 L35.045,40.77 L32.655,47 L31.725,47 L29.335,40.77 L29.315,40.77 L29.315,47 L28.335,47 L28.335,39.32 L29.785,39.32 L32.195,45.7 L32.215,45.7 L34.635,39.32 Z M41.745,47 L40.815,47 L40.795,46.22 L40.775,46.22 C40.475,46.75 39.925,47.11 39.155,47.11 C38.105,47.11 37.425,46.44 37.425,45.49 C37.425,44.79 37.785,44.32 38.465,44.1 C39.055,43.91 39.925,43.87 40.805,43.84 L40.805,43.36 C40.805,42.81 40.425,42.32 39.615,42.32 C38.935,42.32 38.545,42.64 38.375,43.13 L37.585,42.75 C37.895,41.94 38.665,41.52 39.645,41.52 C40.925,41.52 41.745,42.19 41.745,43.36 L41.745,47 Z M39.375,46.31 C40.245,46.31 40.805,45.65 40.805,44.88 L40.805,44.57 C40.445,44.58 39.885,44.62 39.435,44.68 C38.825,44.76 38.375,44.93 38.375,45.48 C38.375,45.98 38.755,46.31 39.375,46.31 Z M43.265,40.35 L43.265,39.32 L44.295,39.32 L44.295,40.35 L43.265,40.35 Z M44.255,47 L43.305,47 L43.305,41.63 L44.255,41.63 L44.255,47 Z M46.785,47 L45.835,47 L45.835,39.32 L46.785,39.32 L46.785,47 Z M48.325,40.35 L48.325,39.32 L49.355,39.32 L49.355,40.35 L48.325,40.35 Z M49.315,47 L48.365,47 L48.365,41.63 L49.315,41.63 L49.315,47 Z M50.895,47 L50.895,41.63 L51.815,41.63 L51.835,42.42 L51.855,42.42 C52.195,41.88 52.795,41.52 53.595,41.52 C54.755,41.52 55.485,42.27 55.485,43.4 L55.485,47 L54.535,47 L54.535,43.59 C54.535,42.89 54.125,42.34 53.315,42.34 C52.415,42.34 51.845,42.96 51.845,43.8 L51.845,47 L50.895,47 Z M61.745,41.63 L61.745,46.41 C61.745,48.12 60.645,48.94 59.025,48.94 C58.175,48.94 57.495,48.7 57.015,48.38 L57.445,47.63 C57.835,47.89 58.305,48.13 59.015,48.13 C60.015,48.13 60.805,47.68 60.805,46.41 L60.805,45.95 L60.785,45.95 C60.375,46.59 59.725,46.91 58.995,46.91 C57.575,46.91 56.705,45.71 56.705,44.25 C56.705,42.78 57.585,41.52 59.065,41.52 C59.845,41.52 60.425,41.87 60.805,42.4 L60.825,42.4 L60.855,41.63 L61.745,41.63 Z M59.235,46.08 C60.265,46.08 60.825,45.24 60.825,44.2 C60.825,43.17 60.255,42.35 59.245,42.35 C58.195,42.35 57.665,43.21 57.665,44.22 C57.665,45.19 58.155,46.08 59.235,46.08 Z M39.8,59 L38.85,59 L38.85,51.32 L39.8,51.32 L39.8,59 Z M41.34,52.35 L41.34,51.32 L42.37,51.32 L42.37,52.35 L41.34,52.35 Z M42.33,59 L41.38,59 L41.38,53.63 L42.33,53.63 L42.33,59 Z M45.66,59.11 C44.71,59.11 43.97,58.83 43.41,58.3 L43.99,57.65 C44.46,58.1 45.05,58.31 45.69,58.31 C46.54,58.31 46.95,58 46.95,57.54 C46.95,57.03 46.41,56.91 45.51,56.72 C44.5,56.5 43.6,56.19 43.6,55.15 C43.6,54.23 44.32,53.52 45.72,53.52 C46.58,53.52 47.25,53.78 47.81,54.29 L47.24,54.94 C46.78,54.52 46.27,54.32 45.69,54.32 C44.94,54.32 44.56,54.64 44.56,55.05 C44.56,55.55 45.04,55.66 45.97,55.86 C46.96,56.08 47.91,56.36 47.91,57.43 C47.91,58.41 47.13,59.11 45.66,59.11 Z M48.37,54.42 L48.37,53.63 L49.44,53.63 L49.44,51.93 L50.39,51.93 L50.39,53.63 L51.68,53.63 L51.68,54.42 L50.39,54.42 L50.39,57.36 C50.39,58 50.56,58.29 51.26,58.29 C51.44,58.29 51.57,58.27 51.68,58.25 L51.68,59.02 C51.47,59.07 51.23,59.11 50.93,59.11 C49.91,59.11 49.44,58.55 49.44,57.6 L49.44,54.42 L48.37,54.42 Z" id="Mailing-list" fill="#777777"></path>
                    </g>
                    <g id="Page-Copy-15" transform="translate(850.000000, 320.000000)">
                        <path d="M0,20 L90,20 L90,75 C90,77.7614237 87.7614237,80 85,80 L5,80 C2.23857625,80 3.38176876e-16,77.7614237 0,75 L0,20 Z" id="Rectangle" fill="#EEEEEE"></path>
                        <path d="M5,0 L85,0 C87.7614237,-5.07265313e-16 90,2.23857625 90,5 L90,20 L0,20 L0,5 C-3.38176876e-16,2.23857625 2.23857625,5.07265313e-16 5,0 Z" id="Rectangle" fill="#777777"></path>
                        <path d="M9.13,14.11 C7.51,14.11 6.48,13.26 6.48,12.03 C6.48,11.18 6.96,10.58 7.84,10.24 L7.84,10.22 C7.09,9.91 6.64,9.31 6.64,8.53 C6.64,7.37 7.63,6.55 9.13,6.55 C10.65,6.55 11.63,7.37 11.63,8.53 C11.63,9.31 11.17,9.89 10.43,10.18 L10.43,10.2 C11.3,10.55 11.79,11.18 11.79,12.03 C11.79,13.26 10.75,14.11 9.13,14.11 Z M9.13,9.83 C10.01,9.83 10.64,9.3 10.64,8.59 C10.64,7.9 10.09,7.39 9.13,7.39 C8.17,7.39 7.63,7.9 7.63,8.59 C7.63,9.3 8.26,9.83 9.13,9.83 Z M9.13,10.64 C8.15,10.64 7.47,11.2 7.47,11.99 C7.47,12.73 8.07,13.27 9.13,13.27 C10.2,13.27 10.8,12.73 10.8,11.99 C10.8,11.2 10.11,10.64 9.13,10.64 Z M13.17,14 L13.17,12.9 L14.27,12.9 L14.27,14 L13.17,14 Z M15.85,14 L15.85,13.29 L18.41,10.73 C19.13,10.02 19.59,9.38 19.59,8.67 C19.59,7.93 19.1,7.42 18.16,7.42 C17.41,7.42 16.95,7.74 16.54,8.31 L15.83,7.76 C16.37,7.01 17.13,6.55 18.23,6.55 C19.71,6.55 20.58,7.38 20.58,8.6 C20.58,9.39 20.21,10.17 19.41,10.97 L17.26,13.11 L17.26,13.13 L20.73,13.13 L20.73,14 L15.85,14 Z" id="8.2" fill="#FFFFFF"></path>
                        <path d="M30.555,47 L28.995,43.77 L26.955,43.77 L26.955,47 L25.945,47 L25.945,39.32 L29.075,39.32 C30.495,39.32 31.545,40.13 31.545,41.52 C31.545,42.55 30.925,43.24 30.005,43.54 L31.695,47 L30.555,47 Z M26.955,40.2 L26.955,42.89 L29.055,42.89 C29.875,42.89 30.525,42.45 30.525,41.55 C30.525,40.64 29.895,40.2 29.065,40.2 L26.955,40.2 Z M33.455,43.9 L36.435,43.9 C36.375,43.02 35.935,42.32 34.985,42.32 C34.045,42.32 33.545,43 33.455,43.9 Z M36.515,45.65 L37.175,46.24 C36.695,46.8 36.005,47.11 35.145,47.11 C33.455,47.11 32.495,46 32.495,44.31 C32.495,42.69 33.455,41.52 35.005,41.52 C36.545,41.52 37.375,42.67 37.375,44.14 C37.375,44.3 37.365,44.55 37.345,44.69 L33.465,44.69 C33.565,45.71 34.155,46.3 35.155,46.3 C35.745,46.3 36.195,46.08 36.515,45.65 Z M43.265,41.63 L43.265,46.41 C43.265,48.12 42.165,48.94 40.545,48.94 C39.695,48.94 39.015,48.7 38.535,48.38 L38.965,47.63 C39.355,47.89 39.825,48.13 40.535,48.13 C41.535,48.13 42.325,47.68 42.325,46.41 L42.325,45.95 L42.305,45.95 C41.895,46.59 41.245,46.91 40.515,46.91 C39.095,46.91 38.225,45.71 38.225,44.25 C38.225,42.78 39.105,41.52 40.585,41.52 C41.365,41.52 41.945,41.87 42.325,42.4 L42.345,42.4 L42.375,41.63 L43.265,41.63 Z M40.755,46.08 C41.785,46.08 42.345,45.24 42.345,44.2 C42.345,43.17 41.775,42.35 40.765,42.35 C39.715,42.35 39.185,43.21 39.185,44.22 C39.185,45.19 39.675,46.08 40.755,46.08 Z M44.805,40.35 L44.805,39.32 L45.835,39.32 L45.835,40.35 L44.805,40.35 Z M45.795,47 L44.845,47 L44.845,41.63 L45.795,41.63 L45.795,47 Z M49.125,47.11 C48.175,47.11 47.435,46.83 46.875,46.3 L47.455,45.65 C47.925,46.1 48.515,46.31 49.155,46.31 C50.005,46.31 50.415,46 50.415,45.54 C50.415,45.03 49.875,44.91 48.975,44.72 C47.965,44.5 47.065,44.19 47.065,43.15 C47.065,42.23 47.785,41.52 49.185,41.52 C50.045,41.52 50.715,41.78 51.275,42.29 L50.705,42.94 C50.245,42.52 49.735,42.32 49.155,42.32 C48.405,42.32 48.025,42.64 48.025,43.05 C48.025,43.55 48.505,43.66 49.435,43.86 C50.425,44.08 51.375,44.36 51.375,45.43 C51.375,46.41 50.595,47.11 49.125,47.11 Z M51.835,42.42 L51.835,41.63 L52.905,41.63 L52.905,39.93 L53.855,39.93 L53.855,41.63 L55.145,41.63 L55.145,42.42 L53.855,42.42 L53.855,45.36 C53.855,46 54.025,46.29 54.725,46.29 C54.905,46.29 55.035,46.27 55.145,46.25 L55.145,47.02 C54.935,47.07 54.695,47.11 54.395,47.11 C53.375,47.11 52.905,46.55 52.905,45.6 L52.905,42.42 L51.835,42.42 Z M56.805,43.9 L59.785,43.9 C59.725,43.02 59.285,42.32 58.335,42.32 C57.395,42.32 56.895,43 56.805,43.9 Z M59.865,45.65 L60.525,46.24 C60.045,46.8 59.355,47.11 58.495,47.11 C56.805,47.11 55.845,46 55.845,44.31 C55.845,42.69 56.805,41.52 58.355,41.52 C59.895,41.52 60.725,42.67 60.725,44.14 C60.725,44.3 60.715,44.55 60.695,44.69 L56.815,44.69 C56.915,45.71 57.505,46.3 58.505,46.3 C59.095,46.3 59.545,46.08 59.865,45.65 Z M61.915,47 L61.915,41.63 L62.835,41.63 L62.855,42.44 L62.875,42.44 C63.235,41.77 63.735,41.52 64.255,41.52 C64.445,41.52 64.585,41.55 64.705,41.59 L64.705,42.52 C64.615,42.49 64.425,42.45 64.205,42.45 C63.315,42.45 62.865,43.08 62.865,43.74 L62.865,47 L61.915,47 Z M19.545,52.35 L19.545,51.32 L20.575,51.32 L20.575,52.35 L19.545,52.35 Z M20.535,59 L19.585,59 L19.585,53.63 L20.535,53.63 L20.535,59 Z M22.115,59 L22.115,53.63 L23.035,53.63 L23.055,54.42 L23.075,54.42 C23.415,53.88 24.015,53.52 24.815,53.52 C25.975,53.52 26.705,54.27 26.705,55.4 L26.705,59 L25.755,59 L25.755,55.59 C25.755,54.89 25.345,54.34 24.535,54.34 C23.635,54.34 23.065,54.96 23.065,55.8 L23.065,59 L22.115,59 Z M30.015,59.11 C29.065,59.11 28.325,58.83 27.765,58.3 L28.345,57.65 C28.815,58.1 29.405,58.31 30.045,58.31 C30.895,58.31 31.305,58 31.305,57.54 C31.305,57.03 30.765,56.91 29.865,56.72 C28.855,56.5 27.955,56.19 27.955,55.15 C27.955,54.23 28.675,53.52 30.075,53.52 C30.935,53.52 31.605,53.78 32.165,54.29 L31.595,54.94 C31.135,54.52 30.625,54.32 30.045,54.32 C29.295,54.32 28.915,54.64 28.915,55.05 C28.915,55.55 29.395,55.66 30.325,55.86 C31.315,56.08 32.265,56.36 32.265,57.43 C32.265,58.41 31.485,59.11 30.015,59.11 Z M33.375,52.35 L33.375,51.32 L34.405,51.32 L34.405,52.35 L33.375,52.35 Z M34.365,59 L33.415,59 L33.415,53.63 L34.365,53.63 L34.365,59 Z M40.645,53.63 L40.645,58.41 C40.645,60.12 39.545,60.94 37.925,60.94 C37.075,60.94 36.395,60.7 35.915,60.38 L36.345,59.63 C36.735,59.89 37.205,60.13 37.915,60.13 C38.915,60.13 39.705,59.68 39.705,58.41 L39.705,57.95 L39.685,57.95 C39.275,58.59 38.625,58.91 37.895,58.91 C36.475,58.91 35.605,57.71 35.605,56.25 C35.605,54.78 36.485,53.52 37.965,53.52 C38.745,53.52 39.325,53.87 39.705,54.4 L39.725,54.4 L39.755,53.63 L40.645,53.63 Z M38.135,58.08 C39.165,58.08 39.725,57.24 39.725,56.2 C39.725,55.17 39.155,54.35 38.145,54.35 C37.095,54.35 36.565,55.21 36.565,56.22 C36.565,57.19 37.055,58.08 38.135,58.08 Z M42.225,59 L42.225,51.32 L43.175,51.32 L43.175,54.4 L43.195,54.4 C43.555,53.85 44.155,53.52 44.925,53.52 C46.085,53.52 46.815,54.27 46.815,55.4 L46.815,59 L45.865,59 L45.865,55.59 C45.865,54.89 45.455,54.34 44.645,54.34 C43.745,54.34 43.175,54.96 43.175,55.8 L43.175,59 L42.225,59 Z M47.685,54.42 L47.685,53.63 L48.755,53.63 L48.755,51.93 L49.705,51.93 L49.705,53.63 L50.995,53.63 L50.995,54.42 L49.705,54.42 L49.705,57.36 C49.705,58 49.875,58.29 50.575,58.29 C50.755,58.29 50.885,58.27 50.995,58.25 L50.995,59.02 C50.785,59.07 50.545,59.11 50.245,59.11 C49.225,59.11 48.755,58.55 48.755,57.6 L48.755,54.42 L47.685,54.42 Z M56.565,59.11 C55.055,59.11 54.175,57.86 54.175,56.36 C54.175,54.78 55.105,53.52 56.615,53.52 C57.325,53.52 57.945,53.83 58.365,54.41 L58.385,54.41 L58.385,51.32 L59.335,51.32 L59.335,59 L58.405,59 L58.395,58.13 L58.375,58.13 C57.925,58.78 57.285,59.11 56.565,59.11 Z M56.735,58.28 C57.795,58.28 58.415,57.45 58.415,56.31 C58.415,55.13 57.795,54.35 56.765,54.35 C55.645,54.35 55.135,55.3 55.135,56.33 C55.135,57.33 55.645,58.28 56.735,58.28 Z M64.935,59 L64.005,59 L63.985,58.22 L63.965,58.22 C63.665,58.75 63.115,59.11 62.345,59.11 C61.295,59.11 60.615,58.44 60.615,57.49 C60.615,56.79 60.975,56.32 61.655,56.1 C62.245,55.91 63.115,55.87 63.995,55.84 L63.995,55.36 C63.995,54.81 63.615,54.32 62.805,54.32 C62.125,54.32 61.735,54.64 61.565,55.13 L60.775,54.75 C61.085,53.94 61.855,53.52 62.835,53.52 C64.115,53.52 64.935,54.19 64.935,55.36 L64.935,59 Z M62.565,58.31 C63.435,58.31 63.995,57.65 63.995,56.88 L63.995,56.57 C63.635,56.58 63.075,56.62 62.625,56.68 C62.015,56.76 61.565,56.93 61.565,57.48 C61.565,57.98 61.945,58.31 62.565,58.31 Z M70.075,53.63 L71.075,53.63 L68.795,59.41 C68.335,60.58 67.865,60.94 67.065,60.94 C66.785,60.94 66.575,60.89 66.415,60.83 L66.415,60.06 C66.535,60.1 66.675,60.13 66.865,60.13 C67.395,60.13 67.715,59.92 67.965,59.14 L67.985,59.08 L65.835,53.63 L66.875,53.63 L68.455,57.91 L68.475,57.91 L70.075,53.63 Z" id="Register-insight-day" fill="#777777"></path>
                    </g>
                    <g id="Page-Copy-14" transform="translate(490.000000, 220.000000)">
                        <path d="M0,20 L90,20 L90,75 C90,77.7614237 87.7614237,80 85,80 L5,80 C2.23857625,80 3.38176876e-16,77.7614237 0,75 L0,20 Z" id="Rectangle" fill="#EEEEEE"></path>
                        <path d="M5,0 L85,0 C87.7614237,-5.07265313e-16 90,2.23857625 90,5 L90,20 L0,20 L0,5 C-3.38176876e-16,2.23857625 2.23857625,5.07265313e-16 5,0 Z" id="Rectangle" fill="#777777"></path>
                        <path d="M8.18,7.53 L8.02,9.6 C8.3,9.48 8.64,9.4 9.09,9.4 C10.58,9.4 11.65,10.31 11.65,11.74 C11.65,13.14 10.61,14.11 8.95,14.11 C7.85,14.11 7.04,13.68 6.59,13.1 L7.29,12.47 C7.68,12.98 8.21,13.26 8.97,13.26 C10.03,13.26 10.66,12.68 10.66,11.76 C10.66,10.86 10,10.24 8.91,10.24 C8.4,10.24 8.04,10.38 7.73,10.56 L6.98,10.56 L7.29,6.66 L11.23,6.66 L11.23,7.53 L8.18,7.53 Z M13.17,14 L13.17,12.9 L14.27,12.9 L14.27,14 L13.17,14 Z M16.16,14 L16.16,13.13 L17.95,13.13 L17.95,7.88 C17.4,8.21 16.78,8.41 16.16,8.57 L16.16,7.7 C16.99,7.45 17.69,7.12 18.26,6.66 L18.94,6.66 L18.94,13.13 L20.72,13.13 L20.72,14 L16.16,14 Z" id="5.1" fill="#FFFFFF"></path>
                        <path d="M28.995,52 L27.985,52 L27.985,45.2 L25.325,45.2 L25.325,44.32 L31.655,44.32 L31.655,45.2 L28.995,45.2 L28.995,52 Z M32.595,52 L32.595,46.63 L33.515,46.63 L33.535,47.44 L33.555,47.44 C33.915,46.77 34.415,46.52 34.935,46.52 C35.125,46.52 35.265,46.55 35.385,46.59 L35.385,47.52 C35.295,47.49 35.105,47.45 34.885,47.45 C33.995,47.45 33.545,48.08 33.545,48.74 L33.545,52 L32.595,52 Z M40.415,52 L39.485,52 L39.465,51.22 L39.445,51.22 C39.145,51.75 38.595,52.11 37.825,52.11 C36.775,52.11 36.095,51.44 36.095,50.49 C36.095,49.79 36.455,49.32 37.135,49.1 C37.725,48.91 38.595,48.87 39.475,48.84 L39.475,48.36 C39.475,47.81 39.095,47.32 38.285,47.32 C37.605,47.32 37.215,47.64 37.045,48.13 L36.255,47.75 C36.565,46.94 37.335,46.52 38.315,46.52 C39.595,46.52 40.415,47.19 40.415,48.36 L40.415,52 Z M38.045,51.31 C38.915,51.31 39.475,50.65 39.475,49.88 L39.475,49.57 C39.115,49.58 38.555,49.62 38.105,49.68 C37.495,49.76 37.045,49.93 37.045,50.48 C37.045,50.98 37.425,51.31 38.045,51.31 Z M41.935,45.35 L41.935,44.32 L42.965,44.32 L42.965,45.35 L41.935,45.35 Z M42.925,52 L41.975,52 L41.975,46.63 L42.925,46.63 L42.925,52 Z M44.505,52 L44.505,46.63 L45.425,46.63 L45.445,47.42 L45.465,47.42 C45.805,46.88 46.405,46.52 47.205,46.52 C48.365,46.52 49.095,47.27 49.095,48.4 L49.095,52 L48.145,52 L48.145,48.59 C48.145,47.89 47.735,47.34 46.925,47.34 C46.025,47.34 45.455,47.96 45.455,48.8 L45.455,52 L44.505,52 Z M50.615,45.35 L50.615,44.32 L51.645,44.32 L51.645,45.35 L50.615,45.35 Z M51.605,52 L50.655,52 L50.655,46.63 L51.605,46.63 L51.605,52 Z M53.185,52 L53.185,46.63 L54.105,46.63 L54.125,47.42 L54.145,47.42 C54.485,46.88 55.085,46.52 55.885,46.52 C57.045,46.52 57.775,47.27 57.775,48.4 L57.775,52 L56.825,52 L56.825,48.59 C56.825,47.89 56.415,47.34 55.605,47.34 C54.705,47.34 54.135,47.96 54.135,48.8 L54.135,52 L53.185,52 Z M64.035,46.63 L64.035,51.41 C64.035,53.12 62.935,53.94 61.315,53.94 C60.465,53.94 59.785,53.7 59.305,53.38 L59.735,52.63 C60.125,52.89 60.595,53.13 61.305,53.13 C62.305,53.13 63.095,52.68 63.095,51.41 L63.095,50.95 L63.075,50.95 C62.665,51.59 62.015,51.91 61.285,51.91 C59.865,51.91 58.995,50.71 58.995,49.25 C58.995,47.78 59.875,46.52 61.355,46.52 C62.135,46.52 62.715,46.87 63.095,47.4 L63.115,47.4 L63.145,46.63 L64.035,46.63 Z M61.525,51.08 C62.555,51.08 63.115,50.24 63.115,49.2 C63.115,48.17 62.545,47.35 61.535,47.35 C60.485,47.35 59.955,48.21 59.955,49.22 C59.955,50.19 60.445,51.08 61.525,51.08 Z" id="Training" fill="#777777"></path>
                    </g>
                    <g id="Page-Copy-10" transform="translate(250.000000, 220.000000)">
                        <path d="M0,20 L90,20 L90,75 C90,77.7614237 87.7614237,80 85,80 L5,80 C2.23857625,80 3.38176876e-16,77.7614237 0,75 L0,20 Z" id="Rectangle" fill="#EEEEEE"></path>
                        <path d="M5,0 L85,0 C87.7614237,-5.07265313e-16 90,2.23857625 90,5 L90,20 L0,20 L0,5 C-3.38176876e-16,2.23857625 2.23857625,5.07265313e-16 5,0 Z" id="Rectangle" fill="#BBDCDB"></path>
                        <text id="3.1" font-family="Usual-Regular, Usual" font-size="10" font-weight="normal" fill="#FFFFFF">
                            <tspan x="6" y="14">3.1</tspan>
                        </text>
                        <path d="M35.035,41.11 C33.855,41.11 32.835,40.72 32.145,39.9 L32.895,39.25 C33.395,39.88 34.165,40.24 35.025,40.24 C36.295,40.24 36.825,39.72 36.825,38.95 C36.825,38.13 36.105,37.89 34.915,37.59 C33.645,37.27 32.395,36.89 32.395,35.42 C32.395,34.09 33.425,33.21 35.105,33.21 C36.185,33.21 37.105,33.6 37.745,34.4 L36.985,35.03 C36.585,34.47 35.975,34.08 35.095,34.08 C33.985,34.08 33.425,34.61 33.425,35.32 C33.425,36.14 34.155,36.33 35.315,36.64 C36.645,37 37.855,37.39 37.855,38.85 C37.855,40.21 36.825,41.11 35.035,41.11 Z M39.995,36.35 L40.015,36.35 C40.345,35.84 40.855,35.52 41.595,35.52 C42.365,35.52 42.945,35.87 43.215,36.44 C43.605,35.81 44.225,35.52 44.955,35.52 C46.035,35.52 46.745,36.2 46.745,37.22 L46.745,41 L45.795,41 L45.795,37.44 C45.795,36.82 45.435,36.34 44.685,36.34 C43.885,36.34 43.375,36.88 43.375,37.62 L43.375,41 L42.425,41 L42.425,37.44 C42.425,36.82 42.055,36.34 41.325,36.34 C40.525,36.34 40.005,36.88 40.005,37.62 L40.005,41 L39.055,41 L39.055,35.63 L39.975,35.63 L39.995,36.35 Z M52.325,41 L51.395,41 L51.375,40.22 L51.355,40.22 C51.055,40.75 50.505,41.11 49.735,41.11 C48.685,41.11 48.005,40.44 48.005,39.49 C48.005,38.79 48.365,38.32 49.045,38.1 C49.635,37.91 50.505,37.87 51.385,37.84 L51.385,37.36 C51.385,36.81 51.005,36.32 50.195,36.32 C49.515,36.32 49.125,36.64 48.955,37.13 L48.165,36.75 C48.475,35.94 49.245,35.52 50.225,35.52 C51.505,35.52 52.325,36.19 52.325,37.36 L52.325,41 Z M49.955,40.31 C50.825,40.31 51.385,39.65 51.385,38.88 L51.385,38.57 C51.025,38.58 50.465,38.62 50.015,38.68 C49.405,38.76 48.955,38.93 48.955,39.48 C48.955,39.98 49.335,40.31 49.955,40.31 Z M54.835,41 L53.885,41 L53.885,33.32 L54.835,33.32 L54.835,41 Z M57.365,41 L56.415,41 L56.415,33.32 L57.365,33.32 L57.365,41 Z M27.31,53.11 C26.53,53.11 25.91,52.77 25.51,52.17 L25.49,52.17 L25.45,53 L24.58,53 L24.58,45.32 L25.53,45.32 L25.53,48.48 L25.55,48.48 C25.99,47.85 26.62,47.52 27.37,47.52 C28.87,47.52 29.74,48.77 29.74,50.3 C29.74,51.79 28.84,53.11 27.31,53.11 Z M27.12,52.28 C28.19,52.28 28.78,51.41 28.78,50.31 C28.78,49.3 28.26,48.35 27.13,48.35 C26,48.35 25.5,49.33 25.5,50.34 C25.5,51.39 26.03,52.28 27.12,52.28 Z M35.57,47.63 L35.57,53 L34.64,53 L34.63,52.21 L34.61,52.21 C34.26,52.74 33.65,53.11 32.87,53.11 C31.71,53.11 30.98,52.36 30.98,51.23 L30.98,47.63 L31.93,47.63 L31.93,51.04 C31.93,51.74 32.32,52.29 33.15,52.29 C34.05,52.29 34.62,51.67 34.62,50.83 L34.62,47.63 L35.57,47.63 Z M38.9,53.11 C37.95,53.11 37.21,52.83 36.65,52.3 L37.23,51.65 C37.7,52.1 38.29,52.31 38.93,52.31 C39.78,52.31 40.19,52 40.19,51.54 C40.19,51.03 39.65,50.91 38.75,50.72 C37.74,50.5 36.84,50.19 36.84,49.15 C36.84,48.23 37.56,47.52 38.96,47.52 C39.82,47.52 40.49,47.78 41.05,48.29 L40.48,48.94 C40.02,48.52 39.51,48.32 38.93,48.32 C38.18,48.32 37.8,48.64 37.8,49.05 C37.8,49.55 38.28,49.66 39.21,49.86 C40.2,50.08 41.15,50.36 41.15,51.43 C41.15,52.41 40.37,53.11 38.9,53.11 Z M42.26,46.35 L42.26,45.32 L43.29,45.32 L43.29,46.35 L42.26,46.35 Z M43.25,53 L42.3,53 L42.3,47.63 L43.25,47.63 L43.25,53 Z M44.83,53 L44.83,47.63 L45.75,47.63 L45.77,48.42 L45.79,48.42 C46.13,47.88 46.73,47.52 47.53,47.52 C48.69,47.52 49.42,48.27 49.42,49.4 L49.42,53 L48.47,53 L48.47,49.59 C48.47,48.89 48.06,48.34 47.25,48.34 C46.35,48.34 45.78,48.96 45.78,49.8 L45.78,53 L44.83,53 Z M51.59,49.9 L54.57,49.9 C54.51,49.02 54.07,48.32 53.12,48.32 C52.18,48.32 51.68,49 51.59,49.9 Z M54.65,51.65 L55.31,52.24 C54.83,52.8 54.14,53.11 53.28,53.11 C51.59,53.11 50.63,52 50.63,50.31 C50.63,48.69 51.59,47.52 53.14,47.52 C54.68,47.52 55.51,48.67 55.51,50.14 C55.51,50.3 55.5,50.55 55.48,50.69 L51.6,50.69 C51.7,51.71 52.29,52.3 53.29,52.3 C53.88,52.3 54.33,52.08 54.65,51.65 Z M58.45,53.11 C57.5,53.11 56.76,52.83 56.2,52.3 L56.78,51.65 C57.25,52.1 57.84,52.31 58.48,52.31 C59.33,52.31 59.74,52 59.74,51.54 C59.74,51.03 59.2,50.91 58.3,50.72 C57.29,50.5 56.39,50.19 56.39,49.15 C56.39,48.23 57.11,47.52 58.51,47.52 C59.37,47.52 60.04,47.78 60.6,48.29 L60.03,48.94 C59.57,48.52 59.06,48.32 58.48,48.32 C57.73,48.32 57.35,48.64 57.35,49.05 C57.35,49.55 57.83,49.66 58.76,49.86 C59.75,50.08 60.7,50.36 60.7,51.43 C60.7,52.41 59.92,53.11 58.45,53.11 Z M63.6,53.11 C62.65,53.11 61.91,52.83 61.35,52.3 L61.93,51.65 C62.4,52.1 62.99,52.31 63.63,52.31 C64.48,52.31 64.89,52 64.89,51.54 C64.89,51.03 64.35,50.91 63.45,50.72 C62.44,50.5 61.54,50.19 61.54,49.15 C61.54,48.23 62.26,47.52 63.66,47.52 C64.52,47.52 65.19,47.78 65.75,48.29 L65.18,48.94 C64.72,48.52 64.21,48.32 63.63,48.32 C62.88,48.32 62.5,48.64 62.5,49.05 C62.5,49.55 62.98,49.66 63.91,49.86 C64.9,50.08 65.85,50.36 65.85,51.43 C65.85,52.41 65.07,53.11 63.6,53.11 Z M33.005,65.11 C31.325,65.11 30.365,63.87 30.365,62.32 C30.365,60.76 31.325,59.52 33.005,59.52 C34.695,59.52 35.635,60.78 35.635,62.32 C35.635,63.85 34.695,65.11 33.005,65.11 Z M32.995,60.33 C31.885,60.33 31.325,61.25 31.325,62.32 C31.325,63.38 31.885,64.3 32.995,64.3 C34.105,64.3 34.675,63.38 34.675,62.32 C34.675,61.25 34.105,60.33 32.995,60.33 Z M43.285,59.63 L44.245,59.63 L42.515,65 L41.545,65 L40.255,60.94 L40.235,60.94 L38.945,65 L37.975,65 L36.235,59.63 L37.235,59.63 L38.485,63.77 L38.505,63.77 L39.745,59.63 L40.765,59.63 L42.015,63.79 L42.035,63.79 L43.285,59.63 Z M45.195,65 L45.195,59.63 L46.115,59.63 L46.135,60.42 L46.155,60.42 C46.495,59.88 47.095,59.52 47.895,59.52 C49.055,59.52 49.785,60.27 49.785,61.4 L49.785,65 L48.835,65 L48.835,61.59 C48.835,60.89 48.425,60.34 47.615,60.34 C46.715,60.34 46.145,60.96 46.145,61.8 L46.145,65 L45.195,65 Z M51.955,61.9 L54.935,61.9 C54.875,61.02 54.435,60.32 53.485,60.32 C52.545,60.32 52.045,61 51.955,61.9 Z M55.015,63.65 L55.675,64.24 C55.195,64.8 54.505,65.11 53.645,65.11 C51.955,65.11 50.995,64 50.995,62.31 C50.995,60.69 51.955,59.52 53.505,59.52 C55.045,59.52 55.875,60.67 55.875,62.14 C55.875,62.3 55.865,62.55 55.845,62.69 L51.965,62.69 C52.065,63.71 52.655,64.3 53.655,64.3 C54.245,64.3 54.695,64.08 55.015,63.65 Z M57.065,65 L57.065,59.63 L57.985,59.63 L58.005,60.44 L58.025,60.44 C58.385,59.77 58.885,59.52 59.405,59.52 C59.595,59.52 59.735,59.55 59.855,59.59 L59.855,60.52 C59.765,60.49 59.575,60.45 59.355,60.45 C58.465,60.45 58.015,61.08 58.015,61.74 L58.015,65 L57.065,65 Z" id="Small-business-owner" fill="#777777"></path>
                    </g>
                    <g id="Page-Copy-11" transform="translate(250.000000, 320.000000)">
                        <path d="M0,20 L90,20 L90,75 C90,77.7614237 87.7614237,80 85,80 L5,80 C2.23857625,80 3.38176876e-16,77.7614237 0,75 L0,20 Z" id="Rectangle" fill="#EEEEEE"></path>
                        <path d="M5,0 L85,0 C87.7614237,-5.07265313e-16 90,2.23857625 90,5 L90,20 L0,20 L0,5 C-3.38176876e-16,2.23857625 2.23857625,5.07265313e-16 5,0 Z" id="Rectangle" fill="#D2B3C2"></path>
                        <text id="3.2" font-family="Usual-Regular, Usual" font-size="10" font-weight="normal" fill="#FFFFFF">
                            <tspan x="6" y="14">3.2</tspan>
                        </text>
                        <path d="M28.72,43.05 L28.72,43.07 C29.48,43.31 30.09,43.93 30.09,44.9 C30.09,46.25 28.92,47 27.5,47 L24.38,47 L24.38,39.32 L27.57,39.32 C29,39.32 29.91,40.13 29.91,41.32 C29.91,42.16 29.45,42.74 28.72,43.05 Z M27.55,40.2 L25.38,40.2 L25.38,42.7 L27.54,42.7 C28.31,42.7 28.9,42.28 28.9,41.44 C28.9,40.61 28.32,40.2 27.55,40.2 Z M25.38,46.12 L27.67,46.12 C28.45,46.12 29.07,45.7 29.07,44.84 C29.07,43.99 28.48,43.57 27.67,43.57 L25.38,43.57 L25.38,46.12 Z M35.85,41.63 L35.85,47 L34.92,47 L34.91,46.21 L34.89,46.21 C34.54,46.74 33.93,47.11 33.15,47.11 C31.99,47.11 31.26,46.36 31.26,45.23 L31.26,41.63 L32.21,41.63 L32.21,45.04 C32.21,45.74 32.6,46.29 33.43,46.29 C34.33,46.29 34.9,45.67 34.9,44.83 L34.9,41.63 L35.85,41.63 Z M39.18,47.11 C38.23,47.11 37.49,46.83 36.93,46.3 L37.51,45.65 C37.98,46.1 38.57,46.31 39.21,46.31 C40.06,46.31 40.47,46 40.47,45.54 C40.47,45.03 39.93,44.91 39.03,44.72 C38.02,44.5 37.12,44.19 37.12,43.15 C37.12,42.23 37.84,41.52 39.24,41.52 C40.1,41.52 40.77,41.78 41.33,42.29 L40.76,42.94 C40.3,42.52 39.79,42.32 39.21,42.32 C38.46,42.32 38.08,42.64 38.08,43.05 C38.08,43.55 38.56,43.66 39.49,43.86 C40.48,44.08 41.43,44.36 41.43,45.43 C41.43,46.41 40.65,47.11 39.18,47.11 Z M42.54,40.35 L42.54,39.32 L43.57,39.32 L43.57,40.35 L42.54,40.35 Z M43.53,47 L42.58,47 L42.58,41.63 L43.53,41.63 L43.53,47 Z M45.11,47 L45.11,41.63 L46.03,41.63 L46.05,42.42 L46.07,42.42 C46.41,41.88 47.01,41.52 47.81,41.52 C48.97,41.52 49.7,42.27 49.7,43.4 L49.7,47 L48.75,47 L48.75,43.59 C48.75,42.89 48.34,42.34 47.53,42.34 C46.63,42.34 46.06,42.96 46.06,43.8 L46.06,47 L45.11,47 Z M51.87,43.9 L54.85,43.9 C54.79,43.02 54.35,42.32 53.4,42.32 C52.46,42.32 51.96,43 51.87,43.9 Z M54.93,45.65 L55.59,46.24 C55.11,46.8 54.42,47.11 53.56,47.11 C51.87,47.11 50.91,46 50.91,44.31 C50.91,42.69 51.87,41.52 53.42,41.52 C54.96,41.52 55.79,42.67 55.79,44.14 C55.79,44.3 55.78,44.55 55.76,44.69 L51.88,44.69 C51.98,45.71 52.57,46.3 53.57,46.3 C54.16,46.3 54.61,46.08 54.93,45.65 Z M58.73,47.11 C57.78,47.11 57.04,46.83 56.48,46.3 L57.06,45.65 C57.53,46.1 58.12,46.31 58.76,46.31 C59.61,46.31 60.02,46 60.02,45.54 C60.02,45.03 59.48,44.91 58.58,44.72 C57.57,44.5 56.67,44.19 56.67,43.15 C56.67,42.23 57.39,41.52 58.79,41.52 C59.65,41.52 60.32,41.78 60.88,42.29 L60.31,42.94 C59.85,42.52 59.34,42.32 58.76,42.32 C58.01,42.32 57.63,42.64 57.63,43.05 C57.63,43.55 58.11,43.66 59.04,43.86 C60.03,44.08 60.98,44.36 60.98,45.43 C60.98,46.41 60.2,47.11 58.73,47.11 Z M63.88,47.11 C62.93,47.11 62.19,46.83 61.63,46.3 L62.21,45.65 C62.68,46.1 63.27,46.31 63.91,46.31 C64.76,46.31 65.17,46 65.17,45.54 C65.17,45.03 64.63,44.91 63.73,44.72 C62.72,44.5 61.82,44.19 61.82,43.15 C61.82,42.23 62.54,41.52 63.94,41.52 C64.8,41.52 65.47,41.78 66.03,42.29 L65.46,42.94 C65,42.52 64.49,42.32 63.91,42.32 C63.16,42.32 62.78,42.64 62.78,43.05 C62.78,43.55 63.26,43.66 64.19,43.86 C65.18,44.08 66.13,44.36 66.13,45.43 C66.13,46.41 65.35,47.11 63.88,47.11 Z M29.74,59 L28.79,59 L28.79,51.32 L29.74,51.32 L29.74,59 Z M31.93,55.9 L34.91,55.9 C34.85,55.02 34.41,54.32 33.46,54.32 C32.52,54.32 32.02,55 31.93,55.9 Z M34.99,57.65 L35.65,58.24 C35.17,58.8 34.48,59.11 33.62,59.11 C31.93,59.11 30.97,58 30.97,56.31 C30.97,54.69 31.93,53.52 33.48,53.52 C35.02,53.52 35.85,54.67 35.85,56.14 C35.85,56.3 35.84,56.55 35.82,56.69 L31.94,56.69 C32.04,57.71 32.63,58.3 33.63,58.3 C34.22,58.3 34.67,58.08 34.99,57.65 Z M41.06,59 L40.13,59 L40.11,58.22 L40.09,58.22 C39.79,58.75 39.24,59.11 38.47,59.11 C37.42,59.11 36.74,58.44 36.74,57.49 C36.74,56.79 37.1,56.32 37.78,56.1 C38.37,55.91 39.24,55.87 40.12,55.84 L40.12,55.36 C40.12,54.81 39.74,54.32 38.93,54.32 C38.25,54.32 37.86,54.64 37.69,55.13 L36.9,54.75 C37.21,53.94 37.98,53.52 38.96,53.52 C40.24,53.52 41.06,54.19 41.06,55.36 L41.06,59 Z M38.69,58.31 C39.56,58.31 40.12,57.65 40.12,56.88 L40.12,56.57 C39.76,56.58 39.2,56.62 38.75,56.68 C38.14,56.76 37.69,56.93 37.69,57.48 C37.69,57.98 38.07,58.31 38.69,58.31 Z M46.2,53.63 L47.2,53.63 L45.08,59 L44.07,59 L41.96,53.63 L43,53.63 L44.58,57.91 L44.6,57.91 L46.2,53.63 Z M48.73,55.9 L51.71,55.9 C51.65,55.02 51.21,54.32 50.26,54.32 C49.32,54.32 48.82,55 48.73,55.9 Z M51.79,57.65 L52.45,58.24 C51.97,58.8 51.28,59.11 50.42,59.11 C48.73,59.11 47.77,58 47.77,56.31 C47.77,54.69 48.73,53.52 50.28,53.52 C51.82,53.52 52.65,54.67 52.65,56.14 C52.65,56.3 52.64,56.55 52.62,56.69 L48.74,56.69 C48.84,57.71 49.43,58.3 50.43,58.3 C51.02,58.3 51.47,58.08 51.79,57.65 Z M53.84,59 L53.84,53.63 L54.76,53.63 L54.78,54.44 L54.8,54.44 C55.16,53.77 55.66,53.52 56.18,53.52 C56.37,53.52 56.51,53.55 56.63,53.59 L56.63,54.52 C56.54,54.49 56.35,54.45 56.13,54.45 C55.24,54.45 54.79,55.08 54.79,55.74 L54.79,59 L53.84,59 Z M59.39,59.11 C58.44,59.11 57.7,58.83 57.14,58.3 L57.72,57.65 C58.19,58.1 58.78,58.31 59.42,58.31 C60.27,58.31 60.68,58 60.68,57.54 C60.68,57.03 60.14,56.91 59.24,56.72 C58.23,56.5 57.33,56.19 57.33,55.15 C57.33,54.23 58.05,53.52 59.45,53.52 C60.31,53.52 60.98,53.78 61.54,54.29 L60.97,54.94 C60.51,54.52 60,54.32 59.42,54.32 C58.67,54.32 58.29,54.64 58.29,55.05 C58.29,55.55 58.77,55.66 59.7,55.86 C60.69,56.08 61.64,56.36 61.64,57.43 C61.64,58.41 60.86,59.11 59.39,59.11 Z" id="Business-leavers" fill="#777777"></path>
                    </g>
                    <g id="Page-Copy-12" transform="translate(250.000000, 420.000000)">
                        <path d="M0,20 L90,20 L90,75 C90,77.7614237 87.7614237,80 85,80 L5,80 C2.23857625,80 3.38176876e-16,77.7614237 0,75 L0,20 Z" id="Rectangle" fill="#EEEEEE"></path>
                        <path d="M5,0 L85,0 C87.7614237,-5.07265313e-16 90,2.23857625 90,5 L90,20 L0,20 L0,5 C-3.38176876e-16,2.23857625 2.23857625,5.07265313e-16 5,0 Z" id="Rectangle" fill="#EFCAC4"></path>
                        <text id="3.3" font-family="Usual-Regular, Usual" font-size="10" font-weight="normal" fill="#FFFFFF">
                            <tspan x="6" y="14">3.3</tspan>
                        </text>
                        <path d="M30.075,47.11 C28.895,47.11 27.875,46.72 27.185,45.9 L27.935,45.25 C28.435,45.88 29.205,46.24 30.065,46.24 C31.335,46.24 31.865,45.72 31.865,44.95 C31.865,44.13 31.145,43.89 29.955,43.59 C28.685,43.27 27.435,42.89 27.435,41.42 C27.435,40.09 28.465,39.21 30.145,39.21 C31.225,39.21 32.145,39.6 32.785,40.4 L32.025,41.03 C31.625,40.47 31.015,40.08 30.135,40.08 C29.025,40.08 28.465,40.61 28.465,41.32 C28.465,42.14 29.195,42.33 30.355,42.64 C31.685,43 32.895,43.39 32.895,44.85 C32.895,46.21 31.865,47.11 30.075,47.11 Z M34.705,43.9 L37.685,43.9 C37.625,43.02 37.185,42.32 36.235,42.32 C35.295,42.32 34.795,43 34.705,43.9 Z M37.765,45.65 L38.425,46.24 C37.945,46.8 37.255,47.11 36.395,47.11 C34.705,47.11 33.745,46 33.745,44.31 C33.745,42.69 34.705,41.52 36.255,41.52 C37.795,41.52 38.625,42.67 38.625,44.14 C38.625,44.3 38.615,44.55 38.595,44.69 L34.715,44.69 C34.815,45.71 35.405,46.3 36.405,46.3 C36.995,46.3 37.445,46.08 37.765,45.65 Z M42.085,47.11 C40.435,47.11 39.475,45.92 39.475,44.34 C39.475,42.75 40.425,41.52 42.075,41.52 C43.095,41.52 43.815,42.01 44.225,42.78 L43.435,43.23 C43.165,42.71 42.735,42.33 42.055,42.33 C41.005,42.33 40.435,43.21 40.435,44.32 C40.435,45.4 40.985,46.3 42.115,46.3 C42.825,46.3 43.255,45.94 43.515,45.43 L44.265,45.86 C43.885,46.61 43.125,47.11 42.085,47.11 Z M47.475,47.11 C45.795,47.11 44.835,45.87 44.835,44.32 C44.835,42.76 45.795,41.52 47.475,41.52 C49.165,41.52 50.105,42.78 50.105,44.32 C50.105,45.85 49.165,47.11 47.475,47.11 Z M47.465,42.33 C46.355,42.33 45.795,43.25 45.795,44.32 C45.795,45.38 46.355,46.3 47.465,46.3 C48.575,46.3 49.145,45.38 49.145,44.32 C49.145,43.25 48.575,42.33 47.465,42.33 Z M51.335,47 L51.335,41.63 L52.255,41.63 L52.275,42.42 L52.295,42.42 C52.635,41.88 53.235,41.52 54.035,41.52 C55.195,41.52 55.925,42.27 55.925,43.4 L55.925,47 L54.975,47 L54.975,43.59 C54.975,42.89 54.565,42.34 53.755,42.34 C52.855,42.34 52.285,42.96 52.285,43.8 L52.285,47 L51.335,47 Z M59.555,47.11 C58.045,47.11 57.165,45.86 57.165,44.36 C57.165,42.78 58.095,41.52 59.605,41.52 C60.315,41.52 60.935,41.83 61.355,42.41 L61.375,42.41 L61.375,39.32 L62.325,39.32 L62.325,47 L61.395,47 L61.385,46.13 L61.365,46.13 C60.915,46.78 60.275,47.11 59.555,47.11 Z M59.725,46.28 C60.785,46.28 61.405,45.45 61.405,44.31 C61.405,43.13 60.785,42.35 59.755,42.35 C58.635,42.35 58.125,43.3 58.125,44.33 C58.125,45.33 58.635,46.28 59.725,46.28 Z M27.39,59.11 C25.74,59.11 24.78,57.92 24.78,56.34 C24.78,54.75 25.73,53.52 27.38,53.52 C28.4,53.52 29.12,54.01 29.53,54.78 L28.74,55.23 C28.47,54.71 28.04,54.33 27.36,54.33 C26.31,54.33 25.74,55.21 25.74,56.32 C25.74,57.4 26.29,58.3 27.42,58.3 C28.13,58.3 28.56,57.94 28.82,57.43 L29.57,57.86 C29.19,58.61 28.43,59.11 27.39,59.11 Z M34.51,59 L33.58,59 L33.56,58.22 L33.54,58.22 C33.24,58.75 32.69,59.11 31.92,59.11 C30.87,59.11 30.19,58.44 30.19,57.49 C30.19,56.79 30.55,56.32 31.23,56.1 C31.82,55.91 32.69,55.87 33.57,55.84 L33.57,55.36 C33.57,54.81 33.19,54.32 32.38,54.32 C31.7,54.32 31.31,54.64 31.14,55.13 L30.35,54.75 C30.66,53.94 31.43,53.52 32.41,53.52 C33.69,53.52 34.51,54.19 34.51,55.36 L34.51,59 Z M32.14,58.31 C33.01,58.31 33.57,57.65 33.57,56.88 L33.57,56.57 C33.21,56.58 32.65,56.62 32.2,56.68 C31.59,56.76 31.14,56.93 31.14,57.48 C31.14,57.98 31.52,58.31 32.14,58.31 Z M36.07,59 L36.07,53.63 L36.99,53.63 L37.01,54.44 L37.03,54.44 C37.39,53.77 37.89,53.52 38.41,53.52 C38.6,53.52 38.74,53.55 38.86,53.59 L38.86,54.52 C38.77,54.49 38.58,54.45 38.36,54.45 C37.47,54.45 37.02,55.08 37.02,55.74 L37.02,59 L36.07,59 Z M40.48,55.9 L43.46,55.9 C43.4,55.02 42.96,54.32 42.01,54.32 C41.07,54.32 40.57,55 40.48,55.9 Z M43.54,57.65 L44.2,58.24 C43.72,58.8 43.03,59.11 42.17,59.11 C40.48,59.11 39.52,58 39.52,56.31 C39.52,54.69 40.48,53.52 42.03,53.52 C43.57,53.52 44.4,54.67 44.4,56.14 C44.4,56.3 44.39,56.55 44.37,56.69 L40.49,56.69 C40.59,57.71 41.18,58.3 42.18,58.3 C42.77,58.3 43.22,58.08 43.54,57.65 Z M46.2,55.9 L49.18,55.9 C49.12,55.02 48.68,54.32 47.73,54.32 C46.79,54.32 46.29,55 46.2,55.9 Z M49.26,57.65 L49.92,58.24 C49.44,58.8 48.75,59.11 47.89,59.11 C46.2,59.11 45.24,58 45.24,56.31 C45.24,54.69 46.2,53.52 47.75,53.52 C49.29,53.52 50.12,54.67 50.12,56.14 C50.12,56.3 50.11,56.55 50.09,56.69 L46.21,56.69 C46.31,57.71 46.9,58.3 47.9,58.3 C48.49,58.3 48.94,58.08 49.26,57.65 Z M51.31,59 L51.31,53.63 L52.23,53.63 L52.25,54.44 L52.27,54.44 C52.63,53.77 53.13,53.52 53.65,53.52 C53.84,53.52 53.98,53.55 54.1,53.59 L54.1,54.52 C54.01,54.49 53.82,54.45 53.6,54.45 C52.71,54.45 52.26,55.08 52.26,55.74 L52.26,59 L51.31,59 Z M55.07,52.35 L55.07,51.32 L56.1,51.32 L56.1,52.35 L55.07,52.35 Z M56.06,59 L55.11,59 L55.11,53.63 L56.06,53.63 L56.06,59 Z M59.39,59.11 C58.44,59.11 57.7,58.83 57.14,58.3 L57.72,57.65 C58.19,58.1 58.78,58.31 59.42,58.31 C60.27,58.31 60.68,58 60.68,57.54 C60.68,57.03 60.14,56.91 59.24,56.72 C58.23,56.5 57.33,56.19 57.33,55.15 C57.33,54.23 58.05,53.52 59.45,53.52 C60.31,53.52 60.98,53.78 61.54,54.29 L60.97,54.94 C60.51,54.52 60,54.32 59.42,54.32 C58.67,54.32 58.29,54.64 58.29,55.05 C58.29,55.55 58.77,55.66 59.7,55.86 C60.69,56.08 61.64,56.36 61.64,57.43 C61.64,58.41 60.86,59.11 59.39,59.11 Z M62.1,54.42 L62.1,53.63 L63.17,53.63 L63.17,51.93 L64.12,51.93 L64.12,53.63 L65.41,53.63 L65.41,54.42 L64.12,54.42 L64.12,57.36 C64.12,58 64.29,58.29 64.99,58.29 C65.17,58.29 65.3,58.27 65.41,58.25 L65.41,59.02 C65.2,59.07 64.96,59.11 64.66,59.11 C63.64,59.11 63.17,58.55 63.17,57.6 L63.17,54.42 L62.1,54.42 Z" id="Second-careerist" fill="#777777"></path>
                    </g>
                    <g id="Page-Copy-13" transform="translate(250.000000, 520.000000)">
                        <path d="M0,20 L90,20 L90,75 C90,77.7614237 87.7614237,80 85,80 L5,80 C2.23857625,80 3.38176876e-16,77.7614237 0,75 L0,20 Z" id="Rectangle" fill="#EEEEEE"></path>
                        <path d="M5,0 L85,0 C87.7614237,-5.07265313e-16 90,2.23857625 90,5 L90,20 L0,20 L0,5 C-3.38176876e-16,2.23857625 2.23857625,5.07265313e-16 5,0 Z" id="Rectangle" fill="#BEC2E1"></path>
                        <text id="3.4" font-family="Usual-Regular, Usual" font-size="10" font-weight="normal" fill="#FFFFFF">
                            <tspan x="6" y="14">3.4</tspan>
                        </text>
                        <path d="M24.88,39.32 L27.91,39.32 C29.48,39.32 30.67,40.21 30.67,41.79 C30.67,43.37 29.45,44.29 27.88,44.29 L25.89,44.29 L25.89,47 L24.88,47 L24.88,39.32 Z M25.89,43.41 L27.95,43.41 C28.92,43.41 29.64,42.87 29.64,41.81 C29.64,40.73 28.9,40.2 27.95,40.2 L25.89,40.2 L25.89,43.41 Z M31.78,47 L31.78,41.63 L32.7,41.63 L32.72,42.44 L32.74,42.44 C33.1,41.77 33.6,41.52 34.12,41.52 C34.31,41.52 34.45,41.55 34.57,41.59 L34.57,42.52 C34.48,42.49 34.29,42.45 34.07,42.45 C33.18,42.45 32.73,43.08 32.73,43.74 L32.73,47 L31.78,47 Z M36.19,43.9 L39.17,43.9 C39.11,43.02 38.67,42.32 37.72,42.32 C36.78,42.32 36.28,43 36.19,43.9 Z M39.25,45.65 L39.91,46.24 C39.43,46.8 38.74,47.11 37.88,47.11 C36.19,47.11 35.23,46 35.23,44.31 C35.23,42.69 36.19,41.52 37.74,41.52 C39.28,41.52 40.11,42.67 40.11,44.14 C40.11,44.3 40.1,44.55 40.08,44.69 L36.2,44.69 C36.3,45.71 36.89,46.3 37.89,46.3 C38.48,46.3 38.93,46.08 39.25,45.65 Z M44.88,41.63 L45.88,41.63 L43.76,47 L42.75,47 L40.64,41.63 L41.68,41.63 L43.26,45.91 L43.28,45.91 L44.88,41.63 Z M46.76,40.35 L46.76,39.32 L47.79,39.32 L47.79,40.35 L46.76,40.35 Z M47.75,47 L46.8,47 L46.8,41.63 L47.75,41.63 L47.75,47 Z M51.62,47.11 C49.94,47.11 48.98,45.87 48.98,44.32 C48.98,42.76 49.94,41.52 51.62,41.52 C53.31,41.52 54.25,42.78 54.25,44.32 C54.25,45.85 53.31,47.11 51.62,47.11 Z M51.61,42.33 C50.5,42.33 49.94,43.25 49.94,44.32 C49.94,45.38 50.5,46.3 51.61,46.3 C52.72,46.3 53.29,45.38 53.29,44.32 C53.29,43.25 52.72,42.33 51.61,42.33 Z M60.05,41.63 L60.05,47 L59.12,47 L59.11,46.21 L59.09,46.21 C58.74,46.74 58.13,47.11 57.35,47.11 C56.19,47.11 55.46,46.36 55.46,45.23 L55.46,41.63 L56.41,41.63 L56.41,45.04 C56.41,45.74 56.8,46.29 57.63,46.29 C58.53,46.29 59.1,45.67 59.1,44.83 L59.1,41.63 L60.05,41.63 Z M63.38,47.11 C62.43,47.11 61.69,46.83 61.13,46.3 L61.71,45.65 C62.18,46.1 62.77,46.31 63.41,46.31 C64.26,46.31 64.67,46 64.67,45.54 C64.67,45.03 64.13,44.91 63.23,44.72 C62.22,44.5 61.32,44.19 61.32,43.15 C61.32,42.23 62.04,41.52 63.44,41.52 C64.3,41.52 64.97,41.78 65.53,42.29 L64.96,42.94 C64.5,42.52 63.99,42.32 63.41,42.32 C62.66,42.32 62.28,42.64 62.28,43.05 C62.28,43.55 62.76,43.66 63.69,43.86 C64.68,44.08 65.63,44.36 65.63,45.43 C65.63,46.41 64.85,47.11 63.38,47.11 Z M21.32,59 L21.32,54.42 L20.25,54.42 L20.25,53.63 L21.32,53.63 L21.32,52.73 C21.32,51.74 21.91,51.21 22.93,51.21 C23.17,51.21 23.37,51.24 23.56,51.29 L23.56,52.08 C23.46,52.05 23.29,52.03 23.12,52.03 C22.5,52.03 22.27,52.28 22.27,52.85 L22.27,53.63 L23.56,53.63 L23.56,54.42 L22.27,54.42 L22.27,59 L21.32,59 Z M24.54,59 L24.54,53.63 L25.46,53.63 L25.48,54.44 L25.5,54.44 C25.86,53.77 26.36,53.52 26.88,53.52 C27.07,53.52 27.21,53.55 27.33,53.59 L27.33,54.52 C27.24,54.49 27.05,54.45 26.83,54.45 C25.94,54.45 25.49,55.08 25.49,55.74 L25.49,59 L24.54,59 Z M32.36,59 L31.43,59 L31.41,58.22 L31.39,58.22 C31.09,58.75 30.54,59.11 29.77,59.11 C28.72,59.11 28.04,58.44 28.04,57.49 C28.04,56.79 28.4,56.32 29.08,56.1 C29.67,55.91 30.54,55.87 31.42,55.84 L31.42,55.36 C31.42,54.81 31.04,54.32 30.23,54.32 C29.55,54.32 29.16,54.64 28.99,55.13 L28.2,54.75 C28.51,53.94 29.28,53.52 30.26,53.52 C31.54,53.52 32.36,54.19 32.36,55.36 L32.36,59 Z M29.99,58.31 C30.86,58.31 31.42,57.65 31.42,56.88 L31.42,56.57 C31.06,56.58 30.5,56.62 30.05,56.68 C29.44,56.76 28.99,56.93 28.99,57.48 C28.99,57.98 29.37,58.31 29.99,58.31 Z M33.92,59 L33.92,53.63 L34.84,53.63 L34.86,54.42 L34.88,54.42 C35.22,53.88 35.82,53.52 36.62,53.52 C37.78,53.52 38.51,54.27 38.51,55.4 L38.51,59 L37.56,59 L37.56,55.59 C37.56,54.89 37.15,54.34 36.34,54.34 C35.44,54.34 34.87,54.96 34.87,55.8 L34.87,59 L33.92,59 Z M42.34,59.11 C40.69,59.11 39.73,57.92 39.73,56.34 C39.73,54.75 40.68,53.52 42.33,53.52 C43.35,53.52 44.07,54.01 44.48,54.78 L43.69,55.23 C43.42,54.71 42.99,54.33 42.31,54.33 C41.26,54.33 40.69,55.21 40.69,56.32 C40.69,57.4 41.24,58.3 42.37,58.3 C43.08,58.3 43.51,57.94 43.77,57.43 L44.52,57.86 C44.14,58.61 43.38,59.11 42.34,59.11 Z M45.44,59 L45.44,51.32 L46.39,51.32 L46.39,54.4 L46.41,54.4 C46.77,53.85 47.37,53.52 48.14,53.52 C49.3,53.52 50.03,54.27 50.03,55.4 L50.03,59 L49.08,59 L49.08,55.59 C49.08,54.89 48.67,54.34 47.86,54.34 C46.96,54.34 46.39,54.96 46.39,55.8 L46.39,59 L45.44,59 Z M51.55,52.35 L51.55,51.32 L52.58,51.32 L52.58,52.35 L51.55,52.35 Z M52.54,59 L51.59,59 L51.59,53.63 L52.54,53.63 L52.54,59 Z M55.87,59.11 C54.92,59.11 54.18,58.83 53.62,58.3 L54.2,57.65 C54.67,58.1 55.26,58.31 55.9,58.31 C56.75,58.31 57.16,58 57.16,57.54 C57.16,57.03 56.62,56.91 55.72,56.72 C54.71,56.5 53.81,56.19 53.81,55.15 C53.81,54.23 54.53,53.52 55.93,53.52 C56.79,53.52 57.46,53.78 58.02,54.29 L57.45,54.94 C56.99,54.52 56.48,54.32 55.9,54.32 C55.15,54.32 54.77,54.64 54.77,55.05 C54.77,55.55 55.25,55.66 56.18,55.86 C57.17,56.08 58.12,56.36 58.12,57.43 C58.12,58.41 57.34,59.11 55.87,59.11 Z M59.88,55.9 L62.86,55.9 C62.8,55.02 62.36,54.32 61.41,54.32 C60.47,54.32 59.97,55 59.88,55.9 Z M62.94,57.65 L63.6,58.24 C63.12,58.8 62.43,59.11 61.57,59.11 C59.88,59.11 58.92,58 58.92,56.31 C58.92,54.69 59.88,53.52 61.43,53.52 C62.97,53.52 63.8,54.67 63.8,56.14 C63.8,56.3 63.79,56.55 63.77,56.69 L59.89,56.69 C59.99,57.71 60.58,58.3 61.58,58.3 C62.17,58.3 62.62,58.08 62.94,57.65 Z M65.6,55.9 L68.58,55.9 C68.52,55.02 68.08,54.32 67.13,54.32 C66.19,54.32 65.69,55 65.6,55.9 Z M68.66,57.65 L69.32,58.24 C68.84,58.8 68.15,59.11 67.29,59.11 C65.6,59.11 64.64,58 64.64,56.31 C64.64,54.69 65.6,53.52 67.15,53.52 C68.69,53.52 69.52,54.67 69.52,56.14 C69.52,56.3 69.51,56.55 69.49,56.69 L65.61,56.69 C65.71,57.71 66.3,58.3 67.3,58.3 C67.89,58.3 68.34,58.08 68.66,57.65 Z" id="Previous-franchisee" fill="#777777"></path>
                    </g>
                    <path d="M470.5,80.5 L470.5,99.5" id="Line-2-Copy-10" stroke="#DDDDDD" stroke-linecap="square"></path>
                    <path d="M50.5,100.5 L889.5,100.5" id="Line" stroke="#DDDDDD" stroke-linecap="square"></path>
                    <path d="M50.5,100.5 L50.5,119.5" id="Line-2" stroke="#DDDDDD" stroke-linecap="square"></path>
                    <path d="M170.5,100.5 L170.5,119.5" id="Line-2-Copy" stroke="#DDDDDD" stroke-linecap="square"></path>
                    <path d="M290.5,100.5 L290.5,119.5" id="Line-2-Copy-2" stroke="#DDDDDD" stroke-linecap="square"></path>
                    <path d="M410.5,100.5 L410.5,119.5" id="Line-2-Copy-3" stroke="#DDDDDD" stroke-linecap="square"></path>
                    <path d="M530.5,100.5 L530.5,119.5" id="Line-2-Copy-4" stroke="#DDDDDD" stroke-linecap="square"></path>
                    <path d="M650.5,100.5 L650.5,119.5" id="Line-2-Copy-5" stroke="#DDDDDD" stroke-linecap="square"></path>
                    <path d="M770.5,100.5 L770.5,119.5" id="Line-2-Copy-6" stroke="#DDDDDD" stroke-linecap="square"></path>
                    <path d="M890.5,100.5 L890.5,119.5" id="Line-2-Copy-7" stroke="#DDDDDD" stroke-linecap="square"></path>
                    <path d="M830.5,130.5 L830.5,329.5" id="Line-2-Copy-8" stroke="#DDDDDD" stroke-linecap="square"></path>
                    <path d="M230.5,130.5 L230.5,529.5" id="Line-2-Copy-11" stroke="#DDDDDD" stroke-linecap="square"></path>
                    <path d="M470.5,130.5 L470.5,229.5" id="Line-2-Copy-9" stroke="#DDDDDD" stroke-linecap="square"></path>
                    <path d="M830.5,130.5 L839.5,130.5" id="Line-3" stroke="#DDDDDD" stroke-linecap="square"></path>
                    <path d="M230.5,130.5 L239.5,130.5" id="Line-3-Copy-5" stroke="#DDDDDD" stroke-linecap="square"></path>
                    <path d="M470.5,130.5 L479.5,130.5" id="Line-3-Copy-3" stroke="#DDDDDD" stroke-linecap="square"></path>
                    <path d="M830.5,230.5 L849.5,230.5" id="Line-3-Copy" stroke="#DDDDDD" stroke-linecap="square"></path>
                    <path d="M230.5,230.5 L249.5,230.5" id="Line-3-Copy-6" stroke="#DDDDDD" stroke-linecap="square"></path>
                    <path d="M470.5,230.5 L489.5,230.5" id="Line-3-Copy-4" stroke="#DDDDDD" stroke-linecap="square"></path>
                    <path d="M830.5,330.5 L849.5,330.5" id="Line-3-Copy-2" stroke="#DDDDDD" stroke-linecap="square"></path>
                    <path d="M230.5,330.5 L249.5,330.5" id="Line-3-Copy-7" stroke="#DDDDDD" stroke-linecap="square"></path>
                    <path d="M230.5,430.5 L249.5,430.5" id="Line-3-Copy-8" stroke="#DDDDDD" stroke-linecap="square"></path>
                    <path d="M230.5,530.5 L249.5,530.5" id="Line-3-Copy-9" stroke="#DDDDDD" stroke-linecap="square"></path>
                </g>
            </g>
        </g>
    </g>
</svg>