<?xml version="1.0" encoding="UTF-8" standalone="no"?>
<svg width="700px" height="600px" viewBox="0 0 700 600" version="1.1" xmlns="http://www.w3.org/2000/svg" xmlns:xlink="http://www.w3.org/1999/xlink">
    <!-- Generator: Sketch 49 (51002) - http://www.bohemiancoding.com/sketch -->
    <title>Group 2</title>
    <desc>Created with Sketch.</desc>
    <defs></defs>
    <g id="Page-1" stroke="none" stroke-width="1" fill="none" fill-rule="evenodd">
        <g id="Desktop-HD" transform="translate(-800.000000, -200.000000)">
            <g id="Group-2" transform="translate(800.000000, 200.000000)">
                <g id="Page" transform="translate(300.000000, 0.000000)">
                    <path d="M0,20 L100,20 L100,75 C100,77.7614237 97.7614237,80 95,80 L5,80 C2.23857625,80 3.38176876e-16,77.7614237 0,75 L0,20 Z" id="Rectangle" fill="#EEEEEE"></path>
                    <path d="M5,0 L95,0 C97.7614237,-5.07265313e-16 100,2.23857625 100,5 L100,20 L0,20 L0,5 C-3.38176876e-16,2.23857625 2.23857625,5.07265313e-16 5,0 Z" id="Rectangle" fill="#45AEC6"></path>
                    <path d="M9.14,14.11 C6.98,14.11 6.49,12.28 6.49,10.34 C6.49,8.41 6.97,6.55 9.14,6.55 C11.3,6.55 11.79,8.38 11.79,10.32 C11.79,12.25 11.31,14.11 9.14,14.11 Z M9.14,13.26 C10.65,13.26 10.8,11.76 10.8,10.33 C10.8,8.9 10.65,7.4 9.14,7.4 C7.63,7.4 7.48,8.9 7.48,10.33 C7.48,11.76 7.63,13.26 9.14,13.26 Z M13.17,14 L13.17,12.9 L14.27,12.9 L14.27,14 L13.17,14 Z M18.3,14.11 C16.14,14.11 15.65,12.28 15.65,10.34 C15.65,8.41 16.13,6.55 18.3,6.55 C20.46,6.55 20.95,8.38 20.95,10.32 C20.95,12.25 20.47,14.11 18.3,14.11 Z M18.3,13.26 C19.81,13.26 19.96,11.76 19.96,10.33 C19.96,8.9 19.81,7.4 18.3,7.4 C16.79,7.4 16.64,8.9 16.64,10.33 C16.64,11.76 16.79,13.26 18.3,13.26 Z" id="0.0" fill="#FFFFFF"></path>
                    <path d="M31.735,45.32 L32.765,45.32 L30.485,53 L29.335,53 L27.445,46.71 L27.425,46.71 L25.535,53 L24.375,53 L22.095,45.32 L23.165,45.32 L24.995,51.7 L25.015,51.7 L26.885,45.32 L28.025,45.32 L29.905,51.71 L29.925,51.71 L31.735,45.32 Z M35.945,53.11 C34.265,53.11 33.305,51.87 33.305,50.32 C33.305,48.76 34.265,47.52 35.945,47.52 C37.635,47.52 38.575,48.78 38.575,50.32 C38.575,51.85 37.635,53.11 35.945,53.11 Z M35.935,48.33 C34.825,48.33 34.265,49.25 34.265,50.32 C34.265,51.38 34.825,52.3 35.935,52.3 C37.045,52.3 37.615,51.38 37.615,50.32 C37.615,49.25 37.045,48.33 35.935,48.33 Z M39.805,53 L39.805,47.63 L40.725,47.63 L40.745,48.44 L40.765,48.44 C41.125,47.77 41.625,47.52 42.145,47.52 C42.335,47.52 42.475,47.55 42.595,47.59 L42.595,48.52 C42.505,48.49 42.315,48.45 42.095,48.45 C41.205,48.45 40.755,49.08 40.755,49.74 L40.755,53 L39.805,53 Z M46.925,53 L45.325,50.6 L44.555,50.6 L44.555,53 L43.605,53 L43.605,45.32 L44.555,45.32 L44.555,49.81 L45.375,49.81 L46.855,47.63 L47.985,47.63 L46.155,50.21 L48.075,53 L46.925,53 Z M51.875,53 L51.875,48.42 L50.805,48.42 L50.805,47.63 L51.875,47.63 L51.875,46.73 C51.875,45.74 52.465,45.21 53.485,45.21 C53.725,45.21 53.925,45.24 54.115,45.29 L54.115,46.08 C54.015,46.05 53.845,46.03 53.675,46.03 C53.055,46.03 52.825,46.28 52.825,46.85 L52.825,47.63 L54.115,47.63 L54.115,48.42 L52.825,48.42 L52.825,53 L51.875,53 Z M57.385,53.11 C55.705,53.11 54.745,51.87 54.745,50.32 C54.745,48.76 55.705,47.52 57.385,47.52 C59.075,47.52 60.015,48.78 60.015,50.32 C60.015,51.85 59.075,53.11 57.385,53.11 Z M57.375,48.33 C56.265,48.33 55.705,49.25 55.705,50.32 C55.705,51.38 56.265,52.3 57.375,52.3 C58.485,52.3 59.055,51.38 59.055,50.32 C59.055,49.25 58.485,48.33 57.375,48.33 Z M61.245,53 L61.245,47.63 L62.165,47.63 L62.185,48.44 L62.205,48.44 C62.565,47.77 63.065,47.52 63.585,47.52 C63.775,47.52 63.915,47.55 64.035,47.59 L64.035,48.52 C63.945,48.49 63.755,48.45 63.535,48.45 C62.645,48.45 62.195,49.08 62.195,49.74 L62.195,53 L61.245,53 Z M72.065,47.63 L72.065,53 L71.135,53 L71.125,52.21 L71.105,52.21 C70.755,52.74 70.145,53.11 69.365,53.11 C68.205,53.11 67.475,52.36 67.475,51.23 L67.475,47.63 L68.425,47.63 L68.425,51.04 C68.425,51.74 68.815,52.29 69.645,52.29 C70.545,52.29 71.115,51.67 71.115,50.83 L71.115,47.63 L72.065,47.63 Z M75.395,53.11 C74.445,53.11 73.705,52.83 73.145,52.3 L73.725,51.65 C74.195,52.1 74.785,52.31 75.425,52.31 C76.275,52.31 76.685,52 76.685,51.54 C76.685,51.03 76.145,50.91 75.245,50.72 C74.235,50.5 73.335,50.19 73.335,49.15 C73.335,48.23 74.055,47.52 75.455,47.52 C76.315,47.52 76.985,47.78 77.545,48.29 L76.975,48.94 C76.515,48.52 76.005,48.32 75.425,48.32 C74.675,48.32 74.295,48.64 74.295,49.05 C74.295,49.55 74.775,49.66 75.705,49.86 C76.695,50.08 77.645,50.36 77.645,51.43 C77.645,52.41 76.865,53.11 75.395,53.11 Z" id="Work-for-us" fill="#777777"></path>
                </g>
                <g id="Page-Copy" transform="translate(0.000000, 120.000000)">
                    <path d="M0,20 L100,20 L100,75 C100,77.7614237 97.7614237,80 95,80 L5,80 C2.23857625,80 3.38176876e-16,77.7614237 0,75 L0,20 Z" id="Rectangle" fill="#EEEEEE"></path>
                    <path d="M5,0 L95,0 C97.7614237,-5.07265313e-16 100,2.23857625 100,5 L100,20 L0,20 L0,5 C-3.38176876e-16,2.23857625 2.23857625,5.07265313e-16 5,0 Z" id="Rectangle" fill="#45AEC6"></path>
                    <path d="M7,14 L7,13.13 L8.79,13.13 L8.79,7.88 C8.24,8.21 7.62,8.41 7,8.57 L7,7.7 C7.83,7.45 8.53,7.12 9.1,6.66 L9.78,6.66 L9.78,13.13 L11.56,13.13 L11.56,14 L7,14 Z M13.17,14 L13.17,12.9 L14.27,12.9 L14.27,14 L13.17,14 Z M18.3,14.11 C16.14,14.11 15.65,12.28 15.65,10.34 C15.65,8.41 16.13,6.55 18.3,6.55 C20.46,6.55 20.95,8.38 20.95,10.32 C20.95,12.25 20.47,14.11 18.3,14.11 Z M18.3,13.26 C19.81,13.26 19.96,11.76 19.96,10.33 C19.96,8.9 19.81,7.4 18.3,7.4 C16.79,7.4 16.64,8.9 16.64,10.33 C16.64,11.76 16.79,13.26 18.3,13.26 Z" id="1.0" fill="#FFFFFF"></path>
                    <path d="M34.945,53 L34.115,50.85 L30.695,50.85 L29.875,53 L28.815,53 L31.835,45.32 L33.025,45.32 L36.045,53 L34.945,53 Z M31.025,49.98 L33.775,49.98 L32.405,46.41 L32.385,46.41 L31.025,49.98 Z M39.615,53.11 C38.835,53.11 38.215,52.77 37.815,52.17 L37.795,52.17 L37.755,53 L36.885,53 L36.885,45.32 L37.835,45.32 L37.835,48.48 L37.855,48.48 C38.295,47.85 38.925,47.52 39.675,47.52 C41.175,47.52 42.045,48.77 42.045,50.3 C42.045,51.79 41.145,53.11 39.615,53.11 Z M39.425,52.28 C40.495,52.28 41.085,51.41 41.085,50.31 C41.085,49.3 40.565,48.35 39.435,48.35 C38.305,48.35 37.805,49.33 37.805,50.34 C37.805,51.39 38.335,52.28 39.425,52.28 Z M45.595,53.11 C43.915,53.11 42.955,51.87 42.955,50.32 C42.955,48.76 43.915,47.52 45.595,47.52 C47.285,47.52 48.225,48.78 48.225,50.32 C48.225,51.85 47.285,53.11 45.595,53.11 Z M45.585,48.33 C44.475,48.33 43.915,49.25 43.915,50.32 C43.915,51.38 44.475,52.3 45.585,52.3 C46.695,52.3 47.265,51.38 47.265,50.32 C47.265,49.25 46.695,48.33 45.585,48.33 Z M54.025,47.63 L54.025,53 L53.095,53 L53.085,52.21 L53.065,52.21 C52.715,52.74 52.105,53.11 51.325,53.11 C50.165,53.11 49.435,52.36 49.435,51.23 L49.435,47.63 L50.385,47.63 L50.385,51.04 C50.385,51.74 50.775,52.29 51.605,52.29 C52.505,52.29 53.075,51.67 53.075,50.83 L53.075,47.63 L54.025,47.63 Z M54.915,48.42 L54.915,47.63 L55.985,47.63 L55.985,45.93 L56.935,45.93 L56.935,47.63 L58.225,47.63 L58.225,48.42 L56.935,48.42 L56.935,51.36 C56.935,52 57.105,52.29 57.805,52.29 C57.985,52.29 58.115,52.27 58.225,52.25 L58.225,53.02 C58.015,53.07 57.775,53.11 57.475,53.11 C56.455,53.11 55.985,52.55 55.985,51.6 L55.985,48.42 L54.915,48.42 Z M66.295,47.63 L66.295,53 L65.365,53 L65.355,52.21 L65.335,52.21 C64.985,52.74 64.375,53.11 63.595,53.11 C62.435,53.11 61.705,52.36 61.705,51.23 L61.705,47.63 L62.655,47.63 L62.655,51.04 C62.655,51.74 63.045,52.29 63.875,52.29 C64.775,52.29 65.345,51.67 65.345,50.83 L65.345,47.63 L66.295,47.63 Z M69.625,53.11 C68.675,53.11 67.935,52.83 67.375,52.3 L67.955,51.65 C68.425,52.1 69.015,52.31 69.655,52.31 C70.505,52.31 70.915,52 70.915,51.54 C70.915,51.03 70.375,50.91 69.475,50.72 C68.465,50.5 67.565,50.19 67.565,49.15 C67.565,48.23 68.285,47.52 69.685,47.52 C70.545,47.52 71.215,47.78 71.775,48.29 L71.205,48.94 C70.745,48.52 70.235,48.32 69.655,48.32 C68.905,48.32 68.525,48.64 68.525,49.05 C68.525,49.55 69.005,49.66 69.935,49.86 C70.925,50.08 71.875,50.36 71.875,51.43 C71.875,52.41 71.095,53.11 69.625,53.11 Z" id="About-us" fill="#777777"></path>
                </g>
                <g id="Page-Copy-2" transform="translate(120.000000, 120.000000)">
                    <path d="M0,20 L100,20 L100,75 C100,77.7614237 97.7614237,80 95,80 L5,80 C2.23857625,80 3.38176876e-16,77.7614237 0,75 L0,20 Z" id="Rectangle" fill="#EEEEEE"></path>
                    <path d="M5,0 L95,0 C97.7614237,-5.07265313e-16 100,2.23857625 100,5 L100,20 L0,20 L0,5 C-3.38176876e-16,2.23857625 2.23857625,5.07265313e-16 5,0 Z" id="Rectangle" fill="#45AEC6"></path>
                    <path d="M6.69,14 L6.69,13.29 L9.25,10.73 C9.97,10.02 10.43,9.38 10.43,8.67 C10.43,7.93 9.94,7.42 9,7.42 C8.25,7.42 7.79,7.74 7.38,8.31 L6.67,7.76 C7.21,7.01 7.97,6.55 9.07,6.55 C10.55,6.55 11.42,7.38 11.42,8.6 C11.42,9.39 11.05,10.17 10.25,10.97 L8.1,13.11 L8.1,13.13 L11.57,13.13 L11.57,14 L6.69,14 Z M13.17,14 L13.17,12.9 L14.27,12.9 L14.27,14 L13.17,14 Z M18.3,14.11 C16.14,14.11 15.65,12.28 15.65,10.34 C15.65,8.41 16.13,6.55 18.3,6.55 C20.46,6.55 20.95,8.38 20.95,10.32 C20.95,12.25 20.47,14.11 18.3,14.11 Z M18.3,13.26 C19.81,13.26 19.96,11.76 19.96,10.33 C19.96,8.9 19.81,7.4 18.3,7.4 C16.79,7.4 16.64,8.9 16.64,10.33 C16.64,11.76 16.79,13.26 18.3,13.26 Z" id="2.0" fill="#FFFFFF"></path>
                    <path d="M35.585,53.11 C33.345,53.11 32.055,51.4 32.055,49.16 C32.055,46.92 33.345,45.21 35.555,45.21 C36.885,45.21 37.895,45.84 38.475,46.86 L37.645,47.35 C37.235,46.58 36.555,46.08 35.565,46.08 C33.885,46.08 33.085,47.51 33.085,49.15 C33.085,50.77 33.865,52.24 35.615,52.24 C36.615,52.24 37.305,51.73 37.705,50.99 L38.515,51.45 C37.945,52.46 36.935,53.11 35.585,53.11 Z M43.525,53 L42.595,53 L42.575,52.22 L42.555,52.22 C42.255,52.75 41.705,53.11 40.935,53.11 C39.885,53.11 39.205,52.44 39.205,51.49 C39.205,50.79 39.565,50.32 40.245,50.1 C40.835,49.91 41.705,49.87 42.585,49.84 L42.585,49.36 C42.585,48.81 42.205,48.32 41.395,48.32 C40.715,48.32 40.325,48.64 40.155,49.13 L39.365,48.75 C39.675,47.94 40.445,47.52 41.425,47.52 C42.705,47.52 43.525,48.19 43.525,49.36 L43.525,53 Z M41.155,52.31 C42.025,52.31 42.585,51.65 42.585,50.88 L42.585,50.57 C42.225,50.58 41.665,50.62 41.215,50.68 C40.605,50.76 40.155,50.93 40.155,51.48 C40.155,51.98 40.535,52.31 41.155,52.31 Z M45.085,53 L45.085,47.63 L46.005,47.63 L46.025,48.44 L46.045,48.44 C46.405,47.77 46.905,47.52 47.425,47.52 C47.615,47.52 47.755,47.55 47.875,47.59 L47.875,48.52 C47.785,48.49 47.595,48.45 47.375,48.45 C46.485,48.45 46.035,49.08 46.035,49.74 L46.035,53 L45.085,53 Z M49.495,49.9 L52.475,49.9 C52.415,49.02 51.975,48.32 51.025,48.32 C50.085,48.32 49.585,49 49.495,49.9 Z M52.555,51.65 L53.215,52.24 C52.735,52.8 52.045,53.11 51.185,53.11 C49.495,53.11 48.535,52 48.535,50.31 C48.535,48.69 49.495,47.52 51.045,47.52 C52.585,47.52 53.415,48.67 53.415,50.14 C53.415,50.3 53.405,50.55 53.385,50.69 L49.505,50.69 C49.605,51.71 50.195,52.3 51.195,52.3 C51.785,52.3 52.235,52.08 52.555,51.65 Z M55.215,49.9 L58.195,49.9 C58.135,49.02 57.695,48.32 56.745,48.32 C55.805,48.32 55.305,49 55.215,49.9 Z M58.275,51.65 L58.935,52.24 C58.455,52.8 57.765,53.11 56.905,53.11 C55.215,53.11 54.255,52 54.255,50.31 C54.255,48.69 55.215,47.52 56.765,47.52 C58.305,47.52 59.135,48.67 59.135,50.14 C59.135,50.3 59.125,50.55 59.105,50.69 L55.225,50.69 C55.325,51.71 55.915,52.3 56.915,52.3 C57.505,52.3 57.955,52.08 58.275,51.65 Z M60.325,53 L60.325,47.63 L61.245,47.63 L61.265,48.44 L61.285,48.44 C61.645,47.77 62.145,47.52 62.665,47.52 C62.855,47.52 62.995,47.55 63.115,47.59 L63.115,48.52 C63.025,48.49 62.835,48.45 62.615,48.45 C61.725,48.45 61.275,49.08 61.275,49.74 L61.275,53 L60.325,53 Z M65.875,53.11 C64.925,53.11 64.185,52.83 63.625,52.3 L64.205,51.65 C64.675,52.1 65.265,52.31 65.905,52.31 C66.755,52.31 67.165,52 67.165,51.54 C67.165,51.03 66.625,50.91 65.725,50.72 C64.715,50.5 63.815,50.19 63.815,49.15 C63.815,48.23 64.535,47.52 65.935,47.52 C66.795,47.52 67.465,47.78 68.025,48.29 L67.455,48.94 C66.995,48.52 66.485,48.32 65.905,48.32 C65.155,48.32 64.775,48.64 64.775,49.05 C64.775,49.55 65.255,49.66 66.185,49.86 C67.175,50.08 68.125,50.36 68.125,51.43 C68.125,52.41 67.345,53.11 65.875,53.11 Z" id="Careers" fill="#777777"></path>
                </g>
                <g id="Page-Copy-3" transform="translate(240.000000, 120.000000)">
                    <path d="M0,20 L100,20 L100,75 C100,77.7614237 97.7614237,80 95,80 L5,80 C2.23857625,80 3.38176876e-16,77.7614237 0,75 L0,20 Z" id="Rectangle" fill="#EEEEEE"></path>
                    <path d="M5,0 L95,0 C97.7614237,-5.07265313e-16 100,2.23857625 100,5 L100,20 L0,20 L0,5 C-3.38176876e-16,2.23857625 2.23857625,5.07265313e-16 5,0 Z" id="Rectangle" fill="#45AEC6"></path>
                    <path d="M8.94,14.11 C7.75,14.11 6.88,13.61 6.49,12.94 L7.24,12.41 C7.59,12.96 8.12,13.26 8.93,13.26 C9.99,13.26 10.6,12.74 10.6,11.96 C10.6,11.19 9.96,10.66 8.95,10.66 L8.24,10.66 L8.24,9.82 L8.95,9.82 C9.86,9.82 10.45,9.32 10.45,8.61 C10.45,7.89 9.89,7.4 8.93,7.4 C8.18,7.4 7.69,7.69 7.39,8.18 L6.66,7.66 C7.04,7.04 7.85,6.55 8.96,6.55 C10.48,6.55 11.44,7.39 11.44,8.55 C11.44,9.33 11,9.9 10.26,10.18 L10.26,10.2 C11.13,10.51 11.59,11.14 11.59,11.99 C11.59,13.22 10.58,14.11 8.94,14.11 Z M13.17,14 L13.17,12.9 L14.27,12.9 L14.27,14 L13.17,14 Z M18.3,14.11 C16.14,14.11 15.65,12.28 15.65,10.34 C15.65,8.41 16.13,6.55 18.3,6.55 C20.46,6.55 20.95,8.38 20.95,10.32 C20.95,12.25 20.47,14.11 18.3,14.11 Z M18.3,13.26 C19.81,13.26 19.96,11.76 19.96,10.33 C19.96,8.9 19.81,7.4 18.3,7.4 C16.79,7.4 16.64,8.9 16.64,10.33 C16.64,11.76 16.79,13.26 18.3,13.26 Z" id="3.0" fill="#FFFFFF"></path>
                    <path d="M30.985,47 L25.985,47 L25.985,39.32 L30.915,39.32 L30.915,40.2 L26.985,40.2 L26.985,42.7 L30.425,42.7 L30.425,43.57 L26.985,43.57 L26.985,46.12 L30.985,46.12 L30.985,47 Z M32.105,47 L32.105,41.63 L33.025,41.63 L33.045,42.42 L33.065,42.42 C33.405,41.88 34.005,41.52 34.805,41.52 C35.965,41.52 36.695,42.27 36.695,43.4 L36.695,47 L35.745,47 L35.745,43.59 C35.745,42.89 35.335,42.34 34.525,42.34 C33.625,42.34 33.055,42.96 33.055,43.8 L33.055,47 L32.105,47 Z M37.565,42.42 L37.565,41.63 L38.635,41.63 L38.635,39.93 L39.585,39.93 L39.585,41.63 L40.875,41.63 L40.875,42.42 L39.585,42.42 L39.585,45.36 C39.585,46 39.755,46.29 40.455,46.29 C40.635,46.29 40.765,46.27 40.875,46.25 L40.875,47.02 C40.665,47.07 40.425,47.11 40.125,47.11 C39.105,47.11 38.635,46.55 38.635,45.6 L38.635,42.42 L37.565,42.42 Z M41.925,47 L41.925,41.63 L42.845,41.63 L42.865,42.44 L42.885,42.44 C43.245,41.77 43.745,41.52 44.265,41.52 C44.455,41.52 44.595,41.55 44.715,41.59 L44.715,42.52 C44.625,42.49 44.435,42.45 44.215,42.45 C43.325,42.45 42.875,43.08 42.875,43.74 L42.875,47 L41.925,47 Z M49.305,41.63 L50.305,41.63 L48.025,47.41 C47.565,48.58 47.095,48.94 46.295,48.94 C46.015,48.94 45.805,48.89 45.645,48.83 L45.645,48.06 C45.765,48.1 45.905,48.13 46.095,48.13 C46.625,48.13 46.945,47.92 47.195,47.14 L47.215,47.08 L45.065,41.63 L46.105,41.63 L47.685,45.91 L47.705,45.91 L49.305,41.63 Z M54.625,47 L53.675,47 L53.675,39.32 L54.625,39.32 L54.625,47 Z M56.815,43.9 L59.795,43.9 C59.735,43.02 59.295,42.32 58.345,42.32 C57.405,42.32 56.905,43 56.815,43.9 Z M59.875,45.65 L60.535,46.24 C60.055,46.8 59.365,47.11 58.505,47.11 C56.815,47.11 55.855,46 55.855,44.31 C55.855,42.69 56.815,41.52 58.365,41.52 C59.905,41.52 60.735,42.67 60.735,44.14 C60.735,44.3 60.725,44.55 60.705,44.69 L56.825,44.69 C56.925,45.71 57.515,46.3 58.515,46.3 C59.105,46.3 59.555,46.08 59.875,45.65 Z M65.505,41.63 L66.505,41.63 L64.385,47 L63.375,47 L61.265,41.63 L62.305,41.63 L63.885,45.91 L63.905,45.91 L65.505,41.63 Z M68.035,43.9 L71.015,43.9 C70.955,43.02 70.515,42.32 69.565,42.32 C68.625,42.32 68.125,43 68.035,43.9 Z M71.095,45.65 L71.755,46.24 C71.275,46.8 70.585,47.11 69.725,47.11 C68.035,47.11 67.075,46 67.075,44.31 C67.075,42.69 68.035,41.52 69.585,41.52 C71.125,41.52 71.955,42.67 71.955,44.14 C71.955,44.3 71.945,44.55 71.925,44.69 L68.045,44.69 C68.145,45.71 68.735,46.3 69.735,46.3 C70.325,46.3 70.775,46.08 71.095,45.65 Z M74.095,47 L73.145,47 L73.145,39.32 L74.095,39.32 L74.095,47 Z M20.825,59.11 C19.145,59.11 18.185,57.87 18.185,56.32 C18.185,54.76 19.145,53.52 20.825,53.52 C22.515,53.52 23.455,54.78 23.455,56.32 C23.455,57.85 22.515,59.11 20.825,59.11 Z M20.815,54.33 C19.705,54.33 19.145,55.25 19.145,56.32 C19.145,57.38 19.705,58.3 20.815,58.3 C21.925,58.3 22.495,57.38 22.495,56.32 C22.495,55.25 21.925,54.33 20.815,54.33 Z M27.425,59.11 C26.655,59.11 26.065,58.8 25.655,58.22 L25.635,58.22 L25.635,60.83 L24.685,60.83 L24.685,53.63 L25.605,53.63 L25.625,54.48 L25.645,54.48 C26.055,53.87 26.715,53.52 27.465,53.52 C28.955,53.52 29.845,54.73 29.845,56.29 C29.845,57.83 28.925,59.11 27.425,59.11 Z M27.225,58.28 C28.315,58.28 28.885,57.38 28.885,56.31 C28.885,55.3 28.375,54.35 27.235,54.35 C26.165,54.35 25.605,55.27 25.605,56.34 C25.605,57.44 26.185,58.28 27.225,58.28 Z M33.845,59.11 C33.075,59.11 32.485,58.8 32.075,58.22 L32.055,58.22 L32.055,60.83 L31.105,60.83 L31.105,53.63 L32.025,53.63 L32.045,54.48 L32.065,54.48 C32.475,53.87 33.135,53.52 33.885,53.52 C35.375,53.52 36.265,54.73 36.265,56.29 C36.265,57.83 35.345,59.11 33.845,59.11 Z M33.645,58.28 C34.735,58.28 35.305,57.38 35.305,56.31 C35.305,55.3 34.795,54.35 33.655,54.35 C32.585,54.35 32.025,55.27 32.025,56.34 C32.025,57.44 32.605,58.28 33.645,58.28 Z M39.815,59.11 C38.135,59.11 37.175,57.87 37.175,56.32 C37.175,54.76 38.135,53.52 39.815,53.52 C41.505,53.52 42.445,54.78 42.445,56.32 C42.445,57.85 41.505,59.11 39.815,59.11 Z M39.805,54.33 C38.695,54.33 38.135,55.25 38.135,56.32 C38.135,57.38 38.695,58.3 39.805,58.3 C40.915,58.3 41.485,57.38 41.485,56.32 C41.485,55.25 40.915,54.33 39.805,54.33 Z M43.675,59 L43.675,53.63 L44.595,53.63 L44.615,54.44 L44.635,54.44 C44.995,53.77 45.495,53.52 46.015,53.52 C46.205,53.52 46.345,53.55 46.465,53.59 L46.465,54.52 C46.375,54.49 46.185,54.45 45.965,54.45 C45.075,54.45 44.625,55.08 44.625,55.74 L44.625,59 L43.675,59 Z M46.785,54.42 L46.785,53.63 L47.855,53.63 L47.855,51.93 L48.805,51.93 L48.805,53.63 L50.095,53.63 L50.095,54.42 L48.805,54.42 L48.805,57.36 C48.805,58 48.975,58.29 49.675,58.29 C49.855,58.29 49.985,58.27 50.095,58.25 L50.095,59.02 C49.885,59.07 49.645,59.11 49.345,59.11 C48.325,59.11 47.855,58.55 47.855,57.6 L47.855,54.42 L46.785,54.42 Z M55.715,53.63 L55.715,59 L54.785,59 L54.775,58.21 L54.755,58.21 C54.405,58.74 53.795,59.11 53.015,59.11 C51.855,59.11 51.125,58.36 51.125,57.23 L51.125,53.63 L52.075,53.63 L52.075,57.04 C52.075,57.74 52.465,58.29 53.295,58.29 C54.195,58.29 54.765,57.67 54.765,56.83 L54.765,53.63 L55.715,53.63 Z M57.295,59 L57.295,53.63 L58.215,53.63 L58.235,54.42 L58.255,54.42 C58.595,53.88 59.195,53.52 59.995,53.52 C61.155,53.52 61.885,54.27 61.885,55.4 L61.885,59 L60.935,59 L60.935,55.59 C60.935,54.89 60.525,54.34 59.715,54.34 C58.815,54.34 58.245,54.96 58.245,55.8 L58.245,59 L57.295,59 Z M63.405,52.35 L63.405,51.32 L64.435,51.32 L64.435,52.35 L63.405,52.35 Z M64.395,59 L63.445,59 L63.445,53.63 L64.395,53.63 L64.395,59 Z M65.285,54.42 L65.285,53.63 L66.355,53.63 L66.355,51.93 L67.305,51.93 L67.305,53.63 L68.595,53.63 L68.595,54.42 L67.305,54.42 L67.305,57.36 C67.305,58 67.475,58.29 68.175,58.29 C68.355,58.29 68.485,58.27 68.595,58.25 L68.595,59.02 C68.385,59.07 68.145,59.11 67.845,59.11 C66.825,59.11 66.355,58.55 66.355,57.6 L66.355,54.42 L65.285,54.42 Z M69.605,52.35 L69.605,51.32 L70.635,51.32 L70.635,52.35 L69.605,52.35 Z M70.595,59 L69.645,59 L69.645,53.63 L70.595,53.63 L70.595,59 Z M72.785,55.9 L75.765,55.9 C75.705,55.02 75.265,54.32 74.315,54.32 C73.375,54.32 72.875,55 72.785,55.9 Z M75.845,57.65 L76.505,58.24 C76.025,58.8 75.335,59.11 74.475,59.11 C72.785,59.11 71.825,58 71.825,56.31 C71.825,54.69 72.785,53.52 74.335,53.52 C75.875,53.52 76.705,54.67 76.705,56.14 C76.705,56.3 76.695,56.55 76.675,56.69 L72.795,56.69 C72.895,57.71 73.485,58.3 74.485,58.3 C75.075,58.3 75.525,58.08 75.845,57.65 Z M79.645,59.11 C78.695,59.11 77.955,58.83 77.395,58.3 L77.975,57.65 C78.445,58.1 79.035,58.31 79.675,58.31 C80.525,58.31 80.935,58 80.935,57.54 C80.935,57.03 80.395,56.91 79.495,56.72 C78.485,56.5 77.585,56.19 77.585,55.15 C77.585,54.23 78.305,53.52 79.705,53.52 C80.565,53.52 81.235,53.78 81.795,54.29 L81.225,54.94 C80.765,54.52 80.255,54.32 79.675,54.32 C78.925,54.32 78.545,54.64 78.545,55.05 C78.545,55.55 79.025,55.66 79.955,55.86 C80.945,56.08 81.895,56.36 81.895,57.43 C81.895,58.41 81.115,59.11 79.645,59.11 Z" id="Entry-level-opportun" fill="#777777"></path>
                </g>
                <g id="Page-Copy-4" transform="translate(360.000000, 120.000000)">
                    <path d="M0,20 L100,20 L100,75 C100,77.7614237 97.7614237,80 95,80 L5,80 C2.23857625,80 3.38176876e-16,77.7614237 0,75 L0,20 Z" id="Rectangle" fill="#EEEEEE"></path>
                    <path d="M5,0 L95,0 C97.7614237,-5.07265313e-16 100,2.23857625 100,5 L100,20 L0,20 L0,5 C-3.38176876e-16,2.23857625 2.23857625,5.07265313e-16 5,0 Z" id="Rectangle" fill="#45AEC6"></path>
                    <path d="M12.16,11.48 L12.16,12.32 L10.82,12.32 L10.82,14 L9.84,14 L9.84,12.32 L6.14,12.32 L6.14,11.59 L9.58,6.66 L10.82,6.66 L10.82,11.48 L12.16,11.48 Z M7.21,11.48 L9.84,11.48 L9.84,7.75 L9.82,7.75 L7.21,11.48 Z M13.17,14 L13.17,12.9 L14.27,12.9 L14.27,14 L13.17,14 Z M18.3,14.11 C16.14,14.11 15.65,12.28 15.65,10.34 C15.65,8.41 16.13,6.55 18.3,6.55 C20.46,6.55 20.95,8.38 20.95,10.32 C20.95,12.25 20.47,14.11 18.3,14.11 Z M18.3,13.26 C19.81,13.26 19.96,11.76 19.96,10.33 C19.96,8.9 19.81,7.4 18.3,7.4 C16.79,7.4 16.64,8.9 16.64,10.33 C16.64,11.76 16.79,13.26 18.3,13.26 Z" id="4.0" fill="#FFFFFF"></path>
                    <path d="M38.48,53 L37.47,53 L37.47,45.32 L42.39,45.32 L42.39,46.2 L38.48,46.2 L38.48,48.8 L41.9,48.8 L41.9,49.67 L38.48,49.67 L38.48,53 Z M48.85,53 L48.02,50.85 L44.6,50.85 L43.78,53 L42.72,53 L45.74,45.32 L46.93,45.32 L49.95,53 L48.85,53 Z M44.93,49.98 L47.68,49.98 L46.31,46.41 L46.29,46.41 L44.93,49.98 Z M55.77,54.48 L54.93,53.03 C54.69,53.08 54.41,53.11 54.13,53.11 C51.83,53.11 50.54,51.38 50.54,49.16 C50.54,47 51.79,45.21 54.13,45.21 C56.43,45.21 57.72,46.94 57.72,49.15 C57.72,50.69 57.09,52.03 55.9,52.69 L56.98,54.48 L55.77,54.48 Z M51.57,49.16 C51.57,50.76 52.38,52.24 54.14,52.24 C55.87,52.24 56.69,50.8 56.69,49.16 C56.69,47.56 55.89,46.08 54.12,46.08 C52.4,46.08 51.57,47.52 51.57,49.16 Z M60.79,53.11 C59.84,53.11 59.1,52.83 58.54,52.3 L59.12,51.65 C59.59,52.1 60.18,52.31 60.82,52.31 C61.67,52.31 62.08,52 62.08,51.54 C62.08,51.03 61.54,50.91 60.64,50.72 C59.63,50.5 58.73,50.19 58.73,49.15 C58.73,48.23 59.45,47.52 60.85,47.52 C61.71,47.52 62.38,47.78 62.94,48.29 L62.37,48.94 C61.91,48.52 61.4,48.32 60.82,48.32 C60.07,48.32 59.69,48.64 59.69,49.05 C59.69,49.55 60.17,49.66 61.1,49.86 C62.09,50.08 63.04,50.36 63.04,51.43 C63.04,52.41 62.26,53.11 60.79,53.11 Z" id="FAQs" fill="#777777"></path>
                </g>
                <g id="Page-Copy-5" transform="translate(480.000000, 120.000000)">
                    <path d="M0,20 L100,20 L100,75 C100,77.7614237 97.7614237,80 95,80 L5,80 C2.23857625,80 3.38176876e-16,77.7614237 0,75 L0,20 Z" id="Rectangle" fill="#EEEEEE"></path>
                    <path d="M5,0 L95,0 C97.7614237,-5.07265313e-16 100,2.23857625 100,5 L100,20 L0,20 L0,5 C-3.38176876e-16,2.23857625 2.23857625,5.07265313e-16 5,0 Z" id="Rectangle" fill="#45AEC6"></path>
                    <path d="M8.18,7.53 L8.02,9.6 C8.3,9.48 8.64,9.4 9.09,9.4 C10.58,9.4 11.65,10.31 11.65,11.74 C11.65,13.14 10.61,14.11 8.95,14.11 C7.85,14.11 7.04,13.68 6.59,13.1 L7.29,12.47 C7.68,12.98 8.21,13.26 8.97,13.26 C10.03,13.26 10.66,12.68 10.66,11.76 C10.66,10.86 10,10.24 8.91,10.24 C8.4,10.24 8.04,10.38 7.73,10.56 L6.98,10.56 L7.29,6.66 L11.23,6.66 L11.23,7.53 L8.18,7.53 Z M13.17,14 L13.17,12.9 L14.27,12.9 L14.27,14 L13.17,14 Z M18.3,14.11 C16.14,14.11 15.65,12.28 15.65,10.34 C15.65,8.41 16.13,6.55 18.3,6.55 C20.46,6.55 20.95,8.38 20.95,10.32 C20.95,12.25 20.47,14.11 18.3,14.11 Z M18.3,13.26 C19.81,13.26 19.96,11.76 19.96,10.33 C19.96,8.9 19.81,7.4 18.3,7.4 C16.79,7.4 16.64,8.9 16.64,10.33 C16.64,11.76 16.79,13.26 18.3,13.26 Z" id="5.0" fill="#FFFFFF"></path>
                    <path d="M27.53,53 L27.53,45.32 L28.54,45.32 L28.54,52.12 L32.45,52.12 L32.45,53 L27.53,53 Z M35.67,53.11 C33.99,53.11 33.03,51.87 33.03,50.32 C33.03,48.76 33.99,47.52 35.67,47.52 C37.36,47.52 38.3,48.78 38.3,50.32 C38.3,51.85 37.36,53.11 35.67,53.11 Z M35.66,48.33 C34.55,48.33 33.99,49.25 33.99,50.32 C33.99,51.38 34.55,52.3 35.66,52.3 C36.77,52.3 37.34,51.38 37.34,50.32 C37.34,49.25 36.77,48.33 35.66,48.33 Z M41.8,53.11 C40.15,53.11 39.19,51.92 39.19,50.34 C39.19,48.75 40.14,47.52 41.79,47.52 C42.81,47.52 43.53,48.01 43.94,48.78 L43.15,49.23 C42.88,48.71 42.45,48.33 41.77,48.33 C40.72,48.33 40.15,49.21 40.15,50.32 C40.15,51.4 40.7,52.3 41.83,52.3 C42.54,52.3 42.97,51.94 43.23,51.43 L43.98,51.86 C43.6,52.61 42.84,53.11 41.8,53.11 Z M48.92,53 L47.99,53 L47.97,52.22 L47.95,52.22 C47.65,52.75 47.1,53.11 46.33,53.11 C45.28,53.11 44.6,52.44 44.6,51.49 C44.6,50.79 44.96,50.32 45.64,50.1 C46.23,49.91 47.1,49.87 47.98,49.84 L47.98,49.36 C47.98,48.81 47.6,48.32 46.79,48.32 C46.11,48.32 45.72,48.64 45.55,49.13 L44.76,48.75 C45.07,47.94 45.84,47.52 46.82,47.52 C48.1,47.52 48.92,48.19 48.92,49.36 L48.92,53 Z M46.55,52.31 C47.42,52.31 47.98,51.65 47.98,50.88 L47.98,50.57 C47.62,50.58 47.06,50.62 46.61,50.68 C46,50.76 45.55,50.93 45.55,51.48 C45.55,51.98 45.93,52.31 46.55,52.31 Z M49.79,48.42 L49.79,47.63 L50.86,47.63 L50.86,45.93 L51.81,45.93 L51.81,47.63 L53.1,47.63 L53.1,48.42 L51.81,48.42 L51.81,51.36 C51.81,52 51.98,52.29 52.68,52.29 C52.86,52.29 52.99,52.27 53.1,52.25 L53.1,53.02 C52.89,53.07 52.65,53.11 52.35,53.11 C51.33,53.11 50.86,52.55 50.86,51.6 L50.86,48.42 L49.79,48.42 Z M54.11,46.35 L54.11,45.32 L55.14,45.32 L55.14,46.35 L54.11,46.35 Z M55.1,53 L54.15,53 L54.15,47.63 L55.1,47.63 L55.1,53 Z M58.97,53.11 C57.29,53.11 56.33,51.87 56.33,50.32 C56.33,48.76 57.29,47.52 58.97,47.52 C60.66,47.52 61.6,48.78 61.6,50.32 C61.6,51.85 60.66,53.11 58.97,53.11 Z M58.96,48.33 C57.85,48.33 57.29,49.25 57.29,50.32 C57.29,51.38 57.85,52.3 58.96,52.3 C60.07,52.3 60.64,51.38 60.64,50.32 C60.64,49.25 60.07,48.33 58.96,48.33 Z M62.83,53 L62.83,47.63 L63.75,47.63 L63.77,48.42 L63.79,48.42 C64.13,47.88 64.73,47.52 65.53,47.52 C66.69,47.52 67.42,48.27 67.42,49.4 L67.42,53 L66.47,53 L66.47,49.59 C66.47,48.89 66.06,48.34 65.25,48.34 C64.35,48.34 63.78,48.96 63.78,49.8 L63.78,53 L62.83,53 Z M70.73,53.11 C69.78,53.11 69.04,52.83 68.48,52.3 L69.06,51.65 C69.53,52.1 70.12,52.31 70.76,52.31 C71.61,52.31 72.02,52 72.02,51.54 C72.02,51.03 71.48,50.91 70.58,50.72 C69.57,50.5 68.67,50.19 68.67,49.15 C68.67,48.23 69.39,47.52 70.79,47.52 C71.65,47.52 72.32,47.78 72.88,48.29 L72.31,48.94 C71.85,48.52 71.34,48.32 70.76,48.32 C70.01,48.32 69.63,48.64 69.63,49.05 C69.63,49.55 70.11,49.66 71.04,49.86 C72.03,50.08 72.98,50.36 72.98,51.43 C72.98,52.41 72.2,53.11 70.73,53.11 Z" id="Locations" fill="#777777"></path>
                </g>
                <g id="Page-Copy-6" transform="translate(600.000000, 120.000000)">
                    <path d="M0,20 L100,20 L100,75 C100,77.7614237 97.7614237,80 95,80 L5,80 C2.23857625,80 3.38176876e-16,77.7614237 0,75 L0,20 Z" id="Rectangle" fill="#EEEEEE"></path>
                    <path d="M5,0 L95,0 C97.7614237,-5.07265313e-16 100,2.23857625 100,5 L100,20 L0,20 L0,5 C-3.38176876e-16,2.23857625 2.23857625,5.07265313e-16 5,0 Z" id="Rectangle" fill="#45AEC6"></path>
                    <path d="M11.48,6.92 L11.12,7.72 C10.75,7.5 10.3,7.4 9.85,7.4 C8.31,7.4 7.63,8.61 7.52,10.28 L7.54,10.28 C7.98,9.69 8.76,9.4 9.53,9.4 C10.98,9.4 11.9,10.4 11.9,11.73 C11.9,13.13 10.89,14.11 9.29,14.11 C7.2,14.11 6.55,12.42 6.55,10.64 C6.55,8.61 7.4,6.55 9.87,6.55 C10.51,6.55 11.04,6.69 11.48,6.92 Z M9.34,13.27 C10.34,13.27 10.92,12.64 10.92,11.76 C10.92,10.91 10.38,10.23 9.32,10.23 C8.46,10.23 7.66,10.69 7.66,11.61 C7.66,12.3 8.11,13.27 9.34,13.27 Z M13.17,14 L13.17,12.9 L14.27,12.9 L14.27,14 L13.17,14 Z M18.3,14.11 C16.14,14.11 15.65,12.28 15.65,10.34 C15.65,8.41 16.13,6.55 18.3,6.55 C20.46,6.55 20.95,8.38 20.95,10.32 C20.95,12.25 20.47,14.11 18.3,14.11 Z M18.3,13.26 C19.81,13.26 19.96,11.76 19.96,10.33 C19.96,8.9 19.81,7.4 18.3,7.4 C16.79,7.4 16.64,8.9 16.64,10.33 C16.64,11.76 16.79,13.26 18.3,13.26 Z" id="6.0" fill="#FFFFFF"></path>
                    <path d="M25.32,47.11 C24.14,47.11 23.12,46.72 22.43,45.9 L23.18,45.25 C23.68,45.88 24.45,46.24 25.31,46.24 C26.58,46.24 27.11,45.72 27.11,44.95 C27.11,44.13 26.39,43.89 25.2,43.59 C23.93,43.27 22.68,42.89 22.68,41.42 C22.68,40.09 23.71,39.21 25.39,39.21 C26.47,39.21 27.39,39.6 28.03,40.4 L27.27,41.03 C26.87,40.47 26.26,40.08 25.38,40.08 C24.27,40.08 23.71,40.61 23.71,41.32 C23.71,42.14 24.44,42.33 25.6,42.64 C26.93,43 28.14,43.39 28.14,44.85 C28.14,46.21 27.11,47.11 25.32,47.11 Z M29.95,43.9 L32.93,43.9 C32.87,43.02 32.43,42.32 31.48,42.32 C30.54,42.32 30.04,43 29.95,43.9 Z M33.01,45.65 L33.67,46.24 C33.19,46.8 32.5,47.11 31.64,47.11 C29.95,47.11 28.99,46 28.99,44.31 C28.99,42.69 29.95,41.52 31.5,41.52 C33.04,41.52 33.87,42.67 33.87,44.14 C33.87,44.3 33.86,44.55 33.84,44.69 L29.96,44.69 C30.06,45.71 30.65,46.3 31.65,46.3 C32.24,46.3 32.69,46.08 33.01,45.65 Z M39.08,47 L38.15,47 L38.13,46.22 L38.11,46.22 C37.81,46.75 37.26,47.11 36.49,47.11 C35.44,47.11 34.76,46.44 34.76,45.49 C34.76,44.79 35.12,44.32 35.8,44.1 C36.39,43.91 37.26,43.87 38.14,43.84 L38.14,43.36 C38.14,42.81 37.76,42.32 36.95,42.32 C36.27,42.32 35.88,42.64 35.71,43.13 L34.92,42.75 C35.23,41.94 36,41.52 36.98,41.52 C38.26,41.52 39.08,42.19 39.08,43.36 L39.08,47 Z M36.71,46.31 C37.58,46.31 38.14,45.65 38.14,44.88 L38.14,44.57 C37.78,44.58 37.22,44.62 36.77,44.68 C36.16,44.76 35.71,44.93 35.71,45.48 C35.71,45.98 36.09,46.31 36.71,46.31 Z M40.64,47 L40.64,41.63 L41.56,41.63 L41.58,42.44 L41.6,42.44 C41.96,41.77 42.46,41.52 42.98,41.52 C43.17,41.52 43.31,41.55 43.43,41.59 L43.43,42.52 C43.34,42.49 43.15,42.45 42.93,42.45 C42.04,42.45 41.59,43.08 41.59,43.74 L41.59,47 L40.64,47 Z M46.71,47.11 C45.06,47.11 44.1,45.92 44.1,44.34 C44.1,42.75 45.05,41.52 46.7,41.52 C47.72,41.52 48.44,42.01 48.85,42.78 L48.06,43.23 C47.79,42.71 47.36,42.33 46.68,42.33 C45.63,42.33 45.06,43.21 45.06,44.32 C45.06,45.4 45.61,46.3 46.74,46.3 C47.45,46.3 47.88,45.94 48.14,45.43 L48.89,45.86 C48.51,46.61 47.75,47.11 46.71,47.11 Z M49.81,47 L49.81,39.32 L50.76,39.32 L50.76,42.4 L50.78,42.4 C51.14,41.85 51.74,41.52 52.51,41.52 C53.67,41.52 54.4,42.27 54.4,43.4 L54.4,47 L53.45,47 L53.45,43.59 C53.45,42.89 53.04,42.34 52.23,42.34 C51.33,42.34 50.76,42.96 50.76,43.8 L50.76,47 L49.81,47 Z M58.37,40.35 L58.37,39.32 L59.4,39.32 L59.4,40.35 L58.37,40.35 Z M57.54,48.87 L57.54,48.1 C57.62,48.12 57.73,48.13 57.82,48.13 C58.26,48.13 58.41,47.89 58.41,47.49 L58.41,41.63 L59.36,41.63 L59.36,47.61 C59.36,48.43 58.97,48.94 58.08,48.94 C57.88,48.94 57.68,48.91 57.54,48.87 Z M63.23,47.11 C61.55,47.11 60.59,45.87 60.59,44.32 C60.59,42.76 61.55,41.52 63.23,41.52 C64.92,41.52 65.86,42.78 65.86,44.32 C65.86,45.85 64.92,47.11 63.23,47.11 Z M63.22,42.33 C62.11,42.33 61.55,43.25 61.55,44.32 C61.55,45.38 62.11,46.3 63.22,46.3 C64.33,46.3 64.9,45.38 64.9,44.32 C64.9,43.25 64.33,42.33 63.22,42.33 Z M69.82,47.11 C69.04,47.11 68.42,46.77 68.02,46.17 L68,46.17 L67.96,47 L67.09,47 L67.09,39.32 L68.04,39.32 L68.04,42.48 L68.06,42.48 C68.5,41.85 69.13,41.52 69.88,41.52 C71.38,41.52 72.25,42.77 72.25,44.3 C72.25,45.79 71.35,47.11 69.82,47.11 Z M69.63,46.28 C70.7,46.28 71.29,45.41 71.29,44.31 C71.29,43.3 70.77,42.35 69.64,42.35 C68.51,42.35 68.01,43.33 68.01,44.34 C68.01,45.39 68.54,46.28 69.63,46.28 Z M75.26,47.11 C74.31,47.11 73.57,46.83 73.01,46.3 L73.59,45.65 C74.06,46.1 74.65,46.31 75.29,46.31 C76.14,46.31 76.55,46 76.55,45.54 C76.55,45.03 76.01,44.91 75.11,44.72 C74.1,44.5 73.2,44.19 73.2,43.15 C73.2,42.23 73.92,41.52 75.32,41.52 C76.18,41.52 76.85,41.78 77.41,42.29 L76.84,42.94 C76.38,42.52 75.87,42.32 75.29,42.32 C74.54,42.32 74.16,42.64 74.16,43.05 C74.16,43.55 74.64,43.66 75.57,43.86 C76.56,44.08 77.51,44.36 77.51,45.43 C77.51,46.41 76.73,47.11 75.26,47.11 Z M31.285,59 L30.355,59 L30.335,58.22 L30.315,58.22 C30.015,58.75 29.465,59.11 28.695,59.11 C27.645,59.11 26.965,58.44 26.965,57.49 C26.965,56.79 27.325,56.32 28.005,56.1 C28.595,55.91 29.465,55.87 30.345,55.84 L30.345,55.36 C30.345,54.81 29.965,54.32 29.155,54.32 C28.475,54.32 28.085,54.64 27.915,55.13 L27.125,54.75 C27.435,53.94 28.205,53.52 29.185,53.52 C30.465,53.52 31.285,54.19 31.285,55.36 L31.285,59 Z M28.915,58.31 C29.785,58.31 30.345,57.65 30.345,56.88 L30.345,56.57 C29.985,56.58 29.425,56.62 28.975,56.68 C28.365,56.76 27.915,56.93 27.915,57.48 C27.915,57.98 28.295,58.31 28.915,58.31 Z M32.845,59 L32.845,53.63 L33.765,53.63 L33.785,54.42 L33.805,54.42 C34.145,53.88 34.745,53.52 35.545,53.52 C36.705,53.52 37.435,54.27 37.435,55.4 L37.435,59 L36.485,59 L36.485,55.59 C36.485,54.89 36.075,54.34 35.265,54.34 C34.365,54.34 33.795,54.96 33.795,55.8 L33.795,59 L32.845,59 Z M41.065,59.11 C39.555,59.11 38.675,57.86 38.675,56.36 C38.675,54.78 39.605,53.52 41.115,53.52 C41.825,53.52 42.445,53.83 42.865,54.41 L42.885,54.41 L42.885,51.32 L43.835,51.32 L43.835,59 L42.905,59 L42.895,58.13 L42.875,58.13 C42.425,58.78 41.785,59.11 41.065,59.11 Z M41.235,58.28 C42.295,58.28 42.915,57.45 42.915,56.31 C42.915,55.13 42.295,54.35 41.265,54.35 C40.145,54.35 39.635,55.3 39.635,56.33 C39.635,57.33 40.145,58.28 41.235,58.28 Z M51.885,59 L50.955,59 L50.935,58.22 L50.915,58.22 C50.615,58.75 50.065,59.11 49.295,59.11 C48.245,59.11 47.565,58.44 47.565,57.49 C47.565,56.79 47.925,56.32 48.605,56.1 C49.195,55.91 50.065,55.87 50.945,55.84 L50.945,55.36 C50.945,54.81 50.565,54.32 49.755,54.32 C49.075,54.32 48.685,54.64 48.515,55.13 L47.725,54.75 C48.035,53.94 48.805,53.52 49.785,53.52 C51.065,53.52 51.885,54.19 51.885,55.36 L51.885,59 Z M49.515,58.31 C50.385,58.31 50.945,57.65 50.945,56.88 L50.945,56.57 C50.585,56.58 50.025,56.62 49.575,56.68 C48.965,56.76 48.515,56.93 48.515,57.48 C48.515,57.98 48.895,58.31 49.515,58.31 Z M56.185,59.11 C55.415,59.11 54.825,58.8 54.415,58.22 L54.395,58.22 L54.395,60.83 L53.445,60.83 L53.445,53.63 L54.365,53.63 L54.385,54.48 L54.405,54.48 C54.815,53.87 55.475,53.52 56.225,53.52 C57.715,53.52 58.605,54.73 58.605,56.29 C58.605,57.83 57.685,59.11 56.185,59.11 Z M55.985,58.28 C57.075,58.28 57.645,57.38 57.645,56.31 C57.645,55.3 57.135,54.35 55.995,54.35 C54.925,54.35 54.365,55.27 54.365,56.34 C54.365,57.44 54.945,58.28 55.985,58.28 Z M62.605,59.11 C61.835,59.11 61.245,58.8 60.835,58.22 L60.815,58.22 L60.815,60.83 L59.865,60.83 L59.865,53.63 L60.785,53.63 L60.805,54.48 L60.825,54.48 C61.235,53.87 61.895,53.52 62.645,53.52 C64.135,53.52 65.025,54.73 65.025,56.29 C65.025,57.83 64.105,59.11 62.605,59.11 Z M62.405,58.28 C63.495,58.28 64.065,57.38 64.065,56.31 C64.065,55.3 63.555,54.35 62.415,54.35 C61.345,54.35 60.785,55.27 60.785,56.34 C60.785,57.44 61.365,58.28 62.405,58.28 Z M67.235,59 L66.285,59 L66.285,51.32 L67.235,51.32 L67.235,59 Z M72.395,53.63 L73.395,53.63 L71.115,59.41 C70.655,60.58 70.185,60.94 69.385,60.94 C69.105,60.94 68.895,60.89 68.735,60.83 L68.735,60.06 C68.855,60.1 68.995,60.13 69.185,60.13 C69.715,60.13 70.035,59.92 70.285,59.14 L70.305,59.08 L68.155,53.63 L69.195,53.63 L70.775,57.91 L70.795,57.91 L72.395,53.63 Z" id="Search-jobs-and-appl" fill="#777777"></path>
                </g>
                <g id="Page-Copy-10" transform="translate(250.000000, 220.000000)">
                    <path d="M0,20 L90,20 L90,75 C90,77.7614237 87.7614237,80 85,80 L5,80 C2.23857625,80 3.38176876e-16,77.7614237 0,75 L0,20 Z" id="Rectangle" fill="#EEEEEE"></path>
                    <path d="M5,0 L85,0 C87.7614237,-5.07265313e-16 90,2.23857625 90,5 L90,20 L0,20 L0,5 C-3.38176876e-16,2.23857625 2.23857625,5.07265313e-16 5,0 Z" id="Rectangle" fill="#45AEC6"></path>
                    <path d="M8.94,14.11 C7.75,14.11 6.88,13.61 6.49,12.94 L7.24,12.41 C7.59,12.96 8.12,13.26 8.93,13.26 C9.99,13.26 10.6,12.74 10.6,11.96 C10.6,11.19 9.96,10.66 8.95,10.66 L8.24,10.66 L8.24,9.82 L8.95,9.82 C9.86,9.82 10.45,9.32 10.45,8.61 C10.45,7.89 9.89,7.4 8.93,7.4 C8.18,7.4 7.69,7.69 7.39,8.18 L6.66,7.66 C7.04,7.04 7.85,6.55 8.96,6.55 C10.48,6.55 11.44,7.39 11.44,8.55 C11.44,9.33 11,9.9 10.26,10.18 L10.26,10.2 C11.13,10.51 11.59,11.14 11.59,11.99 C11.59,13.22 10.58,14.11 8.94,14.11 Z M13.17,14 L13.17,12.9 L14.27,12.9 L14.27,14 L13.17,14 Z M16.16,14 L16.16,13.13 L17.95,13.13 L17.95,7.88 C17.4,8.21 16.78,8.41 16.16,8.57 L16.16,7.7 C16.99,7.45 17.69,7.12 18.26,6.66 L18.94,6.66 L18.94,13.13 L20.72,13.13 L20.72,14 L16.16,14 Z" id="3.1" fill="#FFFFFF"></path>
                    <path d="M24.285,48.99 L27.205,48.99 L27.205,53 L26.265,53 L26.255,51.93 L26.235,51.93 C25.855,52.61 25.045,53.11 23.935,53.11 C21.785,53.11 20.515,51.41 20.515,49.22 C20.515,47 21.795,45.21 24.115,45.21 C25.455,45.21 26.485,45.81 27.125,46.81 L26.305,47.33 C25.855,46.56 25.125,46.08 24.125,46.08 C22.475,46.08 21.545,47.39 21.545,49.19 C21.545,51.04 22.485,52.24 24.095,52.24 C25.385,52.24 26.225,51.46 26.225,50.16 C26.225,50.04 26.225,49.93 26.205,49.84 L24.285,49.84 L24.285,48.99 Z M28.745,53 L28.745,47.63 L29.665,47.63 L29.685,48.44 L29.705,48.44 C30.065,47.77 30.565,47.52 31.085,47.52 C31.275,47.52 31.415,47.55 31.535,47.59 L31.535,48.52 C31.445,48.49 31.255,48.45 31.035,48.45 C30.145,48.45 29.695,49.08 29.695,49.74 L29.695,53 L28.745,53 Z M36.565,53 L35.635,53 L35.615,52.22 L35.595,52.22 C35.295,52.75 34.745,53.11 33.975,53.11 C32.925,53.11 32.245,52.44 32.245,51.49 C32.245,50.79 32.605,50.32 33.285,50.1 C33.875,49.91 34.745,49.87 35.625,49.84 L35.625,49.36 C35.625,48.81 35.245,48.32 34.435,48.32 C33.755,48.32 33.365,48.64 33.195,49.13 L32.405,48.75 C32.715,47.94 33.485,47.52 34.465,47.52 C35.745,47.52 36.565,48.19 36.565,49.36 L36.565,53 Z M34.195,52.31 C35.065,52.31 35.625,51.65 35.625,50.88 L35.625,50.57 C35.265,50.58 34.705,50.62 34.255,50.68 C33.645,50.76 33.195,50.93 33.195,51.48 C33.195,51.98 33.575,52.31 34.195,52.31 Z M40.195,53.11 C38.685,53.11 37.805,51.86 37.805,50.36 C37.805,48.78 38.735,47.52 40.245,47.52 C40.955,47.52 41.575,47.83 41.995,48.41 L42.015,48.41 L42.015,45.32 L42.965,45.32 L42.965,53 L42.035,53 L42.025,52.13 L42.005,52.13 C41.555,52.78 40.915,53.11 40.195,53.11 Z M40.365,52.28 C41.425,52.28 42.045,51.45 42.045,50.31 C42.045,49.13 41.425,48.35 40.395,48.35 C39.275,48.35 38.765,49.3 38.765,50.33 C38.765,51.33 39.275,52.28 40.365,52.28 Z M49.115,47.63 L49.115,53 L48.185,53 L48.175,52.21 L48.155,52.21 C47.805,52.74 47.195,53.11 46.415,53.11 C45.255,53.11 44.525,52.36 44.525,51.23 L44.525,47.63 L45.475,47.63 L45.475,51.04 C45.475,51.74 45.865,52.29 46.695,52.29 C47.595,52.29 48.165,51.67 48.165,50.83 L48.165,47.63 L49.115,47.63 Z M54.715,53 L53.785,53 L53.765,52.22 L53.745,52.22 C53.445,52.75 52.895,53.11 52.125,53.11 C51.075,53.11 50.395,52.44 50.395,51.49 C50.395,50.79 50.755,50.32 51.435,50.1 C52.025,49.91 52.895,49.87 53.775,49.84 L53.775,49.36 C53.775,48.81 53.395,48.32 52.585,48.32 C51.905,48.32 51.515,48.64 51.345,49.13 L50.555,48.75 C50.865,47.94 51.635,47.52 52.615,47.52 C53.895,47.52 54.715,48.19 54.715,49.36 L54.715,53 Z M52.345,52.31 C53.215,52.31 53.775,51.65 53.775,50.88 L53.775,50.57 C53.415,50.58 52.855,50.62 52.405,50.68 C51.795,50.76 51.345,50.93 51.345,51.48 C51.345,51.98 51.725,52.31 52.345,52.31 Z M55.585,48.42 L55.585,47.63 L56.655,47.63 L56.655,45.93 L57.605,45.93 L57.605,47.63 L58.895,47.63 L58.895,48.42 L57.605,48.42 L57.605,51.36 C57.605,52 57.775,52.29 58.475,52.29 C58.655,52.29 58.785,52.27 58.895,52.25 L58.895,53.02 C58.685,53.07 58.445,53.11 58.145,53.11 C57.125,53.11 56.655,52.55 56.655,51.6 L56.655,48.42 L55.585,48.42 Z M60.555,49.9 L63.535,49.9 C63.475,49.02 63.035,48.32 62.085,48.32 C61.145,48.32 60.645,49 60.555,49.9 Z M63.615,51.65 L64.275,52.24 C63.795,52.8 63.105,53.11 62.245,53.11 C60.555,53.11 59.595,52 59.595,50.31 C59.595,48.69 60.555,47.52 62.105,47.52 C63.645,47.52 64.475,48.67 64.475,50.14 C64.475,50.3 64.465,50.55 64.445,50.69 L60.565,50.69 C60.665,51.71 61.255,52.3 62.255,52.3 C62.845,52.3 63.295,52.08 63.615,51.65 Z M67.415,53.11 C66.465,53.11 65.725,52.83 65.165,52.3 L65.745,51.65 C66.215,52.1 66.805,52.31 67.445,52.31 C68.295,52.31 68.705,52 68.705,51.54 C68.705,51.03 68.165,50.91 67.265,50.72 C66.255,50.5 65.355,50.19 65.355,49.15 C65.355,48.23 66.075,47.52 67.475,47.52 C68.335,47.52 69.005,47.78 69.565,48.29 L68.995,48.94 C68.535,48.52 68.025,48.32 67.445,48.32 C66.695,48.32 66.315,48.64 66.315,49.05 C66.315,49.55 66.795,49.66 67.725,49.86 C68.715,50.08 69.665,50.36 69.665,51.43 C69.665,52.41 68.885,53.11 67.415,53.11 Z" id="Graduates" fill="#777777"></path>
                </g>
                <g id="Page-Copy-15" transform="translate(130.000000, 220.000000)">
                    <path d="M0,20 L90,20 L90,75 C90,77.7614237 87.7614237,80 85,80 L5,80 C2.23857625,80 3.38176876e-16,77.7614237 0,75 L0,20 Z" id="Rectangle" fill="#EEEEEE"></path>
                    <path d="M5,0 L85,0 C87.7614237,-5.07265313e-16 90,2.23857625 90,5 L90,20 L0,20 L0,5 C-3.38176876e-16,2.23857625 2.23857625,5.07265313e-16 5,0 Z" id="Rectangle" fill="#45AEC6"></path>
                    <path d="M6.69,14 L6.69,13.29 L9.25,10.73 C9.97,10.02 10.43,9.38 10.43,8.67 C10.43,7.93 9.94,7.42 9,7.42 C8.25,7.42 7.79,7.74 7.38,8.31 L6.67,7.76 C7.21,7.01 7.97,6.55 9.07,6.55 C10.55,6.55 11.42,7.38 11.42,8.6 C11.42,9.39 11.05,10.17 10.25,10.97 L8.1,13.11 L8.1,13.13 L11.57,13.13 L11.57,14 L6.69,14 Z M13.17,14 L13.17,12.9 L14.27,12.9 L14.27,14 L13.17,14 Z M16.16,14 L16.16,13.13 L17.95,13.13 L17.95,7.88 C17.4,8.21 16.78,8.41 16.16,8.57 L16.16,7.7 C16.99,7.45 17.69,7.12 18.26,6.66 L18.94,6.66 L18.94,13.13 L20.72,13.13 L20.72,14 L16.16,14 Z" id="2.1" fill="#FFFFFF"></path>
                    <path d="M31.165,53 L26.165,53 L26.165,45.32 L31.095,45.32 L31.095,46.2 L27.165,46.2 L27.165,48.7 L30.605,48.7 L30.605,49.57 L27.165,49.57 L27.165,52.12 L31.165,52.12 L31.165,53 Z M34.355,53.11 C32.845,53.11 31.965,51.86 31.965,50.36 C31.965,48.78 32.895,47.52 34.405,47.52 C35.115,47.52 35.735,47.83 36.155,48.41 L36.175,48.41 L36.175,45.32 L37.125,45.32 L37.125,53 L36.195,53 L36.185,52.13 L36.165,52.13 C35.715,52.78 35.075,53.11 34.355,53.11 Z M34.525,52.28 C35.585,52.28 36.205,51.45 36.205,50.31 C36.205,49.13 35.585,48.35 34.555,48.35 C33.435,48.35 32.925,49.3 32.925,50.33 C32.925,51.33 33.435,52.28 34.525,52.28 Z M38.665,46.35 L38.665,45.32 L39.695,45.32 L39.695,46.35 L38.665,46.35 Z M39.655,53 L38.705,53 L38.705,47.63 L39.655,47.63 L39.655,53 Z M40.545,48.42 L40.545,47.63 L41.615,47.63 L41.615,45.93 L42.565,45.93 L42.565,47.63 L43.855,47.63 L43.855,48.42 L42.565,48.42 L42.565,51.36 C42.565,52 42.735,52.29 43.435,52.29 C43.615,52.29 43.745,52.27 43.855,52.25 L43.855,53.02 C43.645,53.07 43.405,53.11 43.105,53.11 C42.085,53.11 41.615,52.55 41.615,51.6 L41.615,48.42 L40.545,48.42 Z M47.195,53.11 C45.515,53.11 44.555,51.87 44.555,50.32 C44.555,48.76 45.515,47.52 47.195,47.52 C48.885,47.52 49.825,48.78 49.825,50.32 C49.825,51.85 48.885,53.11 47.195,53.11 Z M47.185,48.33 C46.075,48.33 45.515,49.25 45.515,50.32 C45.515,51.38 46.075,52.3 47.185,52.3 C48.295,52.3 48.865,51.38 48.865,50.32 C48.865,49.25 48.295,48.33 47.185,48.33 Z M51.055,53 L51.055,47.63 L51.975,47.63 L51.995,48.44 L52.015,48.44 C52.375,47.77 52.875,47.52 53.395,47.52 C53.585,47.52 53.725,47.55 53.845,47.59 L53.845,48.52 C53.755,48.49 53.565,48.45 53.345,48.45 C52.455,48.45 52.005,49.08 52.005,49.74 L52.005,53 L51.055,53 Z M54.815,46.35 L54.815,45.32 L55.845,45.32 L55.845,46.35 L54.815,46.35 Z M55.805,53 L54.855,53 L54.855,47.63 L55.805,47.63 L55.805,53 Z M61.405,53 L60.475,53 L60.455,52.22 L60.435,52.22 C60.135,52.75 59.585,53.11 58.815,53.11 C57.765,53.11 57.085,52.44 57.085,51.49 C57.085,50.79 57.445,50.32 58.125,50.1 C58.715,49.91 59.585,49.87 60.465,49.84 L60.465,49.36 C60.465,48.81 60.085,48.32 59.275,48.32 C58.595,48.32 58.205,48.64 58.035,49.13 L57.245,48.75 C57.555,47.94 58.325,47.52 59.305,47.52 C60.585,47.52 61.405,48.19 61.405,49.36 L61.405,53 Z M59.035,52.31 C59.905,52.31 60.465,51.65 60.465,50.88 L60.465,50.57 C60.105,50.58 59.545,50.62 59.095,50.68 C58.485,50.76 58.035,50.93 58.035,51.48 C58.035,51.98 58.415,52.31 59.035,52.31 Z M63.915,53 L62.965,53 L62.965,45.32 L63.915,45.32 L63.915,53 Z" id="Editorial" fill="#777777"></path>
                </g>
                <g id="Page-Copy-14" transform="translate(610.000000, 220.000000)">
                    <path d="M0,20 L90,20 L90,75 C90,77.7614237 87.7614237,80 85,80 L5,80 C2.23857625,80 3.38176876e-16,77.7614237 0,75 L0,20 Z" id="Rectangle" fill="#EEEEEE"></path>
                    <path d="M5,0 L85,0 C87.7614237,-5.07265313e-16 90,2.23857625 90,5 L90,20 L0,20 L0,5 C-3.38176876e-16,2.23857625 2.23857625,5.07265313e-16 5,0 Z" id="Rectangle" fill="#45AEC6"></path>
                    <path d="M11.48,6.92 L11.12,7.72 C10.75,7.5 10.3,7.4 9.85,7.4 C8.31,7.4 7.63,8.61 7.52,10.28 L7.54,10.28 C7.98,9.69 8.76,9.4 9.53,9.4 C10.98,9.4 11.9,10.4 11.9,11.73 C11.9,13.13 10.89,14.11 9.29,14.11 C7.2,14.11 6.55,12.42 6.55,10.64 C6.55,8.61 7.4,6.55 9.87,6.55 C10.51,6.55 11.04,6.69 11.48,6.92 Z M9.34,13.27 C10.34,13.27 10.92,12.64 10.92,11.76 C10.92,10.91 10.38,10.23 9.32,10.23 C8.46,10.23 7.66,10.69 7.66,11.61 C7.66,12.3 8.11,13.27 9.34,13.27 Z M13.17,14 L13.17,12.9 L14.27,12.9 L14.27,14 L13.17,14 Z M16.16,14 L16.16,13.13 L17.95,13.13 L17.95,7.88 C17.4,8.21 16.78,8.41 16.16,8.57 L16.16,7.7 C16.99,7.45 17.69,7.12 18.26,6.66 L18.94,6.66 L18.94,13.13 L20.72,13.13 L20.72,14 L16.16,14 Z" id="6.1" fill="#FFFFFF"></path>
                    <path d="M28.995,53 L27.985,53 L27.985,46.2 L25.325,46.2 L25.325,45.32 L31.655,45.32 L31.655,46.2 L28.995,46.2 L28.995,53 Z M32.595,53 L32.595,47.63 L33.515,47.63 L33.535,48.44 L33.555,48.44 C33.915,47.77 34.415,47.52 34.935,47.52 C35.125,47.52 35.265,47.55 35.385,47.59 L35.385,48.52 C35.295,48.49 35.105,48.45 34.885,48.45 C33.995,48.45 33.545,49.08 33.545,49.74 L33.545,53 L32.595,53 Z M40.415,53 L39.485,53 L39.465,52.22 L39.445,52.22 C39.145,52.75 38.595,53.11 37.825,53.11 C36.775,53.11 36.095,52.44 36.095,51.49 C36.095,50.79 36.455,50.32 37.135,50.1 C37.725,49.91 38.595,49.87 39.475,49.84 L39.475,49.36 C39.475,48.81 39.095,48.32 38.285,48.32 C37.605,48.32 37.215,48.64 37.045,49.13 L36.255,48.75 C36.565,47.94 37.335,47.52 38.315,47.52 C39.595,47.52 40.415,48.19 40.415,49.36 L40.415,53 Z M38.045,52.31 C38.915,52.31 39.475,51.65 39.475,50.88 L39.475,50.57 C39.115,50.58 38.555,50.62 38.105,50.68 C37.495,50.76 37.045,50.93 37.045,51.48 C37.045,51.98 37.425,52.31 38.045,52.31 Z M41.935,46.35 L41.935,45.32 L42.965,45.32 L42.965,46.35 L41.935,46.35 Z M42.925,53 L41.975,53 L41.975,47.63 L42.925,47.63 L42.925,53 Z M44.505,53 L44.505,47.63 L45.425,47.63 L45.445,48.42 L45.465,48.42 C45.805,47.88 46.405,47.52 47.205,47.52 C48.365,47.52 49.095,48.27 49.095,49.4 L49.095,53 L48.145,53 L48.145,49.59 C48.145,48.89 47.735,48.34 46.925,48.34 C46.025,48.34 45.455,48.96 45.455,49.8 L45.455,53 L44.505,53 Z M50.615,46.35 L50.615,45.32 L51.645,45.32 L51.645,46.35 L50.615,46.35 Z M51.605,53 L50.655,53 L50.655,47.63 L51.605,47.63 L51.605,53 Z M53.185,53 L53.185,47.63 L54.105,47.63 L54.125,48.42 L54.145,48.42 C54.485,47.88 55.085,47.52 55.885,47.52 C57.045,47.52 57.775,48.27 57.775,49.4 L57.775,53 L56.825,53 L56.825,49.59 C56.825,48.89 56.415,48.34 55.605,48.34 C54.705,48.34 54.135,48.96 54.135,49.8 L54.135,53 L53.185,53 Z M64.035,47.63 L64.035,52.41 C64.035,54.12 62.935,54.94 61.315,54.94 C60.465,54.94 59.785,54.7 59.305,54.38 L59.735,53.63 C60.125,53.89 60.595,54.13 61.305,54.13 C62.305,54.13 63.095,53.68 63.095,52.41 L63.095,51.95 L63.075,51.95 C62.665,52.59 62.015,52.91 61.285,52.91 C59.865,52.91 58.995,51.71 58.995,50.25 C58.995,48.78 59.875,47.52 61.355,47.52 C62.135,47.52 62.715,47.87 63.095,48.4 L63.115,48.4 L63.145,47.63 L64.035,47.63 Z M61.525,52.08 C62.555,52.08 63.115,51.24 63.115,50.2 C63.115,49.17 62.545,48.35 61.535,48.35 C60.485,48.35 59.955,49.21 59.955,50.22 C59.955,51.19 60.445,52.08 61.525,52.08 Z" id="Training" fill="#777777"></path>
                </g>
                <g id="Page-Copy-11" transform="translate(250.000000, 320.000000)">
                    <path d="M0,20 L90,20 L90,75 C90,77.7614237 87.7614237,80 85,80 L5,80 C2.23857625,80 3.38176876e-16,77.7614237 0,75 L0,20 Z" id="Rectangle" fill="#EEEEEE"></path>
                    <path d="M5,0 L85,0 C87.7614237,-5.07265313e-16 90,2.23857625 90,5 L90,20 L0,20 L0,5 C-3.38176876e-16,2.23857625 2.23857625,5.07265313e-16 5,0 Z" id="Rectangle" fill="#45AEC6"></path>
                    <path d="M8.94,14.11 C7.75,14.11 6.88,13.61 6.49,12.94 L7.24,12.41 C7.59,12.96 8.12,13.26 8.93,13.26 C9.99,13.26 10.6,12.74 10.6,11.96 C10.6,11.19 9.96,10.66 8.95,10.66 L8.24,10.66 L8.24,9.82 L8.95,9.82 C9.86,9.82 10.45,9.32 10.45,8.61 C10.45,7.89 9.89,7.4 8.93,7.4 C8.18,7.4 7.69,7.69 7.39,8.18 L6.66,7.66 C7.04,7.04 7.85,6.55 8.96,6.55 C10.48,6.55 11.44,7.39 11.44,8.55 C11.44,9.33 11,9.9 10.26,10.18 L10.26,10.2 C11.13,10.51 11.59,11.14 11.59,11.99 C11.59,13.22 10.58,14.11 8.94,14.11 Z M13.17,14 L13.17,12.9 L14.27,12.9 L14.27,14 L13.17,14 Z M15.85,14 L15.85,13.29 L18.41,10.73 C19.13,10.02 19.59,9.38 19.59,8.67 C19.59,7.93 19.1,7.42 18.16,7.42 C17.41,7.42 16.95,7.74 16.54,8.31 L15.83,7.76 C16.37,7.01 17.13,6.55 18.23,6.55 C19.71,6.55 20.58,7.38 20.58,8.6 C20.58,9.39 20.21,10.17 19.41,10.97 L17.26,13.11 L17.26,13.13 L20.73,13.13 L20.73,14 L15.85,14 Z" id="3.2" fill="#FFFFFF"></path>
                    <path d="M22.04,53 L21.21,50.85 L17.79,50.85 L16.97,53 L15.91,53 L18.93,45.32 L20.12,45.32 L23.14,53 L22.04,53 Z M18.12,49.98 L20.87,49.98 L19.5,46.41 L19.48,46.41 L18.12,49.98 Z M26.72,53.11 C25.95,53.11 25.36,52.8 24.95,52.22 L24.93,52.22 L24.93,54.83 L23.98,54.83 L23.98,47.63 L24.9,47.63 L24.92,48.48 L24.94,48.48 C25.35,47.87 26.01,47.52 26.76,47.52 C28.25,47.52 29.14,48.73 29.14,50.29 C29.14,51.83 28.22,53.11 26.72,53.11 Z M26.52,52.28 C27.61,52.28 28.18,51.38 28.18,50.31 C28.18,49.3 27.67,48.35 26.53,48.35 C25.46,48.35 24.9,49.27 24.9,50.34 C24.9,51.44 25.48,52.28 26.52,52.28 Z M33.14,53.11 C32.37,53.11 31.78,52.8 31.37,52.22 L31.35,52.22 L31.35,54.83 L30.4,54.83 L30.4,47.63 L31.32,47.63 L31.34,48.48 L31.36,48.48 C31.77,47.87 32.43,47.52 33.18,47.52 C34.67,47.52 35.56,48.73 35.56,50.29 C35.56,51.83 34.64,53.11 33.14,53.11 Z M32.94,52.28 C34.03,52.28 34.6,51.38 34.6,50.31 C34.6,49.3 34.09,48.35 32.95,48.35 C31.88,48.35 31.32,49.27 31.32,50.34 C31.32,51.44 31.9,52.28 32.94,52.28 Z M36.82,53 L36.82,47.63 L37.74,47.63 L37.76,48.44 L37.78,48.44 C38.14,47.77 38.64,47.52 39.16,47.52 C39.35,47.52 39.49,47.55 39.61,47.59 L39.61,48.52 C39.52,48.49 39.33,48.45 39.11,48.45 C38.22,48.45 37.77,49.08 37.77,49.74 L37.77,53 L36.82,53 Z M41.23,49.9 L44.21,49.9 C44.15,49.02 43.71,48.32 42.76,48.32 C41.82,48.32 41.32,49 41.23,49.9 Z M44.29,51.65 L44.95,52.24 C44.47,52.8 43.78,53.11 42.92,53.11 C41.23,53.11 40.27,52 40.27,50.31 C40.27,48.69 41.23,47.52 42.78,47.52 C44.32,47.52 45.15,48.67 45.15,50.14 C45.15,50.3 45.14,50.55 45.12,50.69 L41.24,50.69 C41.34,51.71 41.93,52.3 42.93,52.3 C43.52,52.3 43.97,52.08 44.29,51.65 Z M46.34,53 L46.34,47.63 L47.26,47.63 L47.28,48.42 L47.3,48.42 C47.64,47.88 48.24,47.52 49.04,47.52 C50.2,47.52 50.93,48.27 50.93,49.4 L50.93,53 L49.98,53 L49.98,49.59 C49.98,48.89 49.57,48.34 48.76,48.34 C47.86,48.34 47.29,48.96 47.29,49.8 L47.29,53 L46.34,53 Z M51.8,48.42 L51.8,47.63 L52.87,47.63 L52.87,45.93 L53.82,45.93 L53.82,47.63 L55.11,47.63 L55.11,48.42 L53.82,48.42 L53.82,51.36 C53.82,52 53.99,52.29 54.69,52.29 C54.87,52.29 55,52.27 55.11,52.25 L55.11,53.02 C54.9,53.07 54.66,53.11 54.36,53.11 C53.34,53.11 52.87,52.55 52.87,51.6 L52.87,48.42 L51.8,48.42 Z M56.12,46.35 L56.12,45.32 L57.15,45.32 L57.15,46.35 L56.12,46.35 Z M57.11,53 L56.16,53 L56.16,47.63 L57.11,47.63 L57.11,53 Z M60.96,53.11 C59.31,53.11 58.35,51.92 58.35,50.34 C58.35,48.75 59.3,47.52 60.95,47.52 C61.97,47.52 62.69,48.01 63.1,48.78 L62.31,49.23 C62.04,48.71 61.61,48.33 60.93,48.33 C59.88,48.33 59.31,49.21 59.31,50.32 C59.31,51.4 59.86,52.3 60.99,52.3 C61.7,52.3 62.13,51.94 62.39,51.43 L63.14,51.86 C62.76,52.61 62,53.11 60.96,53.11 Z M64.67,49.9 L67.65,49.9 C67.59,49.02 67.15,48.32 66.2,48.32 C65.26,48.32 64.76,49 64.67,49.9 Z M67.73,51.65 L68.39,52.24 C67.91,52.8 67.22,53.11 66.36,53.11 C64.67,53.11 63.71,52 63.71,50.31 C63.71,48.69 64.67,47.52 66.22,47.52 C67.76,47.52 68.59,48.67 68.59,50.14 C68.59,50.3 68.58,50.55 68.56,50.69 L64.68,50.69 C64.78,51.71 65.37,52.3 66.37,52.3 C66.96,52.3 67.41,52.08 67.73,51.65 Z M71.53,53.11 C70.58,53.11 69.84,52.83 69.28,52.3 L69.86,51.65 C70.33,52.1 70.92,52.31 71.56,52.31 C72.41,52.31 72.82,52 72.82,51.54 C72.82,51.03 72.28,50.91 71.38,50.72 C70.37,50.5 69.47,50.19 69.47,49.15 C69.47,48.23 70.19,47.52 71.59,47.52 C72.45,47.52 73.12,47.78 73.68,48.29 L73.11,48.94 C72.65,48.52 72.14,48.32 71.56,48.32 C70.81,48.32 70.43,48.64 70.43,49.05 C70.43,49.55 70.91,49.66 71.84,49.86 C72.83,50.08 73.78,50.36 73.78,51.43 C73.78,52.41 73,53.11 71.53,53.11 Z" id="Apprentices" fill="#777777"></path>
                </g>
                <g id="Page-Copy-16" transform="translate(130.000000, 320.000000)">
                    <path d="M0,20 L90,20 L90,75 C90,77.7614237 87.7614237,80 85,80 L5,80 C2.23857625,80 3.38176876e-16,77.7614237 0,75 L0,20 Z" id="Rectangle" fill="#EEEEEE"></path>
                    <path d="M5,0 L85,0 C87.7614237,-5.07265313e-16 90,2.23857625 90,5 L90,20 L0,20 L0,5 C-3.38176876e-16,2.23857625 2.23857625,5.07265313e-16 5,0 Z" id="Rectangle" fill="#45AEC6"></path>
                    <path d="M6.69,14 L6.69,13.29 L9.25,10.73 C9.97,10.02 10.43,9.38 10.43,8.67 C10.43,7.93 9.94,7.42 9,7.42 C8.25,7.42 7.79,7.74 7.38,8.31 L6.67,7.76 C7.21,7.01 7.97,6.55 9.07,6.55 C10.55,6.55 11.42,7.38 11.42,8.6 C11.42,9.39 11.05,10.17 10.25,10.97 L8.1,13.11 L8.1,13.13 L11.57,13.13 L11.57,14 L6.69,14 Z M13.17,14 L13.17,12.9 L14.27,12.9 L14.27,14 L13.17,14 Z M15.85,14 L15.85,13.29 L18.41,10.73 C19.13,10.02 19.59,9.38 19.59,8.67 C19.59,7.93 19.1,7.42 18.16,7.42 C17.41,7.42 16.95,7.74 16.54,8.31 L15.83,7.76 C16.37,7.01 17.13,6.55 18.23,6.55 C19.71,6.55 20.58,7.38 20.58,8.6 C20.58,9.39 20.21,10.17 19.41,10.97 L17.26,13.11 L17.26,13.13 L20.73,13.13 L20.73,14 L15.85,14 Z" id="2.2" fill="#FFFFFF"></path>
                    <path d="M30.425,47 L30.425,39.32 L33.005,39.32 C35.595,39.32 36.875,41.05 36.875,43.16 C36.875,45.46 35.395,47 33.095,47 L30.425,47 Z M31.435,46.12 L33.035,46.12 C34.705,46.12 35.845,45.15 35.845,43.17 C35.845,41.1 34.565,40.2 32.945,40.2 L31.435,40.2 L31.435,46.12 Z M38.075,40.35 L38.075,39.32 L39.105,39.32 L39.105,40.35 L38.075,40.35 Z M39.065,47 L38.115,47 L38.115,41.63 L39.065,41.63 L39.065,47 Z M45.345,41.63 L45.345,46.41 C45.345,48.12 44.245,48.94 42.625,48.94 C41.775,48.94 41.095,48.7 40.615,48.38 L41.045,47.63 C41.435,47.89 41.905,48.13 42.615,48.13 C43.615,48.13 44.405,47.68 44.405,46.41 L44.405,45.95 L44.385,45.95 C43.975,46.59 43.325,46.91 42.595,46.91 C41.175,46.91 40.305,45.71 40.305,44.25 C40.305,42.78 41.185,41.52 42.665,41.52 C43.445,41.52 44.025,41.87 44.405,42.4 L44.425,42.4 L44.455,41.63 L45.345,41.63 Z M42.835,46.08 C43.865,46.08 44.425,45.24 44.425,44.2 C44.425,43.17 43.855,42.35 42.845,42.35 C41.795,42.35 41.265,43.21 41.265,44.22 C41.265,45.19 41.755,46.08 42.835,46.08 Z M46.885,40.35 L46.885,39.32 L47.915,39.32 L47.915,40.35 L46.885,40.35 Z M47.875,47 L46.925,47 L46.925,41.63 L47.875,41.63 L47.875,47 Z M48.765,42.42 L48.765,41.63 L49.835,41.63 L49.835,39.93 L50.785,39.93 L50.785,41.63 L52.075,41.63 L52.075,42.42 L50.785,42.42 L50.785,45.36 C50.785,46 50.955,46.29 51.655,46.29 C51.835,46.29 51.965,46.27 52.075,46.25 L52.075,47.02 C51.865,47.07 51.625,47.11 51.325,47.11 C50.305,47.11 49.835,46.55 49.835,45.6 L49.835,42.42 L48.765,42.42 Z M57.145,47 L56.215,47 L56.195,46.22 L56.175,46.22 C55.875,46.75 55.325,47.11 54.555,47.11 C53.505,47.11 52.825,46.44 52.825,45.49 C52.825,44.79 53.185,44.32 53.865,44.1 C54.455,43.91 55.325,43.87 56.205,43.84 L56.205,43.36 C56.205,42.81 55.825,42.32 55.015,42.32 C54.335,42.32 53.945,42.64 53.775,43.13 L52.985,42.75 C53.295,41.94 54.065,41.52 55.045,41.52 C56.325,41.52 57.145,42.19 57.145,43.36 L57.145,47 Z M54.775,46.31 C55.645,46.31 56.205,45.65 56.205,44.88 L56.205,44.57 C55.845,44.58 55.285,44.62 54.835,44.68 C54.225,44.76 53.775,44.93 53.775,45.48 C53.775,45.98 54.155,46.31 54.775,46.31 Z M59.655,47 L58.705,47 L58.705,39.32 L59.655,39.32 L59.655,47 Z M16.235,59.11 C14.725,59.11 13.845,57.86 13.845,56.36 C13.845,54.78 14.775,53.52 16.285,53.52 C16.995,53.52 17.615,53.83 18.035,54.41 L18.055,54.41 L18.055,51.32 L19.005,51.32 L19.005,59 L18.075,59 L18.065,58.13 L18.045,58.13 C17.595,58.78 16.955,59.11 16.235,59.11 Z M16.405,58.28 C17.465,58.28 18.085,57.45 18.085,56.31 C18.085,55.13 17.465,54.35 16.435,54.35 C15.315,54.35 14.805,55.3 14.805,56.33 C14.805,57.33 15.315,58.28 16.405,58.28 Z M21.195,55.9 L24.175,55.9 C24.115,55.02 23.675,54.32 22.725,54.32 C21.785,54.32 21.285,55 21.195,55.9 Z M24.255,57.65 L24.915,58.24 C24.435,58.8 23.745,59.11 22.885,59.11 C21.195,59.11 20.235,58 20.235,56.31 C20.235,54.69 21.195,53.52 22.745,53.52 C24.285,53.52 25.115,54.67 25.115,56.14 C25.115,56.3 25.105,56.55 25.085,56.69 L21.205,56.69 C21.305,57.71 21.895,58.3 22.895,58.3 C23.485,58.3 23.935,58.08 24.255,57.65 Z M29.885,53.63 L30.885,53.63 L28.765,59 L27.755,59 L25.645,53.63 L26.685,53.63 L28.265,57.91 L28.285,57.91 L29.885,53.63 Z M32.415,55.9 L35.395,55.9 C35.335,55.02 34.895,54.32 33.945,54.32 C33.005,54.32 32.505,55 32.415,55.9 Z M35.475,57.65 L36.135,58.24 C35.655,58.8 34.965,59.11 34.105,59.11 C32.415,59.11 31.455,58 31.455,56.31 C31.455,54.69 32.415,53.52 33.965,53.52 C35.505,53.52 36.335,54.67 36.335,56.14 C36.335,56.3 36.325,56.55 36.305,56.69 L32.425,56.69 C32.525,57.71 33.115,58.3 34.115,58.3 C34.705,58.3 35.155,58.08 35.475,57.65 Z M38.475,59 L37.525,59 L37.525,51.32 L38.475,51.32 L38.475,59 Z M42.345,59.11 C40.665,59.11 39.705,57.87 39.705,56.32 C39.705,54.76 40.665,53.52 42.345,53.52 C44.035,53.52 44.975,54.78 44.975,56.32 C44.975,57.85 44.035,59.11 42.345,59.11 Z M42.335,54.33 C41.225,54.33 40.665,55.25 40.665,56.32 C40.665,57.38 41.225,58.3 42.335,58.3 C43.445,58.3 44.015,57.38 44.015,56.32 C44.015,55.25 43.445,54.33 42.335,54.33 Z M48.945,59.11 C48.175,59.11 47.585,58.8 47.175,58.22 L47.155,58.22 L47.155,60.83 L46.205,60.83 L46.205,53.63 L47.125,53.63 L47.145,54.48 L47.165,54.48 C47.575,53.87 48.235,53.52 48.985,53.52 C50.475,53.52 51.365,54.73 51.365,56.29 C51.365,57.83 50.445,59.11 48.945,59.11 Z M48.745,58.28 C49.835,58.28 50.405,57.38 50.405,56.31 C50.405,55.3 49.895,54.35 48.755,54.35 C47.685,54.35 47.125,55.27 47.125,56.34 C47.125,57.44 47.705,58.28 48.745,58.28 Z M53.565,54.35 L53.585,54.35 C53.915,53.84 54.425,53.52 55.165,53.52 C55.935,53.52 56.515,53.87 56.785,54.44 C57.175,53.81 57.795,53.52 58.525,53.52 C59.605,53.52 60.315,54.2 60.315,55.22 L60.315,59 L59.365,59 L59.365,55.44 C59.365,54.82 59.005,54.34 58.255,54.34 C57.455,54.34 56.945,54.88 56.945,55.62 L56.945,59 L55.995,59 L55.995,55.44 C55.995,54.82 55.625,54.34 54.895,54.34 C54.095,54.34 53.575,54.88 53.575,55.62 L53.575,59 L52.625,59 L52.625,53.63 L53.545,53.63 L53.565,54.35 Z M62.485,55.9 L65.465,55.9 C65.405,55.02 64.965,54.32 64.015,54.32 C63.075,54.32 62.575,55 62.485,55.9 Z M65.545,57.65 L66.205,58.24 C65.725,58.8 65.035,59.11 64.175,59.11 C62.485,59.11 61.525,58 61.525,56.31 C61.525,54.69 62.485,53.52 64.035,53.52 C65.575,53.52 66.405,54.67 66.405,56.14 C66.405,56.3 66.395,56.55 66.375,56.69 L62.495,56.69 C62.595,57.71 63.185,58.3 64.185,58.3 C64.775,58.3 65.225,58.08 65.545,57.65 Z M67.595,59 L67.595,53.63 L68.515,53.63 L68.535,54.42 L68.555,54.42 C68.895,53.88 69.495,53.52 70.295,53.52 C71.455,53.52 72.185,54.27 72.185,55.4 L72.185,59 L71.235,59 L71.235,55.59 C71.235,54.89 70.825,54.34 70.015,54.34 C69.115,54.34 68.545,54.96 68.545,55.8 L68.545,59 L67.595,59 Z M73.055,54.42 L73.055,53.63 L74.125,53.63 L74.125,51.93 L75.075,51.93 L75.075,53.63 L76.365,53.63 L76.365,54.42 L75.075,54.42 L75.075,57.36 C75.075,58 75.245,58.29 75.945,58.29 C76.125,58.29 76.255,58.27 76.365,58.25 L76.365,59.02 C76.155,59.07 75.915,59.11 75.615,59.11 C74.595,59.11 74.125,58.55 74.125,57.6 L74.125,54.42 L73.055,54.42 Z" id="Digital-development" fill="#777777"></path>
                </g>
                <g id="Page-Copy-12" transform="translate(250.000000, 420.000000)">
                    <path d="M0,20 L90,20 L90,75 C90,77.7614237 87.7614237,80 85,80 L5,80 C2.23857625,80 3.38176876e-16,77.7614237 0,75 L0,20 Z" id="Rectangle" fill="#EEEEEE"></path>
                    <path d="M5,0 L85,0 C87.7614237,-5.07265313e-16 90,2.23857625 90,5 L90,20 L0,20 L0,5 C-3.38176876e-16,2.23857625 2.23857625,5.07265313e-16 5,0 Z" id="Rectangle" fill="#45AEC6"></path>
                    <path d="M8.94,14.11 C7.75,14.11 6.88,13.61 6.49,12.94 L7.24,12.41 C7.59,12.96 8.12,13.26 8.93,13.26 C9.99,13.26 10.6,12.74 10.6,11.96 C10.6,11.19 9.96,10.66 8.95,10.66 L8.24,10.66 L8.24,9.82 L8.95,9.82 C9.86,9.82 10.45,9.32 10.45,8.61 C10.45,7.89 9.89,7.4 8.93,7.4 C8.18,7.4 7.69,7.69 7.39,8.18 L6.66,7.66 C7.04,7.04 7.85,6.55 8.96,6.55 C10.48,6.55 11.44,7.39 11.44,8.55 C11.44,9.33 11,9.9 10.26,10.18 L10.26,10.2 C11.13,10.51 11.59,11.14 11.59,11.99 C11.59,13.22 10.58,14.11 8.94,14.11 Z M13.17,14 L13.17,12.9 L14.27,12.9 L14.27,14 L13.17,14 Z M18.1,14.11 C16.91,14.11 16.04,13.61 15.65,12.94 L16.4,12.41 C16.75,12.96 17.28,13.26 18.09,13.26 C19.15,13.26 19.76,12.74 19.76,11.96 C19.76,11.19 19.12,10.66 18.11,10.66 L17.4,10.66 L17.4,9.82 L18.11,9.82 C19.02,9.82 19.61,9.32 19.61,8.61 C19.61,7.89 19.05,7.4 18.09,7.4 C17.34,7.4 16.85,7.69 16.55,8.18 L15.82,7.66 C16.2,7.04 17.01,6.55 18.12,6.55 C19.64,6.55 20.6,7.39 20.6,8.55 C20.6,9.33 20.16,9.9 19.42,10.18 L19.42,10.2 C20.29,10.51 20.75,11.14 20.75,11.99 C20.75,13.22 19.74,14.11 18.1,14.11 Z" id="3.3" fill="#FFFFFF"></path>
                    <path d="M30.425,41 L30.425,33.32 L33.005,33.32 C35.595,33.32 36.875,35.05 36.875,37.16 C36.875,39.46 35.395,41 33.095,41 L30.425,41 Z M31.435,40.12 L33.035,40.12 C34.705,40.12 35.845,39.15 35.845,37.17 C35.845,35.1 34.565,34.2 32.945,34.2 L31.435,34.2 L31.435,40.12 Z M38.075,34.35 L38.075,33.32 L39.105,33.32 L39.105,34.35 L38.075,34.35 Z M39.065,41 L38.115,41 L38.115,35.63 L39.065,35.63 L39.065,41 Z M45.345,35.63 L45.345,40.41 C45.345,42.12 44.245,42.94 42.625,42.94 C41.775,42.94 41.095,42.7 40.615,42.38 L41.045,41.63 C41.435,41.89 41.905,42.13 42.615,42.13 C43.615,42.13 44.405,41.68 44.405,40.41 L44.405,39.95 L44.385,39.95 C43.975,40.59 43.325,40.91 42.595,40.91 C41.175,40.91 40.305,39.71 40.305,38.25 C40.305,36.78 41.185,35.52 42.665,35.52 C43.445,35.52 44.025,35.87 44.405,36.4 L44.425,36.4 L44.455,35.63 L45.345,35.63 Z M42.835,40.08 C43.865,40.08 44.425,39.24 44.425,38.2 C44.425,37.17 43.855,36.35 42.845,36.35 C41.795,36.35 41.265,37.21 41.265,38.22 C41.265,39.19 41.755,40.08 42.835,40.08 Z M46.885,34.35 L46.885,33.32 L47.915,33.32 L47.915,34.35 L46.885,34.35 Z M47.875,41 L46.925,41 L46.925,35.63 L47.875,35.63 L47.875,41 Z M48.765,36.42 L48.765,35.63 L49.835,35.63 L49.835,33.93 L50.785,33.93 L50.785,35.63 L52.075,35.63 L52.075,36.42 L50.785,36.42 L50.785,39.36 C50.785,40 50.955,40.29 51.655,40.29 C51.835,40.29 51.965,40.27 52.075,40.25 L52.075,41.02 C51.865,41.07 51.625,41.11 51.325,41.11 C50.305,41.11 49.835,40.55 49.835,39.6 L49.835,36.42 L48.765,36.42 Z M57.145,41 L56.215,41 L56.195,40.22 L56.175,40.22 C55.875,40.75 55.325,41.11 54.555,41.11 C53.505,41.11 52.825,40.44 52.825,39.49 C52.825,38.79 53.185,38.32 53.865,38.1 C54.455,37.91 55.325,37.87 56.205,37.84 L56.205,37.36 C56.205,36.81 55.825,36.32 55.015,36.32 C54.335,36.32 53.945,36.64 53.775,37.13 L52.985,36.75 C53.295,35.94 54.065,35.52 55.045,35.52 C56.325,35.52 57.145,36.19 57.145,37.36 L57.145,41 Z M54.775,40.31 C55.645,40.31 56.205,39.65 56.205,38.88 L56.205,38.57 C55.845,38.58 55.285,38.62 54.835,38.68 C54.225,38.76 53.775,38.93 53.775,39.48 C53.775,39.98 54.155,40.31 54.775,40.31 Z M59.655,41 L58.705,41 L58.705,33.32 L59.655,33.32 L59.655,41 Z M20.84,46.35 L20.84,45.32 L21.87,45.32 L21.87,46.35 L20.84,46.35 Z M20.01,54.87 L20.01,54.1 C20.09,54.12 20.2,54.13 20.29,54.13 C20.73,54.13 20.88,53.89 20.88,53.49 L20.88,47.63 L21.83,47.63 L21.83,53.61 C21.83,54.43 21.44,54.94 20.55,54.94 C20.35,54.94 20.15,54.91 20.01,54.87 Z M25.7,53.11 C24.02,53.11 23.06,51.87 23.06,50.32 C23.06,48.76 24.02,47.52 25.7,47.52 C27.39,47.52 28.33,48.78 28.33,50.32 C28.33,51.85 27.39,53.11 25.7,53.11 Z M25.69,48.33 C24.58,48.33 24.02,49.25 24.02,50.32 C24.02,51.38 24.58,52.3 25.69,52.3 C26.8,52.3 27.37,51.38 27.37,50.32 C27.37,49.25 26.8,48.33 25.69,48.33 Z M34.13,47.63 L34.13,53 L33.2,53 L33.19,52.21 L33.17,52.21 C32.82,52.74 32.21,53.11 31.43,53.11 C30.27,53.11 29.54,52.36 29.54,51.23 L29.54,47.63 L30.49,47.63 L30.49,51.04 C30.49,51.74 30.88,52.29 31.71,52.29 C32.61,52.29 33.18,51.67 33.18,50.83 L33.18,47.63 L34.13,47.63 Z M35.71,53 L35.71,47.63 L36.63,47.63 L36.65,48.44 L36.67,48.44 C37.03,47.77 37.53,47.52 38.05,47.52 C38.24,47.52 38.38,47.55 38.5,47.59 L38.5,48.52 C38.41,48.49 38.22,48.45 38,48.45 C37.11,48.45 36.66,49.08 36.66,49.74 L36.66,53 L35.71,53 Z M39.51,53 L39.51,47.63 L40.43,47.63 L40.45,48.42 L40.47,48.42 C40.81,47.88 41.41,47.52 42.21,47.52 C43.37,47.52 44.1,48.27 44.1,49.4 L44.1,53 L43.15,53 L43.15,49.59 C43.15,48.89 42.74,48.34 41.93,48.34 C41.03,48.34 40.46,48.96 40.46,49.8 L40.46,53 L39.51,53 Z M49.68,53 L48.75,53 L48.73,52.22 L48.71,52.22 C48.41,52.75 47.86,53.11 47.09,53.11 C46.04,53.11 45.36,52.44 45.36,51.49 C45.36,50.79 45.72,50.32 46.4,50.1 C46.99,49.91 47.86,49.87 48.74,49.84 L48.74,49.36 C48.74,48.81 48.36,48.32 47.55,48.32 C46.87,48.32 46.48,48.64 46.31,49.13 L45.52,48.75 C45.83,47.94 46.6,47.52 47.58,47.52 C48.86,47.52 49.68,48.19 49.68,49.36 L49.68,53 Z M47.31,52.31 C48.18,52.31 48.74,51.65 48.74,50.88 L48.74,50.57 C48.38,50.58 47.82,50.62 47.37,50.68 C46.76,50.76 46.31,50.93 46.31,51.48 C46.31,51.98 46.69,52.31 47.31,52.31 Z M52.19,53 L51.24,53 L51.24,45.32 L52.19,45.32 L52.19,53 Z M53.73,46.35 L53.73,45.32 L54.76,45.32 L54.76,46.35 L53.73,46.35 Z M54.72,53 L53.77,53 L53.77,47.63 L54.72,47.63 L54.72,53 Z M58.05,53.11 C57.1,53.11 56.36,52.83 55.8,52.3 L56.38,51.65 C56.85,52.1 57.44,52.31 58.08,52.31 C58.93,52.31 59.34,52 59.34,51.54 C59.34,51.03 58.8,50.91 57.9,50.72 C56.89,50.5 55.99,50.19 55.99,49.15 C55.99,48.23 56.71,47.52 58.11,47.52 C58.97,47.52 59.64,47.78 60.2,48.29 L59.63,48.94 C59.17,48.52 58.66,48.32 58.08,48.32 C57.33,48.32 56.95,48.64 56.95,49.05 C56.95,49.55 57.43,49.66 58.36,49.86 C59.35,50.08 60.3,50.36 60.3,51.43 C60.3,52.41 59.52,53.11 58.05,53.11 Z M62.39,48.35 L62.41,48.35 C62.74,47.84 63.25,47.52 63.99,47.52 C64.76,47.52 65.34,47.87 65.61,48.44 C66,47.81 66.62,47.52 67.35,47.52 C68.43,47.52 69.14,48.2 69.14,49.22 L69.14,53 L68.19,53 L68.19,49.44 C68.19,48.82 67.83,48.34 67.08,48.34 C66.28,48.34 65.77,48.88 65.77,49.62 L65.77,53 L64.82,53 L64.82,49.44 C64.82,48.82 64.45,48.34 63.72,48.34 C62.92,48.34 62.4,48.88 62.4,49.62 L62.4,53 L61.45,53 L61.45,47.63 L62.37,47.63 L62.39,48.35 Z M25.94,60.42 L25.94,59.63 L27.01,59.63 L27.01,57.93 L27.96,57.93 L27.96,59.63 L29.25,59.63 L29.25,60.42 L27.96,60.42 L27.96,63.36 C27.96,64 28.13,64.29 28.83,64.29 C29.01,64.29 29.14,64.27 29.25,64.25 L29.25,65.02 C29.04,65.07 28.8,65.11 28.5,65.11 C27.48,65.11 27.01,64.55 27.01,63.6 L27.01,60.42 L25.94,60.42 Z M30.3,65 L30.3,59.63 L31.22,59.63 L31.24,60.44 L31.26,60.44 C31.62,59.77 32.12,59.52 32.64,59.52 C32.83,59.52 32.97,59.55 33.09,59.59 L33.09,60.52 C33,60.49 32.81,60.45 32.59,60.45 C31.7,60.45 31.25,61.08 31.25,61.74 L31.25,65 L30.3,65 Z M38.12,65 L37.19,65 L37.17,64.22 L37.15,64.22 C36.85,64.75 36.3,65.11 35.53,65.11 C34.48,65.11 33.8,64.44 33.8,63.49 C33.8,62.79 34.16,62.32 34.84,62.1 C35.43,61.91 36.3,61.87 37.18,61.84 L37.18,61.36 C37.18,60.81 36.8,60.32 35.99,60.32 C35.31,60.32 34.92,60.64 34.75,61.13 L33.96,60.75 C34.27,59.94 35.04,59.52 36.02,59.52 C37.3,59.52 38.12,60.19 38.12,61.36 L38.12,65 Z M35.75,64.31 C36.62,64.31 37.18,63.65 37.18,62.88 L37.18,62.57 C36.82,62.58 36.26,62.62 35.81,62.68 C35.2,62.76 34.75,62.93 34.75,63.48 C34.75,63.98 35.13,64.31 35.75,64.31 Z M39.64,58.35 L39.64,57.32 L40.67,57.32 L40.67,58.35 L39.64,58.35 Z M40.63,65 L39.68,65 L39.68,59.63 L40.63,59.63 L40.63,65 Z M42.21,65 L42.21,59.63 L43.13,59.63 L43.15,60.42 L43.17,60.42 C43.51,59.88 44.11,59.52 44.91,59.52 C46.07,59.52 46.8,60.27 46.8,61.4 L46.8,65 L45.85,65 L45.85,61.59 C45.85,60.89 45.44,60.34 44.63,60.34 C43.73,60.34 43.16,60.96 43.16,61.8 L43.16,65 L42.21,65 Z M48.97,61.9 L51.95,61.9 C51.89,61.02 51.45,60.32 50.5,60.32 C49.56,60.32 49.06,61 48.97,61.9 Z M52.03,63.65 L52.69,64.24 C52.21,64.8 51.52,65.11 50.66,65.11 C48.97,65.11 48.01,64 48.01,62.31 C48.01,60.69 48.97,59.52 50.52,59.52 C52.06,59.52 52.89,60.67 52.89,62.14 C52.89,62.3 52.88,62.55 52.86,62.69 L48.98,62.69 C49.08,63.71 49.67,64.3 50.67,64.3 C51.26,64.3 51.71,64.08 52.03,63.65 Z M54.69,61.9 L57.67,61.9 C57.61,61.02 57.17,60.32 56.22,60.32 C55.28,60.32 54.78,61 54.69,61.9 Z M57.75,63.65 L58.41,64.24 C57.93,64.8 57.24,65.11 56.38,65.11 C54.69,65.11 53.73,64 53.73,62.31 C53.73,60.69 54.69,59.52 56.24,59.52 C57.78,59.52 58.61,60.67 58.61,62.14 C58.61,62.3 58.6,62.55 58.58,62.69 L54.7,62.69 C54.8,63.71 55.39,64.3 56.39,64.3 C56.98,64.3 57.43,64.08 57.75,63.65 Z M61.55,65.11 C60.6,65.11 59.86,64.83 59.3,64.3 L59.88,63.65 C60.35,64.1 60.94,64.31 61.58,64.31 C62.43,64.31 62.84,64 62.84,63.54 C62.84,63.03 62.3,62.91 61.4,62.72 C60.39,62.5 59.49,62.19 59.49,61.15 C59.49,60.23 60.21,59.52 61.61,59.52 C62.47,59.52 63.14,59.78 63.7,60.29 L63.13,60.94 C62.67,60.52 62.16,60.32 61.58,60.32 C60.83,60.32 60.45,60.64 60.45,61.05 C60.45,61.55 60.93,61.66 61.86,61.86 C62.85,62.08 63.8,62.36 63.8,63.43 C63.8,64.41 63.02,65.11 61.55,65.11 Z" id="Digital-journalism-t" fill="#777777"></path>
                </g>
                <g id="Page-Copy-17" transform="translate(130.000000, 420.000000)">
                    <path d="M0,20 L90,20 L90,75 C90,77.7614237 87.7614237,80 85,80 L5,80 C2.23857625,80 3.38176876e-16,77.7614237 0,75 L0,20 Z" id="Rectangle" fill="#EEEEEE"></path>
                    <path d="M5,0 L85,0 C87.7614237,-5.07265313e-16 90,2.23857625 90,5 L90,20 L0,20 L0,5 C-3.38176876e-16,2.23857625 2.23857625,5.07265313e-16 5,0 Z" id="Rectangle" fill="#45AEC6"></path>
                    <path d="M6.69,14 L6.69,13.29 L9.25,10.73 C9.97,10.02 10.43,9.38 10.43,8.67 C10.43,7.93 9.94,7.42 9,7.42 C8.25,7.42 7.79,7.74 7.38,8.31 L6.67,7.76 C7.21,7.01 7.97,6.55 9.07,6.55 C10.55,6.55 11.42,7.38 11.42,8.6 C11.42,9.39 11.05,10.17 10.25,10.97 L8.1,13.11 L8.1,13.13 L11.57,13.13 L11.57,14 L6.69,14 Z M13.17,14 L13.17,12.9 L14.27,12.9 L14.27,14 L13.17,14 Z M18.1,14.11 C16.91,14.11 16.04,13.61 15.65,12.94 L16.4,12.41 C16.75,12.96 17.28,13.26 18.09,13.26 C19.15,13.26 19.76,12.74 19.76,11.96 C19.76,11.19 19.12,10.66 18.11,10.66 L17.4,10.66 L17.4,9.82 L18.11,9.82 C19.02,9.82 19.61,9.32 19.61,8.61 C19.61,7.89 19.05,7.4 18.09,7.4 C17.34,7.4 16.85,7.69 16.55,8.18 L15.82,7.66 C16.2,7.04 17.01,6.55 18.12,6.55 C19.64,6.55 20.6,7.39 20.6,8.55 C20.6,9.33 20.16,9.9 19.42,10.18 L19.42,10.2 C20.29,10.51 20.75,11.14 20.75,11.99 C20.75,13.22 19.74,14.11 18.1,14.11 Z" id="2.3" fill="#FFFFFF"></path>
                    <path d="M20.38,53.11 C18.14,53.11 16.85,51.4 16.85,49.16 C16.85,46.92 18.14,45.21 20.35,45.21 C21.68,45.21 22.69,45.84 23.27,46.86 L22.44,47.35 C22.03,46.58 21.35,46.08 20.36,46.08 C18.68,46.08 17.88,47.51 17.88,49.15 C17.88,50.77 18.66,52.24 20.41,52.24 C21.41,52.24 22.1,51.73 22.5,50.99 L23.31,51.45 C22.74,52.46 21.73,53.11 20.38,53.11 Z M26.59,53.11 C24.91,53.11 23.95,51.87 23.95,50.32 C23.95,48.76 24.91,47.52 26.59,47.52 C28.28,47.52 29.22,48.78 29.22,50.32 C29.22,51.85 28.28,53.11 26.59,53.11 Z M26.58,48.33 C25.47,48.33 24.91,49.25 24.91,50.32 C24.91,51.38 25.47,52.3 26.58,52.3 C27.69,52.3 28.26,51.38 28.26,50.32 C28.26,49.25 27.69,48.33 26.58,48.33 Z M31.39,48.35 L31.41,48.35 C31.74,47.84 32.25,47.52 32.99,47.52 C33.76,47.52 34.34,47.87 34.61,48.44 C35,47.81 35.62,47.52 36.35,47.52 C37.43,47.52 38.14,48.2 38.14,49.22 L38.14,53 L37.19,53 L37.19,49.44 C37.19,48.82 36.83,48.34 36.08,48.34 C35.28,48.34 34.77,48.88 34.77,49.62 L34.77,53 L33.82,53 L33.82,49.44 C33.82,48.82 33.45,48.34 32.72,48.34 C31.92,48.34 31.4,48.88 31.4,49.62 L31.4,53 L30.45,53 L30.45,47.63 L31.37,47.63 L31.39,48.35 Z M40.64,48.35 L40.66,48.35 C40.99,47.84 41.5,47.52 42.24,47.52 C43.01,47.52 43.59,47.87 43.86,48.44 C44.25,47.81 44.87,47.52 45.6,47.52 C46.68,47.52 47.39,48.2 47.39,49.22 L47.39,53 L46.44,53 L46.44,49.44 C46.44,48.82 46.08,48.34 45.33,48.34 C44.53,48.34 44.02,48.88 44.02,49.62 L44.02,53 L43.07,53 L43.07,49.44 C43.07,48.82 42.7,48.34 41.97,48.34 C41.17,48.34 40.65,48.88 40.65,49.62 L40.65,53 L39.7,53 L39.7,47.63 L40.62,47.63 L40.64,48.35 Z M49.56,49.9 L52.54,49.9 C52.48,49.02 52.04,48.32 51.09,48.32 C50.15,48.32 49.65,49 49.56,49.9 Z M52.62,51.65 L53.28,52.24 C52.8,52.8 52.11,53.11 51.25,53.11 C49.56,53.11 48.6,52 48.6,50.31 C48.6,48.69 49.56,47.52 51.11,47.52 C52.65,47.52 53.48,48.67 53.48,50.14 C53.48,50.3 53.47,50.55 53.45,50.69 L49.57,50.69 C49.67,51.71 50.26,52.3 51.26,52.3 C51.85,52.3 52.3,52.08 52.62,51.65 Z M54.67,53 L54.67,47.63 L55.59,47.63 L55.61,48.44 L55.63,48.44 C55.99,47.77 56.49,47.52 57.01,47.52 C57.2,47.52 57.34,47.55 57.46,47.59 L57.46,48.52 C57.37,48.49 57.18,48.45 56.96,48.45 C56.07,48.45 55.62,49.08 55.62,49.74 L55.62,53 L54.67,53 Z M60.74,53.11 C59.09,53.11 58.13,51.92 58.13,50.34 C58.13,48.75 59.08,47.52 60.73,47.52 C61.75,47.52 62.47,48.01 62.88,48.78 L62.09,49.23 C61.82,48.71 61.39,48.33 60.71,48.33 C59.66,48.33 59.09,49.21 59.09,50.32 C59.09,51.4 59.64,52.3 60.77,52.3 C61.48,52.3 61.91,51.94 62.17,51.43 L62.92,51.86 C62.54,52.61 61.78,53.11 60.74,53.11 Z M63.8,46.35 L63.8,45.32 L64.83,45.32 L64.83,46.35 L63.8,46.35 Z M64.79,53 L63.84,53 L63.84,47.63 L64.79,47.63 L64.79,53 Z M70.39,53 L69.46,53 L69.44,52.22 L69.42,52.22 C69.12,52.75 68.57,53.11 67.8,53.11 C66.75,53.11 66.07,52.44 66.07,51.49 C66.07,50.79 66.43,50.32 67.11,50.1 C67.7,49.91 68.57,49.87 69.45,49.84 L69.45,49.36 C69.45,48.81 69.07,48.32 68.26,48.32 C67.58,48.32 67.19,48.64 67.02,49.13 L66.23,48.75 C66.54,47.94 67.31,47.52 68.29,47.52 C69.57,47.52 70.39,48.19 70.39,49.36 L70.39,53 Z M68.02,52.31 C68.89,52.31 69.45,51.65 69.45,50.88 L69.45,50.57 C69.09,50.58 68.53,50.62 68.08,50.68 C67.47,50.76 67.02,50.93 67.02,51.48 C67.02,51.98 67.4,52.31 68.02,52.31 Z M72.9,53 L71.95,53 L71.95,45.32 L72.9,45.32 L72.9,53 Z" id="Commercial" fill="#777777"></path>
                </g>
                <g id="Page-Copy-13" transform="translate(250.000000, 520.000000)">
                    <path d="M0,20 L90,20 L90,75 C90,77.7614237 87.7614237,80 85,80 L5,80 C2.23857625,80 3.38176876e-16,77.7614237 0,75 L0,20 Z" id="Rectangle" fill="#EEEEEE"></path>
                    <path d="M5,0 L85,0 C87.7614237,-5.07265313e-16 90,2.23857625 90,5 L90,20 L0,20 L0,5 C-3.38176876e-16,2.23857625 2.23857625,5.07265313e-16 5,0 Z" id="Rectangle" fill="#45AEC6"></path>
                    <path d="M8.94,14.11 C7.75,14.11 6.88,13.61 6.49,12.94 L7.24,12.41 C7.59,12.96 8.12,13.26 8.93,13.26 C9.99,13.26 10.6,12.74 10.6,11.96 C10.6,11.19 9.96,10.66 8.95,10.66 L8.24,10.66 L8.24,9.82 L8.95,9.82 C9.86,9.82 10.45,9.32 10.45,8.61 C10.45,7.89 9.89,7.4 8.93,7.4 C8.18,7.4 7.69,7.69 7.39,8.18 L6.66,7.66 C7.04,7.04 7.85,6.55 8.96,6.55 C10.48,6.55 11.44,7.39 11.44,8.55 C11.44,9.33 11,9.9 10.26,10.18 L10.26,10.2 C11.13,10.51 11.59,11.14 11.59,11.99 C11.59,13.22 10.58,14.11 8.94,14.11 Z M13.17,14 L13.17,12.9 L14.27,12.9 L14.27,14 L13.17,14 Z M21.32,11.48 L21.32,12.32 L19.98,12.32 L19.98,14 L19,14 L19,12.32 L15.3,12.32 L15.3,11.59 L18.74,6.66 L19.98,6.66 L19.98,11.48 L21.32,11.48 Z M16.37,11.48 L19,11.48 L19,7.75 L18.98,7.75 L16.37,11.48 Z" id="3.4" fill="#FFFFFF"></path>
                    <path d="M31.165,41 L26.165,41 L26.165,33.32 L31.095,33.32 L31.095,34.2 L27.165,34.2 L27.165,36.7 L30.605,36.7 L30.605,37.57 L27.165,37.57 L27.165,40.12 L31.165,40.12 L31.165,41 Z M34.355,41.11 C32.845,41.11 31.965,39.86 31.965,38.36 C31.965,36.78 32.895,35.52 34.405,35.52 C35.115,35.52 35.735,35.83 36.155,36.41 L36.175,36.41 L36.175,33.32 L37.125,33.32 L37.125,41 L36.195,41 L36.185,40.13 L36.165,40.13 C35.715,40.78 35.075,41.11 34.355,41.11 Z M34.525,40.28 C35.585,40.28 36.205,39.45 36.205,38.31 C36.205,37.13 35.585,36.35 34.555,36.35 C33.435,36.35 32.925,37.3 32.925,38.33 C32.925,39.33 33.435,40.28 34.525,40.28 Z M38.665,34.35 L38.665,33.32 L39.695,33.32 L39.695,34.35 L38.665,34.35 Z M39.655,41 L38.705,41 L38.705,35.63 L39.655,35.63 L39.655,41 Z M40.545,36.42 L40.545,35.63 L41.615,35.63 L41.615,33.93 L42.565,33.93 L42.565,35.63 L43.855,35.63 L43.855,36.42 L42.565,36.42 L42.565,39.36 C42.565,40 42.735,40.29 43.435,40.29 C43.615,40.29 43.745,40.27 43.855,40.25 L43.855,41.02 C43.645,41.07 43.405,41.11 43.105,41.11 C42.085,41.11 41.615,40.55 41.615,39.6 L41.615,36.42 L40.545,36.42 Z M47.195,41.11 C45.515,41.11 44.555,39.87 44.555,38.32 C44.555,36.76 45.515,35.52 47.195,35.52 C48.885,35.52 49.825,36.78 49.825,38.32 C49.825,39.85 48.885,41.11 47.195,41.11 Z M47.185,36.33 C46.075,36.33 45.515,37.25 45.515,38.32 C45.515,39.38 46.075,40.3 47.185,40.3 C48.295,40.3 48.865,39.38 48.865,38.32 C48.865,37.25 48.295,36.33 47.185,36.33 Z M51.055,41 L51.055,35.63 L51.975,35.63 L51.995,36.44 L52.015,36.44 C52.375,35.77 52.875,35.52 53.395,35.52 C53.585,35.52 53.725,35.55 53.845,35.59 L53.845,36.52 C53.755,36.49 53.565,36.45 53.345,36.45 C52.455,36.45 52.005,37.08 52.005,37.74 L52.005,41 L51.055,41 Z M54.815,34.35 L54.815,33.32 L55.845,33.32 L55.845,34.35 L54.815,34.35 Z M55.805,41 L54.855,41 L54.855,35.63 L55.805,35.63 L55.805,41 Z M61.405,41 L60.475,41 L60.455,40.22 L60.435,40.22 C60.135,40.75 59.585,41.11 58.815,41.11 C57.765,41.11 57.085,40.44 57.085,39.49 C57.085,38.79 57.445,38.32 58.125,38.1 C58.715,37.91 59.585,37.87 60.465,37.84 L60.465,37.36 C60.465,36.81 60.085,36.32 59.275,36.32 C58.595,36.32 58.205,36.64 58.035,37.13 L57.245,36.75 C57.555,35.94 58.325,35.52 59.305,35.52 C60.585,35.52 61.405,36.19 61.405,37.36 L61.405,41 Z M59.035,40.31 C59.905,40.31 60.465,39.65 60.465,38.88 L60.465,38.57 C60.105,38.58 59.545,38.62 59.095,38.68 C58.485,38.76 58.035,38.93 58.035,39.48 C58.035,39.98 58.415,40.31 59.035,40.31 Z M63.915,41 L62.965,41 L62.965,33.32 L63.915,33.32 L63.915,41 Z M40.385,47.63 L41.345,47.63 L39.615,53 L38.645,53 L37.355,48.94 L37.335,48.94 L36.045,53 L35.075,53 L33.335,47.63 L34.335,47.63 L35.585,51.77 L35.605,51.77 L36.845,47.63 L37.865,47.63 L39.115,51.79 L39.135,51.79 L40.385,47.63 Z M44.585,53.11 C42.905,53.11 41.945,51.87 41.945,50.32 C41.945,48.76 42.905,47.52 44.585,47.52 C46.275,47.52 47.215,48.78 47.215,50.32 C47.215,51.85 46.275,53.11 44.585,53.11 Z M44.575,48.33 C43.465,48.33 42.905,49.25 42.905,50.32 C42.905,51.38 43.465,52.3 44.575,52.3 C45.685,52.3 46.255,51.38 46.255,50.32 C46.255,49.25 45.685,48.33 44.575,48.33 Z M48.445,53 L48.445,47.63 L49.365,47.63 L49.385,48.44 L49.405,48.44 C49.765,47.77 50.265,47.52 50.785,47.52 C50.975,47.52 51.115,47.55 51.235,47.59 L51.235,48.52 C51.145,48.49 50.955,48.45 50.735,48.45 C49.845,48.45 49.395,49.08 49.395,49.74 L49.395,53 L48.445,53 Z M55.565,53 L53.965,50.6 L53.195,50.6 L53.195,53 L52.245,53 L52.245,45.32 L53.195,45.32 L53.195,49.81 L54.015,49.81 L55.495,47.63 L56.625,47.63 L54.795,50.21 L56.715,53 L55.565,53 Z M20.185,61.9 L23.165,61.9 C23.105,61.02 22.665,60.32 21.715,60.32 C20.775,60.32 20.275,61 20.185,61.9 Z M23.245,63.65 L23.905,64.24 C23.425,64.8 22.735,65.11 21.875,65.11 C20.185,65.11 19.225,64 19.225,62.31 C19.225,60.69 20.185,59.52 21.735,59.52 C23.275,59.52 24.105,60.67 24.105,62.14 C24.105,62.3 24.095,62.55 24.075,62.69 L20.195,62.69 C20.295,63.71 20.885,64.3 21.885,64.3 C22.475,64.3 22.925,64.08 23.245,63.65 Z M29.675,65 L28.585,65 L27.145,62.87 L27.125,62.87 L25.695,65 L24.615,65 L26.545,62.26 L24.705,59.63 L25.815,59.63 L27.155,61.64 L27.175,61.64 L28.515,59.63 L29.585,59.63 L27.755,62.25 L29.675,65 Z M33.315,65.11 C32.545,65.11 31.955,64.8 31.545,64.22 L31.525,64.22 L31.525,66.83 L30.575,66.83 L30.575,59.63 L31.495,59.63 L31.515,60.48 L31.535,60.48 C31.945,59.87 32.605,59.52 33.355,59.52 C34.845,59.52 35.735,60.73 35.735,62.29 C35.735,63.83 34.815,65.11 33.315,65.11 Z M33.115,64.28 C34.205,64.28 34.775,63.38 34.775,62.31 C34.775,61.3 34.265,60.35 33.125,60.35 C32.055,60.35 31.495,61.27 31.495,62.34 C31.495,63.44 32.075,64.28 33.115,64.28 Z M37.605,61.9 L40.585,61.9 C40.525,61.02 40.085,60.32 39.135,60.32 C38.195,60.32 37.695,61 37.605,61.9 Z M40.665,63.65 L41.325,64.24 C40.845,64.8 40.155,65.11 39.295,65.11 C37.605,65.11 36.645,64 36.645,62.31 C36.645,60.69 37.605,59.52 39.155,59.52 C40.695,59.52 41.525,60.67 41.525,62.14 C41.525,62.3 41.515,62.55 41.495,62.69 L37.615,62.69 C37.715,63.71 38.305,64.3 39.305,64.3 C39.895,64.3 40.345,64.08 40.665,63.65 Z M42.715,65 L42.715,59.63 L43.635,59.63 L43.655,60.44 L43.675,60.44 C44.035,59.77 44.535,59.52 45.055,59.52 C45.245,59.52 45.385,59.55 45.505,59.59 L45.505,60.52 C45.415,60.49 45.225,60.45 45.005,60.45 C44.115,60.45 43.665,61.08 43.665,61.74 L43.665,65 L42.715,65 Z M46.475,58.35 L46.475,57.32 L47.505,57.32 L47.505,58.35 L46.475,58.35 Z M47.465,65 L46.515,65 L46.515,59.63 L47.465,59.63 L47.465,65 Z M49.655,61.9 L52.635,61.9 C52.575,61.02 52.135,60.32 51.185,60.32 C50.245,60.32 49.745,61 49.655,61.9 Z M52.715,63.65 L53.375,64.24 C52.895,64.8 52.205,65.11 51.345,65.11 C49.655,65.11 48.695,64 48.695,62.31 C48.695,60.69 49.655,59.52 51.205,59.52 C52.745,59.52 53.575,60.67 53.575,62.14 C53.575,62.3 53.565,62.55 53.545,62.69 L49.665,62.69 C49.765,63.71 50.355,64.3 51.355,64.3 C51.945,64.3 52.395,64.08 52.715,63.65 Z M54.765,65 L54.765,59.63 L55.685,59.63 L55.705,60.42 L55.725,60.42 C56.065,59.88 56.665,59.52 57.465,59.52 C58.625,59.52 59.355,60.27 59.355,61.4 L59.355,65 L58.405,65 L58.405,61.59 C58.405,60.89 57.995,60.34 57.185,60.34 C56.285,60.34 55.715,60.96 55.715,61.8 L55.715,65 L54.765,65 Z M63.185,65.11 C61.535,65.11 60.575,63.92 60.575,62.34 C60.575,60.75 61.525,59.52 63.175,59.52 C64.195,59.52 64.915,60.01 65.325,60.78 L64.535,61.23 C64.265,60.71 63.835,60.33 63.155,60.33 C62.105,60.33 61.535,61.21 61.535,62.32 C61.535,63.4 62.085,64.3 63.215,64.3 C63.925,64.3 64.355,63.94 64.615,63.43 L65.365,63.86 C64.985,64.61 64.225,65.11 63.185,65.11 Z M66.895,61.9 L69.875,61.9 C69.815,61.02 69.375,60.32 68.425,60.32 C67.485,60.32 66.985,61 66.895,61.9 Z M69.955,63.65 L70.615,64.24 C70.135,64.8 69.445,65.11 68.585,65.11 C66.895,65.11 65.935,64 65.935,62.31 C65.935,60.69 66.895,59.52 68.445,59.52 C69.985,59.52 70.815,60.67 70.815,62.14 C70.815,62.3 70.805,62.55 70.785,62.69 L66.905,62.69 C67.005,63.71 67.595,64.3 68.595,64.3 C69.185,64.3 69.635,64.08 69.955,63.65 Z" id="Editorial-work-exper" fill="#777777"></path>
                </g>
                <g id="Page-Copy-18" transform="translate(130.000000, 520.000000)">
                    <path d="M0,20 L90,20 L90,75 C90,77.7614237 87.7614237,80 85,80 L5,80 C2.23857625,80 3.38176876e-16,77.7614237 0,75 L0,20 Z" id="Rectangle" fill="#EEEEEE"></path>
                    <path d="M5,0 L85,0 C87.7614237,-5.07265313e-16 90,2.23857625 90,5 L90,20 L0,20 L0,5 C-3.38176876e-16,2.23857625 2.23857625,5.07265313e-16 5,0 Z" id="Rectangle" fill="#45AEC6"></path>
                    <path d="M6.69,14 L6.69,13.29 L9.25,10.73 C9.97,10.02 10.43,9.38 10.43,8.67 C10.43,7.93 9.94,7.42 9,7.42 C8.25,7.42 7.79,7.74 7.38,8.31 L6.67,7.76 C7.21,7.01 7.97,6.55 9.07,6.55 C10.55,6.55 11.42,7.38 11.42,8.6 C11.42,9.39 11.05,10.17 10.25,10.97 L8.1,13.11 L8.1,13.13 L11.57,13.13 L11.57,14 L6.69,14 Z M13.17,14 L13.17,12.9 L14.27,12.9 L14.27,14 L13.17,14 Z M21.32,11.48 L21.32,12.32 L19.98,12.32 L19.98,14 L19,14 L19,12.32 L15.3,12.32 L15.3,11.59 L18.74,6.66 L19.98,6.66 L19.98,11.48 L21.32,11.48 Z M16.37,11.48 L19,11.48 L19,7.75 L18.98,7.75 L16.37,11.48 Z" id="2.4" fill="#FFFFFF"></path>
                    <path d="M28.72,43.05 L28.72,43.07 C29.48,43.31 30.09,43.93 30.09,44.9 C30.09,46.25 28.92,47 27.5,47 L24.38,47 L24.38,39.32 L27.57,39.32 C29,39.32 29.91,40.13 29.91,41.32 C29.91,42.16 29.45,42.74 28.72,43.05 Z M27.55,40.2 L25.38,40.2 L25.38,42.7 L27.54,42.7 C28.31,42.7 28.9,42.28 28.9,41.44 C28.9,40.61 28.32,40.2 27.55,40.2 Z M25.38,46.12 L27.67,46.12 C28.45,46.12 29.07,45.7 29.07,44.84 C29.07,43.99 28.48,43.57 27.67,43.57 L25.38,43.57 L25.38,46.12 Z M35.85,41.63 L35.85,47 L34.92,47 L34.91,46.21 L34.89,46.21 C34.54,46.74 33.93,47.11 33.15,47.11 C31.99,47.11 31.26,46.36 31.26,45.23 L31.26,41.63 L32.21,41.63 L32.21,45.04 C32.21,45.74 32.6,46.29 33.43,46.29 C34.33,46.29 34.9,45.67 34.9,44.83 L34.9,41.63 L35.85,41.63 Z M39.18,47.11 C38.23,47.11 37.49,46.83 36.93,46.3 L37.51,45.65 C37.98,46.1 38.57,46.31 39.21,46.31 C40.06,46.31 40.47,46 40.47,45.54 C40.47,45.03 39.93,44.91 39.03,44.72 C38.02,44.5 37.12,44.19 37.12,43.15 C37.12,42.23 37.84,41.52 39.24,41.52 C40.1,41.52 40.77,41.78 41.33,42.29 L40.76,42.94 C40.3,42.52 39.79,42.32 39.21,42.32 C38.46,42.32 38.08,42.64 38.08,43.05 C38.08,43.55 38.56,43.66 39.49,43.86 C40.48,44.08 41.43,44.36 41.43,45.43 C41.43,46.41 40.65,47.11 39.18,47.11 Z M42.54,40.35 L42.54,39.32 L43.57,39.32 L43.57,40.35 L42.54,40.35 Z M43.53,47 L42.58,47 L42.58,41.63 L43.53,41.63 L43.53,47 Z M45.11,47 L45.11,41.63 L46.03,41.63 L46.05,42.42 L46.07,42.42 C46.41,41.88 47.01,41.52 47.81,41.52 C48.97,41.52 49.7,42.27 49.7,43.4 L49.7,47 L48.75,47 L48.75,43.59 C48.75,42.89 48.34,42.34 47.53,42.34 C46.63,42.34 46.06,42.96 46.06,43.8 L46.06,47 L45.11,47 Z M51.87,43.9 L54.85,43.9 C54.79,43.02 54.35,42.32 53.4,42.32 C52.46,42.32 51.96,43 51.87,43.9 Z M54.93,45.65 L55.59,46.24 C55.11,46.8 54.42,47.11 53.56,47.11 C51.87,47.11 50.91,46 50.91,44.31 C50.91,42.69 51.87,41.52 53.42,41.52 C54.96,41.52 55.79,42.67 55.79,44.14 C55.79,44.3 55.78,44.55 55.76,44.69 L51.88,44.69 C51.98,45.71 52.57,46.3 53.57,46.3 C54.16,46.3 54.61,46.08 54.93,45.65 Z M58.73,47.11 C57.78,47.11 57.04,46.83 56.48,46.3 L57.06,45.65 C57.53,46.1 58.12,46.31 58.76,46.31 C59.61,46.31 60.02,46 60.02,45.54 C60.02,45.03 59.48,44.91 58.58,44.72 C57.57,44.5 56.67,44.19 56.67,43.15 C56.67,42.23 57.39,41.52 58.79,41.52 C59.65,41.52 60.32,41.78 60.88,42.29 L60.31,42.94 C59.85,42.52 59.34,42.32 58.76,42.32 C58.01,42.32 57.63,42.64 57.63,43.05 C57.63,43.55 58.11,43.66 59.04,43.86 C60.03,44.08 60.98,44.36 60.98,45.43 C60.98,46.41 60.2,47.11 58.73,47.11 Z M63.88,47.11 C62.93,47.11 62.19,46.83 61.63,46.3 L62.21,45.65 C62.68,46.1 63.27,46.31 63.91,46.31 C64.76,46.31 65.17,46 65.17,45.54 C65.17,45.03 64.63,44.91 63.73,44.72 C62.72,44.5 61.82,44.19 61.82,43.15 C61.82,42.23 62.54,41.52 63.94,41.52 C64.8,41.52 65.47,41.78 66.03,42.29 L65.46,42.94 C65,42.52 64.49,42.32 63.91,42.32 C63.16,42.32 62.78,42.64 62.78,43.05 C62.78,43.55 63.26,43.66 64.19,43.86 C65.18,44.08 66.13,44.36 66.13,45.43 C66.13,46.41 65.35,47.11 63.88,47.11 Z M22.42,59.11 C20.74,59.11 19.78,57.87 19.78,56.32 C19.78,54.76 20.74,53.52 22.42,53.52 C24.11,53.52 25.05,54.78 25.05,56.32 C25.05,57.85 24.11,59.11 22.42,59.11 Z M22.41,54.33 C21.3,54.33 20.74,55.25 20.74,56.32 C20.74,57.38 21.3,58.3 22.41,58.3 C23.52,58.3 24.09,57.38 24.09,56.32 C24.09,55.25 23.52,54.33 22.41,54.33 Z M29.02,59.11 C28.25,59.11 27.66,58.8 27.25,58.22 L27.23,58.22 L27.23,60.83 L26.28,60.83 L26.28,53.63 L27.2,53.63 L27.22,54.48 L27.24,54.48 C27.65,53.87 28.31,53.52 29.06,53.52 C30.55,53.52 31.44,54.73 31.44,56.29 C31.44,57.83 30.52,59.11 29.02,59.11 Z M28.82,58.28 C29.91,58.28 30.48,57.38 30.48,56.31 C30.48,55.3 29.97,54.35 28.83,54.35 C27.76,54.35 27.2,55.27 27.2,56.34 C27.2,57.44 27.78,58.28 28.82,58.28 Z M33.31,55.9 L36.29,55.9 C36.23,55.02 35.79,54.32 34.84,54.32 C33.9,54.32 33.4,55 33.31,55.9 Z M36.37,57.65 L37.03,58.24 C36.55,58.8 35.86,59.11 35,59.11 C33.31,59.11 32.35,58 32.35,56.31 C32.35,54.69 33.31,53.52 34.86,53.52 C36.4,53.52 37.23,54.67 37.23,56.14 C37.23,56.3 37.22,56.55 37.2,56.69 L33.32,56.69 C33.42,57.71 34.01,58.3 35.01,58.3 C35.6,58.3 36.05,58.08 36.37,57.65 Z M38.42,59 L38.42,53.63 L39.34,53.63 L39.36,54.44 L39.38,54.44 C39.74,53.77 40.24,53.52 40.76,53.52 C40.95,53.52 41.09,53.55 41.21,53.59 L41.21,54.52 C41.12,54.49 40.93,54.45 40.71,54.45 C39.82,54.45 39.37,55.08 39.37,55.74 L39.37,59 L38.42,59 Z M46.24,59 L45.31,59 L45.29,58.22 L45.27,58.22 C44.97,58.75 44.42,59.11 43.65,59.11 C42.6,59.11 41.92,58.44 41.92,57.49 C41.92,56.79 42.28,56.32 42.96,56.1 C43.55,55.91 44.42,55.87 45.3,55.84 L45.3,55.36 C45.3,54.81 44.92,54.32 44.11,54.32 C43.43,54.32 43.04,54.64 42.87,55.13 L42.08,54.75 C42.39,53.94 43.16,53.52 44.14,53.52 C45.42,53.52 46.24,54.19 46.24,55.36 L46.24,59 Z M43.87,58.31 C44.74,58.31 45.3,57.65 45.3,56.88 L45.3,56.57 C44.94,56.58 44.38,56.62 43.93,56.68 C43.32,56.76 42.87,56.93 42.87,57.48 C42.87,57.98 43.25,58.31 43.87,58.31 Z M47.11,54.42 L47.11,53.63 L48.18,53.63 L48.18,51.93 L49.13,51.93 L49.13,53.63 L50.42,53.63 L50.42,54.42 L49.13,54.42 L49.13,57.36 C49.13,58 49.3,58.29 50,58.29 C50.18,58.29 50.31,58.27 50.42,58.25 L50.42,59.02 C50.21,59.07 49.97,59.11 49.67,59.11 C48.65,59.11 48.18,58.55 48.18,57.6 L48.18,54.42 L47.11,54.42 Z M51.43,52.35 L51.43,51.32 L52.46,51.32 L52.46,52.35 L51.43,52.35 Z M52.42,59 L51.47,59 L51.47,53.63 L52.42,53.63 L52.42,59 Z M56.29,59.11 C54.61,59.11 53.65,57.87 53.65,56.32 C53.65,54.76 54.61,53.52 56.29,53.52 C57.98,53.52 58.92,54.78 58.92,56.32 C58.92,57.85 57.98,59.11 56.29,59.11 Z M56.28,54.33 C55.17,54.33 54.61,55.25 54.61,56.32 C54.61,57.38 55.17,58.3 56.28,58.3 C57.39,58.3 57.96,57.38 57.96,56.32 C57.96,55.25 57.39,54.33 56.28,54.33 Z M60.15,59 L60.15,53.63 L61.07,53.63 L61.09,54.42 L61.11,54.42 C61.45,53.88 62.05,53.52 62.85,53.52 C64.01,53.52 64.74,54.27 64.74,55.4 L64.74,59 L63.79,59 L63.79,55.59 C63.79,54.89 63.38,54.34 62.57,54.34 C61.67,54.34 61.1,54.96 61.1,55.8 L61.1,59 L60.15,59 Z M68.05,59.11 C67.1,59.11 66.36,58.83 65.8,58.3 L66.38,57.65 C66.85,58.1 67.44,58.31 68.08,58.31 C68.93,58.31 69.34,58 69.34,57.54 C69.34,57.03 68.8,56.91 67.9,56.72 C66.89,56.5 65.99,56.19 65.99,55.15 C65.99,54.23 66.71,53.52 68.11,53.52 C68.97,53.52 69.64,53.78 70.2,54.29 L69.63,54.94 C69.17,54.52 68.66,54.32 68.08,54.32 C67.33,54.32 66.95,54.64 66.95,55.05 C66.95,55.55 67.43,55.66 68.36,55.86 C69.35,56.08 70.3,56.36 70.3,57.43 C70.3,58.41 69.52,59.11 68.05,59.11 Z" id="Business-operations" fill="#777777"></path>
                </g>
                <path d="M350.5,80.5 L350.5,99.5" id="Line-2-Copy-10" stroke="#EEEEEE" stroke-linecap="square"></path>
                <path d="M50.5,100.5 L650.5,100.5" id="Line" stroke="#EEEEEE" stroke-linecap="square"></path>
                <path d="M50.5,100.5 L50.5,119.5" id="Line-2" stroke="#EEEEEE" stroke-linecap="square"></path>
                <path d="M170.5,100.5 L170.5,119.5" id="Line-2-Copy" stroke="#EEEEEE" stroke-linecap="square"></path>
                <path d="M290.5,100.5 L290.5,119.5" id="Line-2-Copy-2" stroke="#EEEEEE" stroke-linecap="square"></path>
                <path d="M410.5,100.5 L410.5,119.5" id="Line-2-Copy-3" stroke="#EEEEEE" stroke-linecap="square"></path>
                <path d="M530.5,100.5 L530.5,119.5" id="Line-2-Copy-4" stroke="#EEEEEE" stroke-linecap="square"></path>
                <path d="M650.5,100.5 L650.5,119.5" id="Line-2-Copy-5" stroke="#EEEEEE" stroke-linecap="square"></path>
                <path d="M230.5,130.5 L230.5,529.5" id="Line-2-Copy-11" stroke="#EEEEEE" stroke-linecap="square"></path>
                <path d="M110.5,130.5 L110.5,529.5" id="Line-2-Copy-12" stroke="#EEEEEE" stroke-linecap="square"></path>
                <path d="M590.5,130.5 L590.5,229.5" id="Line-2-Copy-9" stroke="#EEEEEE" stroke-linecap="square"></path>
                <path d="M230.5,130.5 L239.5,130.5" id="Line-3-Copy-5" stroke="#EEEEEE" stroke-linecap="square"></path>
                <path d="M110.5,130.5 L119.5,130.5" id="Line-3-Copy-10" stroke="#EEEEEE" stroke-linecap="square"></path>
                <path d="M590.5,130.5 L599.5,130.5" id="Line-3-Copy-3" stroke="#EEEEEE" stroke-linecap="square"></path>
                <path d="M230.5,230.5 L249.5,230.5" id="Line-3-Copy-6" stroke="#EEEEEE" stroke-linecap="square"></path>
                <path d="M110.5,230.5 L129.5,230.5" id="Line-3-Copy-11" stroke="#EEEEEE" stroke-linecap="square"></path>
                <path d="M590.5,230.5 L609.5,230.5" id="Line-3-Copy-4" stroke="#EEEEEE" stroke-linecap="square"></path>
                <path d="M230.5,330.5 L249.5,330.5" id="Line-3-Copy-7" stroke="#EEEEEE" stroke-linecap="square"></path>
                <path d="M110.5,330.5 L129.5,330.5" id="Line-3-Copy-12" stroke="#EEEEEE" stroke-linecap="square"></path>
                <path d="M230.5,430.5 L249.5,430.5" id="Line-3-Copy-8" stroke="#EEEEEE" stroke-linecap="square"></path>
                <path d="M110.5,430.5 L129.5,430.5" id="Line-3-Copy-13" stroke="#EEEEEE" stroke-linecap="square"></path>
                <path d="M230.5,530.5 L249.5,530.5" id="Line-3-Copy-9" stroke="#EEEEEE" stroke-linecap="square"></path>
                <path d="M110.5,530.5 L129.5,530.5" id="Line-3-Copy-14" stroke="#EEEEEE" stroke-linecap="square"></path>
            </g>
        </g>
    </g>
</svg>