<?xml version="1.0" encoding="UTF-8" standalone="no"?>
<svg width="51px" height="59px" viewBox="0 0 51 59" version="1.1" xmlns="http://www.w3.org/2000/svg" xmlns:xlink="http://www.w3.org/1999/xlink">
    <!-- Generator: Sketch 49 (51002) - http://www.bohemiancoding.com/sketch -->
    <title>Group 16</title>
    <desc>Created with Sketch.</desc>
    <defs>
        <path d="M16.3763371,0.0875957175 C25.2620816,0.0875957175 32.4654474,7.27398189 32.4654474,16.1389912 C32.4654474,19.6778985 31.3167317,22.9485017 29.3719958,25.6020748 C26.54268,30.0396683 25.0099576,33.2691514 24.3902854,36.406009 C24.2662151,37.03362 23.7173784,37.4851646 23.0762763,37.4851646 L9.67620645,37.4851646 C9.03650631,37.4851646 8.48605157,37.0322237 8.36219123,36.406009 C7.74250662,33.2691514 6.20979045,30.0396683 3.38046843,25.6020748 C1.43595491,22.9485017 0.287023002,19.6778985 0.287023002,16.1389912 C0.287023002,7.27398189 7.49038881,0.0875957175 16.3763371,0.0875957175 Z M16.3763371,2.60543734 C8.89624324,2.60543734 2.81080102,8.67653734 2.81080102,16.1389912 C2.81080102,19.0303325 3.71222221,21.7887009 5.41781545,24.1158923 L5.46604169,24.1817675 L5.51006226,24.250637 C8.29215851,28.6143683 9.86169435,31.888965 10.6260515,34.9673354 L22.1264251,34.9673354 C22.8907884,31.888965 24.4603181,28.6143683 27.2426058,24.250637 L27.2864226,24.1817675 L27.334655,24.1158923 C29.0402668,21.7887009 29.9416756,19.0303325 29.9416756,16.1389912 C29.9416756,8.67653734 23.8562396,2.60543734 16.3763371,2.60543734 Z" id="path-1"></path>
        <path d="M1.15489842,0.21396662 C1.73680301,0.215744881 2.20801836,0.695234379 2.20801836,1.28642622 L2.20801836,4.86022808 C2.20801836,5.45249029 1.73504854,5.93269264 1.15165041,5.93269264 C0.568257985,5.93269264 0.0952881716,5.45249029 0.0952881716,4.86022808 L0.0952881716,1.28642622 C0.0952881716,0.695234379 0.566503523,0.215744881 1.14840243,0.21396662 L1.15489842,0.21396662 Z" id="path-3"></path>
        <path d="M3.2965791,0.0455313131 C3.50578377,0.0455313131 3.71701511,0.109716162 3.90141437,0.243538889 C4.37939664,0.59029798 4.49554534,1.2729697 4.16094347,1.76830152 L2.14180019,4.7569197 C1.93630634,5.06094848 1.60852668,5.22391364 1.27558041,5.22391364 C1.06620448,5.22391364 0.854973134,5.1594904 0.670545336,5.02569747 C0.192591604,4.67887879 0.0766141791,3.99626667 0.411216045,3.50087525 L2.43035933,0.512465657 C2.6356819,0.208228283 2.96343302,0.0455313131 3.2965791,0.0455313131 Z" id="path-5"></path>
        <path d="M5.30734164,0.31135025 C5.82522381,0.31135025 6.31131851,0.638968232 6.49865216,1.16653786 C6.73815425,1.84090609 6.39900806,2.58646334 5.74109664,2.83192927 L1.77146597,4.31282338 C1.62852515,4.36629471 1.48205619,4.39154505 1.33822478,4.39154505 C0.820376866,4.39154505 0.33424791,4.06392707 0.146914254,3.53632208 C-0.0925878358,2.86195385 0.246558358,2.1163966 0.904469776,1.87093067 L4.87410045,0.390036563 C5.01704127,0.336565235 5.16354448,0.31135025 5.30734164,0.31135025 Z" id="path-7"></path>
        <path d="M1.46723412,0.0354487603 C1.57058252,0.0354487603 1.67565991,0.049564876 1.78031322,0.0793644038 L5.66635011,1.18311021 C6.31048337,1.36594752 6.69268977,2.06772013 6.52018145,2.75022544 C6.37559808,3.32203784 5.88769446,3.69891688 5.35477164,3.69891688 C5.25119488,3.69891688 5.14611748,3.68480077 5.04146418,3.65500124 L1.15542729,2.55147834 C0.511522388,2.36841812 0.129348614,1.66686842 0.301824307,0.984140201 C0.446440299,0.412550708 0.934082942,0.0354487603 1.46723412,0.0354487603 Z" id="path-9"></path>
        <path d="M3.2965791,0.0455313131 C3.50578377,0.0455313131 3.71701511,0.109716162 3.90141437,0.243538889 C4.37939664,0.59029798 4.49554534,1.2729697 4.16094347,1.76830152 L2.14180019,4.7569197 C1.93630634,5.06094848 1.60852668,5.22391364 1.27558041,5.22391364 C1.06620448,5.22391364 0.854973134,5.1594904 0.670545336,5.02569747 C0.192591604,4.67887879 0.0766141791,3.99626667 0.411216045,3.50087525 L2.43035933,0.512465657 C2.6356819,0.208228283 2.96343302,0.0455313131 3.2965791,0.0455313131 Z" id="path-11"></path>
        <path d="M5.30734164,0.31135025 C5.82522381,0.31135025 6.31131851,0.638968232 6.49865216,1.16653786 C6.73815425,1.84090609 6.39900806,2.58646334 5.74109664,2.83192927 L1.77146597,4.31282338 C1.62852515,4.36629471 1.48205619,4.39154505 1.33822478,4.39154505 C0.820376866,4.39154505 0.33424791,4.06392707 0.146914254,3.53632208 C-0.0925878358,2.86195385 0.246558358,2.1163966 0.904469776,1.87093067 L4.87410045,0.390036563 C5.01704127,0.336565235 5.16354448,0.31135025 5.30734164,0.31135025 Z" id="path-13"></path>
        <path d="M1.46723412,0.0354487603 C1.57058252,0.0354487603 1.67565991,0.049564876 1.78031322,0.0793644038 L5.66635011,1.18311021 C6.31048337,1.36594752 6.69268977,2.06772013 6.52018145,2.75022544 C6.37559808,3.32203784 5.88769446,3.69891688 5.35477164,3.69891688 C5.25119488,3.69891688 5.14611748,3.68480077 5.04146418,3.65500124 L1.15542729,2.55147834 C0.511522388,2.36841812 0.129348614,1.66686842 0.301824307,0.984140201 C0.446440299,0.412550708 0.934082942,0.0354487603 1.46723412,0.0354487603 Z" id="path-15"></path>
    </defs>
    <g id="Page-1" stroke="none" stroke-width="1" fill="none" fill-rule="evenodd">
        <g id="Group-16" transform="translate(-1.000000, 0.000000)">
            <g id="Group-15" transform="translate(10.134328, 9.961039)">
                <mask id="mask-2" fill="white">
                    <use xlink:href="#path-1"></use>
                </mask>
                <use id="Clip-14" fill="#4A4A4A" xlink:href="#path-1"></use>
            </g>
            <rect id="Rectangle-19" fill="#4A4A4A" x="19.2686567" y="49.038961" width="14.4626866" height="2.2987013" rx="1.14935065"></rect>
            <rect id="Rectangle-19" fill="#4A4A4A" x="20.7910448" y="52.8701299" width="11.4179104" height="2.2987013" rx="1.14935065"></rect>
            <rect id="Rectangle-19" fill="#4A4A4A" x="21.5522388" y="56.7012987" width="9.89552239" height="2.2987013" rx="1.14935065"></rect>
            <g id="Group-18" transform="translate(25.358209, 0.000000)">
                <mask id="mask-4" fill="white">
                    <use xlink:href="#path-3"></use>
                </mask>
                <g id="Clip-17"></g>
                <polygon id="Fill-16" fill="#4A4A4A" mask="url(#mask-4)" points="-1.89792504 -1.81251503 4.20123157 -1.81251503 4.20123157 7.95916933 -1.89792504 7.95916933"></polygon>
            </g>
            <g id="Group-21" transform="translate(37.537313, 4.597403)">
                <mask id="mask-6" fill="white">
                    <use xlink:href="#path-5"></use>
                </mask>
                <g id="Clip-20"></g>
                <polygon id="Fill-19" fill="#4A4A4A" mask="url(#mask-6)" points="-1.77317295 -2.02319343 6.34524683 -2.02319343 6.34524683 7.29260859 -1.77317295 7.29260859"></polygon>
            </g>
            <g id="Group-24" transform="translate(45.149254, 16.090909)">
                <mask id="mask-8" fill="white">
                    <use xlink:href="#path-7"></use>
                </mask>
                <g id="Clip-23"></g>
                <polygon id="Fill-22" fill="#4A4A4A" mask="url(#mask-8)" points="-2.32175216 -2.14383956 8.96731858 -2.14383956 8.96731858 6.8466995 -2.32175216 6.8466995"></polygon>
            </g>
            <g id="Group-27" transform="translate(45.149254, 30.649351)">
                <mask id="mask-10" fill="white">
                    <use xlink:href="#path-9"></use>
                </mask>
                <g id="Clip-26"></g>
                <polygon id="Fill-25" fill="#4A4A4A" mask="url(#mask-10)" points="-2.01754478 -2.38253424 8.83955053 -2.38253424 8.83955053 6.11688595 -2.01754478 6.11688595"></polygon>
            </g>
            <g id="Group-5" transform="translate(7.962687, 20.097403) scale(-1, 1) translate(-7.962687, -20.097403) translate(0.462687, 4.597403)">
                <g id="Group-21">
                    <mask id="mask-12" fill="white">
                        <use xlink:href="#path-11"></use>
                    </mask>
                    <g id="Clip-20"></g>
                    <polygon id="Fill-19" fill="#4A4A4A" mask="url(#mask-12)" points="-1.77317295 -2.02319343 6.34524683 -2.02319343 6.34524683 7.29260859 -1.77317295 7.29260859"></polygon>
                </g>
                <g id="Group-24" transform="translate(7.611940, 11.493506)">
                    <mask id="mask-14" fill="white">
                        <use xlink:href="#path-13"></use>
                    </mask>
                    <g id="Clip-23"></g>
                    <polygon id="Fill-22" fill="#4A4A4A" mask="url(#mask-14)" points="-2.32175216 -2.14383956 8.96731858 -2.14383956 8.96731858 6.8466995 -2.32175216 6.8466995"></polygon>
                </g>
                <g id="Group-27" transform="translate(7.611940, 26.051948)">
                    <mask id="mask-16" fill="white">
                        <use xlink:href="#path-15"></use>
                    </mask>
                    <g id="Clip-26"></g>
                    <polygon id="Fill-25" fill="#4A4A4A" mask="url(#mask-16)" points="-2.01754478 -2.38253424 8.83955053 -2.38253424 8.83955053 6.11688595 -2.01754478 6.11688595"></polygon>
                </g>
            </g>
        </g>
    </g>
</svg>