<?xml version="1.0" encoding="UTF-8" standalone="no"?>
<svg width="700px" height="600px" viewBox="0 0 700 600" version="1.1" xmlns="http://www.w3.org/2000/svg" xmlns:xlink="http://www.w3.org/1999/xlink">
    <!-- Generator: Sketch 49 (51002) - http://www.bohemiancoding.com/sketch -->
    <title>Group</title>
    <desc>Created with Sketch.</desc>
    <defs></defs>
    <g id="Page-1" stroke="none" stroke-width="1" fill="none" fill-rule="evenodd">
        <g id="Desktop-HD" transform="translate(-100.000000, -200.000000)">
            <g id="Group" transform="translate(100.000000, 200.000000)">
                <g id="Page" transform="translate(300.000000, 0.000000)">
                    <path d="M0,20 L100,20 L100,75 C100,77.7614237 97.7614237,80 95,80 L5,80 C2.23857625,80 3.38176876e-16,77.7614237 0,75 L0,20 Z" id="Rectangle" fill="#EEEEEE"></path>
                    <path d="M5,0 L95,0 C97.7614237,-5.07265313e-16 100,2.23857625 100,5 L100,20 L0,20 L0,5 C-3.38176876e-16,2.23857625 2.23857625,5.07265313e-16 5,0 Z" id="Rectangle" fill="#777777"></path>
                    <text id="0.0" font-family="Usual-Regular, Usual" font-size="10" font-weight="normal" fill="#FFFFFF">
                        <tspan x="6" y="14">0.0</tspan>
                    </text>
                    <text id="Work-for-us" font-family="Usual-Regular, Usual" font-size="10" font-weight="normal" fill="#777777">
                        <tspan x="21.995" y="53">Work for us</tspan>
                    </text>
                </g>
                <g id="Page-Copy" transform="translate(0.000000, 120.000000)">
                    <path d="M0,20 L100,20 L100,75 C100,77.7614237 97.7614237,80 95,80 L5,80 C2.23857625,80 3.38176876e-16,77.7614237 0,75 L0,20 Z" id="Rectangle" fill="#EEEEEE"></path>
                    <path d="M5,0 L95,0 C97.7614237,-5.07265313e-16 100,2.23857625 100,5 L100,20 L0,20 L0,5 C-3.38176876e-16,2.23857625 2.23857625,5.07265313e-16 5,0 Z" id="Rectangle" fill="#777777"></path>
                    <text id="1.0" font-family="Usual-Regular, Usual" font-size="10" font-weight="normal" fill="#FFFFFF">
                        <tspan x="6" y="14">1.0</tspan>
                    </text>
                    <text id="About-us" font-family="Usual-Regular, Usual" font-size="10" font-weight="normal" fill="#777777">
                        <tspan x="28.765" y="53">About us</tspan>
                    </text>
                </g>
                <g id="Page-Copy-2" transform="translate(120.000000, 120.000000)">
                    <path d="M0,20 L100,20 L100,75 C100,77.7614237 97.7614237,80 95,80 L5,80 C2.23857625,80 3.38176876e-16,77.7614237 0,75 L0,20 Z" id="Rectangle" fill="#EEEEEE"></path>
                    <path d="M5,0 L95,0 C97.7614237,-5.07265313e-16 100,2.23857625 100,5 L100,20 L0,20 L0,5 C-3.38176876e-16,2.23857625 2.23857625,5.07265313e-16 5,0 Z" id="Rectangle" fill="#777777"></path>
                    <text id="2.0" font-family="Usual-Regular, Usual" font-size="10" font-weight="normal" fill="#FFFFFF">
                        <tspan x="6" y="14">2.0</tspan>
                    </text>
                    <text id="Careers" font-family="Usual-Regular, Usual" font-size="10" font-weight="normal" fill="#777777">
                        <tspan x="31.515" y="53">Careers</tspan>
                    </text>
                </g>
                <g id="Page-Copy-3" transform="translate(240.000000, 120.000000)">
                    <path d="M0,20 L100,20 L100,75 C100,77.7614237 97.7614237,80 95,80 L5,80 C2.23857625,80 3.38176876e-16,77.7614237 0,75 L0,20 Z" id="Rectangle" fill="#EEEEEE"></path>
                    <path d="M5,0 L95,0 C97.7614237,-5.07265313e-16 100,2.23857625 100,5 L100,20 L0,20 L0,5 C-3.38176876e-16,2.23857625 2.23857625,5.07265313e-16 5,0 Z" id="Rectangle" fill="#777777"></path>
                    <text id="3.0" font-family="Usual-Regular, Usual" font-size="10" font-weight="normal" fill="#FFFFFF">
                        <tspan x="6" y="14">3.0</tspan>
                    </text>
                    <text id="Entry-level-opportun" font-family="Usual-Regular, Usual" font-size="10" font-weight="normal" fill="#777777">
                        <tspan x="25.115" y="47">Entry level</tspan>
                        <tspan x="17.745" y="59">opportunities</tspan>
                    </text>
                </g>
                <g id="Page-Copy-4" transform="translate(360.000000, 120.000000)">
                    <path d="M0,20 L100,20 L100,75 C100,77.7614237 97.7614237,80 95,80 L5,80 C2.23857625,80 3.38176876e-16,77.7614237 0,75 L0,20 Z" id="Rectangle" fill="#EEEEEE"></path>
                    <path d="M5,0 L95,0 C97.7614237,-5.07265313e-16 100,2.23857625 100,5 L100,20 L0,20 L0,5 C-3.38176876e-16,2.23857625 2.23857625,5.07265313e-16 5,0 Z" id="Rectangle" fill="#777777"></path>
                    <text id="4.0" font-family="Usual-Regular, Usual" font-size="10" font-weight="normal" fill="#FFFFFF">
                        <tspan x="6" y="14">4.0</tspan>
                    </text>
                    <text id="FAQs" font-family="Usual-Regular, Usual" font-size="10" font-weight="normal" fill="#777777">
                        <tspan x="36.6" y="53">FAQs</tspan>
                    </text>
                </g>
                <g id="Page-Copy-5" transform="translate(480.000000, 120.000000)">
                    <path d="M0,20 L100,20 L100,75 C100,77.7614237 97.7614237,80 95,80 L5,80 C2.23857625,80 3.38176876e-16,77.7614237 0,75 L0,20 Z" id="Rectangle" fill="#EEEEEE"></path>
                    <path d="M5,0 L95,0 C97.7614237,-5.07265313e-16 100,2.23857625 100,5 L100,20 L0,20 L0,5 C-3.38176876e-16,2.23857625 2.23857625,5.07265313e-16 5,0 Z" id="Rectangle" fill="#777777"></path>
                    <text id="5.0" font-family="Usual-Regular, Usual" font-size="10" font-weight="normal" fill="#FFFFFF">
                        <tspan x="6" y="14">5.0</tspan>
                    </text>
                    <text id="Locations" font-family="Usual-Regular, Usual" font-size="10" font-weight="normal" fill="#777777">
                        <tspan x="26.66" y="53">Locations</tspan>
                    </text>
                </g>
                <g id="Page-Copy-6" transform="translate(600.000000, 120.000000)">
                    <path d="M0,20 L100,20 L100,75 C100,77.7614237 97.7614237,80 95,80 L5,80 C2.23857625,80 3.38176876e-16,77.7614237 0,75 L0,20 Z" id="Rectangle" fill="#EEEEEE"></path>
                    <path d="M5,0 L95,0 C97.7614237,-5.07265313e-16 100,2.23857625 100,5 L100,20 L0,20 L0,5 C-3.38176876e-16,2.23857625 2.23857625,5.07265313e-16 5,0 Z" id="Rectangle" fill="#777777"></path>
                    <text id="6.0" font-family="Usual-Regular, Usual" font-size="10" font-weight="normal" fill="#FFFFFF">
                        <tspan x="6" y="14">6.0</tspan>
                    </text>
                    <text id="Search-jobs-and-appl" font-family="Usual-Regular, Usual" font-size="10" font-weight="normal" fill="#777777">
                        <tspan x="22.13" y="47">Search jobs</tspan>
                        <tspan x="26.475" y="59">and apply</tspan>
                    </text>
                </g>
                <g id="Page-Copy-10" transform="translate(250.000000, 220.000000)">
                    <path d="M0,20 L90,20 L90,75 C90,77.7614237 87.7614237,80 85,80 L5,80 C2.23857625,80 3.38176876e-16,77.7614237 0,75 L0,20 Z" id="Rectangle" fill="#EEEEEE"></path>
                    <path d="M5,0 L85,0 C87.7614237,-5.07265313e-16 90,2.23857625 90,5 L90,20 L0,20 L0,5 C-3.38176876e-16,2.23857625 2.23857625,5.07265313e-16 5,0 Z" id="Rectangle" fill="#777777"></path>
                    <text id="3.1" font-family="Usual-Regular, Usual" font-size="10" font-weight="normal" fill="#FFFFFF">
                        <tspan x="6" y="14">3.1</tspan>
                    </text>
                    <text id="Graduates" font-family="Usual-Regular, Usual" font-size="10" font-weight="normal" fill="#777777">
                        <tspan x="19.975" y="53">Graduates</tspan>
                    </text>
                </g>
                <g id="Page-Copy-15" transform="translate(130.000000, 220.000000)">
                    <path d="M0,20 L90,20 L90,75 C90,77.7614237 87.7614237,80 85,80 L5,80 C2.23857625,80 3.38176876e-16,77.7614237 0,75 L0,20 Z" id="Rectangle" fill="#EEEEEE"></path>
                    <path d="M5,0 L85,0 C87.7614237,-5.07265313e-16 90,2.23857625 90,5 L90,20 L0,20 L0,5 C-3.38176876e-16,2.23857625 2.23857625,5.07265313e-16 5,0 Z" id="Rectangle" fill="#777777"></path>
                    <text id="2.1" font-family="Usual-Regular, Usual" font-size="10" font-weight="normal" fill="#FFFFFF">
                        <tspan x="6" y="14">2.1</tspan>
                    </text>
                    <text id="Editorial" font-family="Usual-Regular, Usual" font-size="10" font-weight="normal" fill="#777777">
                        <tspan x="25.295" y="53">Editorial</tspan>
                    </text>
                </g>
                <g id="Page-Copy-14" transform="translate(610.000000, 220.000000)">
                    <path d="M0,20 L90,20 L90,75 C90,77.7614237 87.7614237,80 85,80 L5,80 C2.23857625,80 3.38176876e-16,77.7614237 0,75 L0,20 Z" id="Rectangle" fill="#EEEEEE"></path>
                    <path d="M5,0 L85,0 C87.7614237,-5.07265313e-16 90,2.23857625 90,5 L90,20 L0,20 L0,5 C-3.38176876e-16,2.23857625 2.23857625,5.07265313e-16 5,0 Z" id="Rectangle" fill="#777777"></path>
                    <text id="6.1" font-family="Usual-Regular, Usual" font-size="10" font-weight="normal" fill="#FFFFFF">
                        <tspan x="6" y="14">6.1</tspan>
                    </text>
                    <text id="Training" font-family="Usual-Regular, Usual" font-size="10" font-weight="normal" fill="#777777">
                        <tspan x="25.175" y="53">Training</tspan>
                    </text>
                </g>
                <g id="Page-Copy-11" transform="translate(250.000000, 320.000000)">
                    <path d="M0,20 L90,20 L90,75 C90,77.7614237 87.7614237,80 85,80 L5,80 C2.23857625,80 3.38176876e-16,77.7614237 0,75 L0,20 Z" id="Rectangle" fill="#EEEEEE"></path>
                    <path d="M5,0 L85,0 C87.7614237,-5.07265313e-16 90,2.23857625 90,5 L90,20 L0,20 L0,5 C-3.38176876e-16,2.23857625 2.23857625,5.07265313e-16 5,0 Z" id="Rectangle" fill="#777777"></path>
                    <text id="3.2" font-family="Usual-Regular, Usual" font-size="10" font-weight="normal" fill="#FFFFFF">
                        <tspan x="6" y="14">3.2</tspan>
                    </text>
                    <text id="Apprentices" font-family="Usual-Regular, Usual" font-size="10" font-weight="normal" fill="#777777">
                        <tspan x="15.86" y="53">Apprentices</tspan>
                    </text>
                </g>
                <g id="Page-Copy-16" transform="translate(130.000000, 320.000000)">
                    <path d="M0,20 L90,20 L90,75 C90,77.7614237 87.7614237,80 85,80 L5,80 C2.23857625,80 3.38176876e-16,77.7614237 0,75 L0,20 Z" id="Rectangle" fill="#EEEEEE"></path>
                    <path d="M5,0 L85,0 C87.7614237,-5.07265313e-16 90,2.23857625 90,5 L90,20 L0,20 L0,5 C-3.38176876e-16,2.23857625 2.23857625,5.07265313e-16 5,0 Z" id="Rectangle" fill="#777777"></path>
                    <text id="3.2" font-family="Usual-Regular, Usual" font-size="10" font-weight="normal" fill="#FFFFFF">
                        <tspan x="6" y="14">3.2</tspan>
                    </text>
                    <text id="Digital-development" font-family="Usual-Regular, Usual" font-size="10" font-weight="normal" fill="#777777">
                        <tspan x="29.555" y="47">Digital</tspan>
                        <tspan x="13.375" y="59">development</tspan>
                    </text>
                </g>
                <g id="Page-Copy-12" transform="translate(250.000000, 420.000000)">
                    <path d="M0,20 L90,20 L90,75 C90,77.7614237 87.7614237,80 85,80 L5,80 C2.23857625,80 3.38176876e-16,77.7614237 0,75 L0,20 Z" id="Rectangle" fill="#EEEEEE"></path>
                    <path d="M5,0 L85,0 C87.7614237,-5.07265313e-16 90,2.23857625 90,5 L90,20 L0,20 L0,5 C-3.38176876e-16,2.23857625 2.23857625,5.07265313e-16 5,0 Z" id="Rectangle" fill="#777777"></path>
                    <text id="3.3" font-family="Usual-Regular, Usual" font-size="10" font-weight="normal" fill="#FFFFFF">
                        <tspan x="6" y="14">3.3</tspan>
                    </text>
                    <text id="Digital-journalism-t" font-family="Usual-Regular, Usual" font-size="10" font-weight="normal" fill="#777777">
                        <tspan x="29.555" y="41">Digital </tspan>
                        <tspan x="20.09" y="53">journalism </tspan>
                        <tspan x="25.84" y="65">trainees</tspan>
                    </text>
                </g>
                <g id="Page-Copy-17" transform="translate(130.000000, 420.000000)">
                    <path d="M0,20 L90,20 L90,75 C90,77.7614237 87.7614237,80 85,80 L5,80 C2.23857625,80 3.38176876e-16,77.7614237 0,75 L0,20 Z" id="Rectangle" fill="#EEEEEE"></path>
                    <path d="M5,0 L85,0 C87.7614237,-5.07265313e-16 90,2.23857625 90,5 L90,20 L0,20 L0,5 C-3.38176876e-16,2.23857625 2.23857625,5.07265313e-16 5,0 Z" id="Rectangle" fill="#777777"></path>
                    <text id="3.3" font-family="Usual-Regular, Usual" font-size="10" font-weight="normal" fill="#FFFFFF">
                        <tspan x="6" y="14">3.3</tspan>
                    </text>
                    <text id="Commercial" font-family="Usual-Regular, Usual" font-size="10" font-weight="normal" fill="#777777">
                        <tspan x="16.31" y="53">Commercial</tspan>
                    </text>
                </g>
                <g id="Page-Copy-13" transform="translate(250.000000, 520.000000)">
                    <path d="M0,20 L90,20 L90,75 C90,77.7614237 87.7614237,80 85,80 L5,80 C2.23857625,80 3.38176876e-16,77.7614237 0,75 L0,20 Z" id="Rectangle" fill="#EEEEEE"></path>
                    <path d="M5,0 L85,0 C87.7614237,-5.07265313e-16 90,2.23857625 90,5 L90,20 L0,20 L0,5 C-3.38176876e-16,2.23857625 2.23857625,5.07265313e-16 5,0 Z" id="Rectangle" fill="#777777"></path>
                    <text id="3.4" font-family="Usual-Regular, Usual" font-size="10" font-weight="normal" fill="#FFFFFF">
                        <tspan x="6" y="14">3.4</tspan>
                    </text>
                    <text id="Editorial-work-exper" font-family="Usual-Regular, Usual" font-size="10" font-weight="normal" fill="#777777">
                        <tspan x="25.295" y="41">Editorial</tspan>
                        <tspan x="33.175" y="53">work </tspan>
                        <tspan x="18.785" y="65">experience</tspan>
                    </text>
                </g>
                <g id="Page-Copy-18" transform="translate(130.000000, 520.000000)">
                    <path d="M0,20 L90,20 L90,75 C90,77.7614237 87.7614237,80 85,80 L5,80 C2.23857625,80 3.38176876e-16,77.7614237 0,75 L0,20 Z" id="Rectangle" fill="#EEEEEE"></path>
                    <path d="M5,0 L85,0 C87.7614237,-5.07265313e-16 90,2.23857625 90,5 L90,20 L0,20 L0,5 C-3.38176876e-16,2.23857625 2.23857625,5.07265313e-16 5,0 Z" id="Rectangle" fill="#777777"></path>
                    <text id="3.4" font-family="Usual-Regular, Usual" font-size="10" font-weight="normal" fill="#FFFFFF">
                        <tspan x="6" y="14">3.4</tspan>
                    </text>
                    <text id="Business-operations" font-family="Usual-Regular, Usual" font-size="10" font-weight="normal" fill="#777777">
                        <tspan x="23.51" y="47">Business</tspan>
                        <tspan x="19.34" y="59">operations</tspan>
                    </text>
                </g>
                <path d="M350.5,80.5 L350.5,99.5" id="Line-2-Copy-10" stroke="#EEEEEE" stroke-linecap="square"></path>
                <path d="M50.5,100.5 L650.5,100.5" id="Line" stroke="#EEEEEE" stroke-linecap="square"></path>
                <path d="M50.5,100.5 L50.5,119.5" id="Line-2" stroke="#EEEEEE" stroke-linecap="square"></path>
                <path d="M170.5,100.5 L170.5,119.5" id="Line-2-Copy" stroke="#EEEEEE" stroke-linecap="square"></path>
                <path d="M290.5,100.5 L290.5,119.5" id="Line-2-Copy-2" stroke="#EEEEEE" stroke-linecap="square"></path>
                <path d="M410.5,100.5 L410.5,119.5" id="Line-2-Copy-3" stroke="#EEEEEE" stroke-linecap="square"></path>
                <path d="M530.5,100.5 L530.5,119.5" id="Line-2-Copy-4" stroke="#EEEEEE" stroke-linecap="square"></path>
                <path d="M650.5,100.5 L650.5,119.5" id="Line-2-Copy-5" stroke="#EEEEEE" stroke-linecap="square"></path>
                <path d="M230.5,130.5 L230.5,529.5" id="Line-2-Copy-11" stroke="#EEEEEE" stroke-linecap="square"></path>
                <path d="M110.5,130.5 L110.5,529.5" id="Line-2-Copy-12" stroke="#EEEEEE" stroke-linecap="square"></path>
                <path d="M590.5,130.5 L590.5,229.5" id="Line-2-Copy-9" stroke="#EEEEEE" stroke-linecap="square"></path>
                <path d="M230.5,130.5 L239.5,130.5" id="Line-3-Copy-5" stroke="#EEEEEE" stroke-linecap="square"></path>
                <path d="M110.5,130.5 L119.5,130.5" id="Line-3-Copy-10" stroke="#EEEEEE" stroke-linecap="square"></path>
                <path d="M590.5,130.5 L599.5,130.5" id="Line-3-Copy-3" stroke="#EEEEEE" stroke-linecap="square"></path>
                <path d="M230.5,230.5 L249.5,230.5" id="Line-3-Copy-6" stroke="#EEEEEE" stroke-linecap="square"></path>
                <path d="M110.5,230.5 L129.5,230.5" id="Line-3-Copy-11" stroke="#EEEEEE" stroke-linecap="square"></path>
                <path d="M590.5,230.5 L609.5,230.5" id="Line-3-Copy-4" stroke="#EEEEEE" stroke-linecap="square"></path>
                <path d="M230.5,330.5 L249.5,330.5" id="Line-3-Copy-7" stroke="#EEEEEE" stroke-linecap="square"></path>
                <path d="M110.5,330.5 L129.5,330.5" id="Line-3-Copy-12" stroke="#EEEEEE" stroke-linecap="square"></path>
                <path d="M230.5,430.5 L249.5,430.5" id="Line-3-Copy-8" stroke="#EEEEEE" stroke-linecap="square"></path>
                <path d="M110.5,430.5 L129.5,430.5" id="Line-3-Copy-13" stroke="#EEEEEE" stroke-linecap="square"></path>
                <path d="M230.5,530.5 L249.5,530.5" id="Line-3-Copy-9" stroke="#EEEEEE" stroke-linecap="square"></path>
                <path d="M110.5,530.5 L129.5,530.5" id="Line-3-Copy-14" stroke="#EEEEEE" stroke-linecap="square"></path>
            </g>
        </g>
    </g>
</svg>