<?xml version="1.0" encoding="UTF-8" standalone="no"?>
<svg width="45px" height="48px" viewBox="0 0 45 48" version="1.1" xmlns="http://www.w3.org/2000/svg" xmlns:xlink="http://www.w3.org/1999/xlink">
    <!-- Generator: Sketch 49 (51002) - http://www.bohemiancoding.com/sketch -->
    <title>search</title>
    <desc>Created with Sketch.</desc>
    <defs></defs>
    <g id="Page-1" stroke="none" stroke-width="1" fill="none" fill-rule="evenodd">
        <g id="Baby-Friendly" transform="translate(-938.000000, -1732.000000)" fill="#4A4A4A" fill-rule="nonzero">
            <g id="search" transform="translate(938.000000, 1732.000000)">
                <path d="M30.5987988,31.9917613 L44.3329107,45.7258733 C44.7792242,46.1721867 44.7792242,46.8958038 44.3329107,47.3421173 C43.8865972,47.7884308 43.1629801,47.7884308 42.7166666,47.3421173 L28.7994491,33.4248998 C25.8307416,35.4999797 22.2200269,36.7169772 18.3255767,36.7169772 C8.20464018,36.7169772 0,28.4976019 0,18.3584886 C0,8.21937532 8.20464018,0 18.3255767,0 C28.4465133,0 36.6511535,8.21937532 36.6511535,18.3584886 C36.6511535,23.7684552 34.315283,28.6318702 30.5987988,31.9917613 Z M18.3744691,34.2857143 C27.1820659,34.2857143 34.3220339,27.1329233 34.3220339,18.3095084 C34.3220339,9.48609358 27.1820659,2.33330259 18.3744691,2.33330259 C9.56687229,2.33330259 2.42690434,9.48609358 2.42690434,18.3095084 C2.42690434,27.1329233 9.56687229,34.2857143 18.3744691,34.2857143 Z" id="Shape"></path>
            </g>
        </g>
    </g>
</svg>