<?xml version="1.0" encoding="UTF-8" standalone="no"?>
<svg width="522px" height="282px" viewBox="0 0 522 282" version="1.1" xmlns="http://www.w3.org/2000/svg" xmlns:xlink="http://www.w3.org/1999/xlink">
    <!-- Generator: Sketch 49 (51002) - http://www.bohemiancoding.com/sketch -->
    <title>Group</title>
    <desc>Created with Sketch.</desc>
    <defs></defs>
    <g id="Page-1" stroke="none" stroke-width="1" fill="none" fill-rule="evenodd">
        <g id="needs-goals-copy-5" transform="translate(-59.000000, -179.000000)">
            <g id="Group" transform="translate(60.000000, 180.000000)">
                <circle id="Oval-Copy-4" stroke="#FFFFFF" stroke-width="1.5" cx="140" cy="140" r="140"></circle>
                <circle id="Oval-Copy-8" stroke="#607C7B" stroke-width="1.5" cx="380" cy="140" r="140"></circle>
                <path d="M110.696,127.89 L110.696,127.926 C112.064,128.358 113.162,129.474 113.162,131.22 C113.162,133.65 111.056,135 108.5,135 L102.884,135 L102.884,121.176 L108.626,121.176 C111.2,121.176 112.838,122.634 112.838,124.776 C112.838,126.288 112.01,127.332 110.696,127.89 Z M108.59,122.76 L104.684,122.76 L104.684,127.26 L108.572,127.26 C109.958,127.26 111.02,126.504 111.02,124.992 C111.02,123.498 109.976,122.76 108.59,122.76 Z M104.684,133.416 L108.806,133.416 C110.21,133.416 111.326,132.66 111.326,131.112 C111.326,129.582 110.264,128.826 108.806,128.826 L104.684,128.826 L104.684,133.416 Z M123.53,125.334 L123.53,135 L121.856,135 L121.838,133.578 L121.802,133.578 C121.172,134.532 120.074,135.198 118.67,135.198 C116.582,135.198 115.268,133.848 115.268,131.814 L115.268,125.334 L116.978,125.334 L116.978,131.472 C116.978,132.732 117.68,133.722 119.174,133.722 C120.794,133.722 121.82,132.606 121.82,131.094 L121.82,125.334 L123.53,125.334 Z M129.524,135.198 C127.814,135.198 126.482,134.694 125.474,133.74 L126.518,132.57 C127.364,133.38 128.426,133.758 129.578,133.758 C131.108,133.758 131.846,133.2 131.846,132.372 C131.846,131.454 130.874,131.238 129.254,130.896 C127.436,130.5 125.816,129.942 125.816,128.07 C125.816,126.414 127.112,125.136 129.632,125.136 C131.18,125.136 132.386,125.604 133.394,126.522 L132.368,127.692 C131.54,126.936 130.622,126.576 129.578,126.576 C128.228,126.576 127.544,127.152 127.544,127.89 C127.544,128.79 128.408,128.988 130.082,129.348 C131.864,129.744 133.574,130.248 133.574,132.174 C133.574,133.938 132.17,135.198 129.524,135.198 Z M135.572,123.03 L135.572,121.176 L137.426,121.176 L137.426,123.03 L135.572,123.03 Z M137.354,135 L135.644,135 L135.644,125.334 L137.354,125.334 L137.354,135 Z M140.198,135 L140.198,125.334 L141.854,125.334 L141.89,126.756 L141.926,126.756 C142.538,125.784 143.618,125.136 145.058,125.136 C147.146,125.136 148.46,126.486 148.46,128.52 L148.46,135 L146.75,135 L146.75,128.862 C146.75,127.602 146.012,126.612 144.554,126.612 C142.934,126.612 141.908,127.728 141.908,129.24 L141.908,135 L140.198,135 Z M152.366,129.42 L157.73,129.42 C157.622,127.836 156.83,126.576 155.12,126.576 C153.428,126.576 152.528,127.8 152.366,129.42 Z M157.874,132.57 L159.062,133.632 C158.198,134.64 156.956,135.198 155.408,135.198 C152.366,135.198 150.638,133.2 150.638,130.158 C150.638,127.242 152.366,125.136 155.156,125.136 C157.928,125.136 159.422,127.206 159.422,129.852 C159.422,130.14 159.404,130.59 159.368,130.842 L152.384,130.842 C152.564,132.678 153.626,133.74 155.426,133.74 C156.488,133.74 157.298,133.344 157.874,132.57 Z M164.714,135.198 C163.004,135.198 161.672,134.694 160.664,133.74 L161.708,132.57 C162.554,133.38 163.616,133.758 164.768,133.758 C166.298,133.758 167.036,133.2 167.036,132.372 C167.036,131.454 166.064,131.238 164.444,130.896 C162.626,130.5 161.006,129.942 161.006,128.07 C161.006,126.414 162.302,125.136 164.822,125.136 C166.37,125.136 167.576,125.604 168.584,126.522 L167.558,127.692 C166.73,126.936 165.812,126.576 164.768,126.576 C163.418,126.576 162.734,127.152 162.734,127.89 C162.734,128.79 163.598,128.988 165.272,129.348 C167.054,129.744 168.764,130.248 168.764,132.174 C168.764,133.938 167.36,135.198 164.714,135.198 Z M173.984,135.198 C172.274,135.198 170.942,134.694 169.934,133.74 L170.978,132.57 C171.824,133.38 172.886,133.758 174.038,133.758 C175.568,133.758 176.306,133.2 176.306,132.372 C176.306,131.454 175.334,131.238 173.714,130.896 C171.896,130.5 170.276,129.942 170.276,128.07 C170.276,126.414 171.572,125.136 174.092,125.136 C175.64,125.136 176.846,125.604 177.854,126.522 L176.828,127.692 C176,126.936 175.082,126.576 174.038,126.576 C172.688,126.576 172.004,127.152 172.004,127.89 C172.004,128.79 172.868,128.988 174.542,129.348 C176.324,129.744 178.034,130.248 178.034,132.174 C178.034,133.938 176.63,135.198 173.984,135.198 Z M126.761,147.334 L126.761,155.938 C126.761,159.016 124.781,160.492 121.865,160.492 C120.335,160.492 119.111,160.06 118.247,159.484 L119.021,158.134 C119.723,158.602 120.569,159.034 121.847,159.034 C123.647,159.034 125.069,158.224 125.069,155.938 L125.069,155.11 L125.033,155.11 C124.295,156.262 123.125,156.838 121.811,156.838 C119.255,156.838 117.689,154.678 117.689,152.05 C117.689,149.404 119.273,147.136 121.937,147.136 C123.341,147.136 124.385,147.766 125.069,148.72 L125.105,148.72 L125.159,147.334 L126.761,147.334 Z M122.243,155.344 C124.097,155.344 125.105,153.832 125.105,151.96 C125.105,150.106 124.079,148.63 122.261,148.63 C120.371,148.63 119.417,150.178 119.417,151.996 C119.417,153.742 120.299,155.344 122.243,155.344 Z M133.727,157.198 C130.703,157.198 128.975,154.966 128.975,152.176 C128.975,149.368 130.703,147.136 133.727,147.136 C136.769,147.136 138.461,149.404 138.461,152.176 C138.461,154.93 136.769,157.198 133.727,157.198 Z M133.709,148.594 C131.711,148.594 130.703,150.25 130.703,152.176 C130.703,154.084 131.711,155.74 133.709,155.74 C135.707,155.74 136.733,154.084 136.733,152.176 C136.733,150.25 135.707,148.594 133.709,148.594 Z M147.911,157 L146.237,157 L146.201,155.596 L146.165,155.596 C145.625,156.55 144.635,157.198 143.249,157.198 C141.359,157.198 140.135,155.992 140.135,154.282 C140.135,153.022 140.783,152.176 142.007,151.78 C143.069,151.438 144.635,151.366 146.219,151.312 L146.219,150.448 C146.219,149.458 145.535,148.576 144.077,148.576 C142.853,148.576 142.151,149.152 141.845,150.034 L140.423,149.35 C140.981,147.892 142.367,147.136 144.131,147.136 C146.435,147.136 147.911,148.342 147.911,150.448 L147.911,157 Z M143.645,155.758 C145.211,155.758 146.219,154.57 146.219,153.184 L146.219,152.626 C145.571,152.644 144.563,152.716 143.753,152.824 C142.655,152.968 141.845,153.274 141.845,154.264 C141.845,155.164 142.529,155.758 143.645,155.758 Z M152.429,157 L150.719,157 L150.719,143.176 L152.429,143.176 L152.429,157 Z M158.423,157.198 C156.713,157.198 155.381,156.694 154.373,155.74 L155.417,154.57 C156.263,155.38 157.325,155.758 158.477,155.758 C160.007,155.758 160.745,155.2 160.745,154.372 C160.745,153.454 159.773,153.238 158.153,152.896 C156.335,152.5 154.715,151.942 154.715,150.07 C154.715,148.414 156.011,147.136 158.531,147.136 C160.079,147.136 161.285,147.604 162.293,148.522 L161.267,149.692 C160.439,148.936 159.521,148.576 158.477,148.576 C157.127,148.576 156.443,149.152 156.443,149.89 C156.443,150.79 157.307,150.988 158.981,151.348 C160.763,151.744 162.473,152.248 162.473,154.174 C162.473,155.938 161.069,157.198 158.423,157.198 Z" id="Business-goals" fill="#FFFFFF"></path>
                <path d="M370.586,130.14 L370.586,121.176 L372.35,121.176 L372.35,130.23 C372.35,133.254 370.28,135.198 366.842,135.198 C363.692,135.198 361.388,133.344 361.388,130.23 L361.388,121.176 L363.206,121.176 L363.206,130.14 C363.206,132.228 364.628,133.632 366.914,133.632 C369.2,133.632 370.586,132.3 370.586,130.14 Z M378.29,135.198 C376.58,135.198 375.248,134.694 374.24,133.74 L375.284,132.57 C376.13,133.38 377.192,133.758 378.344,133.758 C379.874,133.758 380.612,133.2 380.612,132.372 C380.612,131.454 379.64,131.238 378.02,130.896 C376.202,130.5 374.582,129.942 374.582,128.07 C374.582,126.414 375.878,125.136 378.398,125.136 C379.946,125.136 381.152,125.604 382.16,126.522 L381.134,127.692 C380.306,126.936 379.388,126.576 378.344,126.576 C376.994,126.576 376.31,127.152 376.31,127.89 C376.31,128.79 377.174,128.988 378.848,129.348 C380.63,129.744 382.34,130.248 382.34,132.174 C382.34,133.938 380.936,135.198 378.29,135.198 Z M385.508,129.42 L390.872,129.42 C390.764,127.836 389.972,126.576 388.262,126.576 C386.57,126.576 385.67,127.8 385.508,129.42 Z M391.016,132.57 L392.204,133.632 C391.34,134.64 390.098,135.198 388.55,135.198 C385.508,135.198 383.78,133.2 383.78,130.158 C383.78,127.242 385.508,125.136 388.298,125.136 C391.07,125.136 392.564,127.206 392.564,129.852 C392.564,130.14 392.546,130.59 392.51,130.842 L385.526,130.842 C385.706,132.678 386.768,133.74 388.568,133.74 C389.63,133.74 390.44,133.344 391.016,132.57 Z M394.706,135 L394.706,125.334 L396.362,125.334 L396.398,126.792 L396.434,126.792 C397.082,125.586 397.982,125.136 398.918,125.136 C399.26,125.136 399.512,125.19 399.728,125.262 L399.728,126.936 C399.566,126.882 399.224,126.81 398.828,126.81 C397.226,126.81 396.416,127.944 396.416,129.132 L396.416,135 L394.706,135 Z M355.178,157 L355.178,147.334 L356.834,147.334 L356.87,148.756 L356.906,148.756 C357.518,147.784 358.598,147.136 360.038,147.136 C362.126,147.136 363.44,148.486 363.44,150.52 L363.44,157 L361.73,157 L361.73,150.862 C361.73,149.602 360.992,148.612 359.534,148.612 C357.914,148.612 356.888,149.728 356.888,151.24 L356.888,157 L355.178,157 Z M367.346,151.42 L372.71,151.42 C372.602,149.836 371.81,148.576 370.1,148.576 C368.408,148.576 367.508,149.8 367.346,151.42 Z M372.854,154.57 L374.042,155.632 C373.178,156.64 371.936,157.198 370.388,157.198 C367.346,157.198 365.618,155.2 365.618,152.158 C365.618,149.242 367.346,147.136 370.136,147.136 C372.908,147.136 374.402,149.206 374.402,151.852 C374.402,152.14 374.384,152.59 374.348,152.842 L367.364,152.842 C367.544,154.678 368.606,155.74 370.406,155.74 C371.468,155.74 372.278,155.344 372.854,154.57 Z M377.642,151.42 L383.006,151.42 C382.898,149.836 382.106,148.576 380.396,148.576 C378.704,148.576 377.804,149.8 377.642,151.42 Z M383.15,154.57 L384.338,155.632 C383.474,156.64 382.232,157.198 380.684,157.198 C377.642,157.198 375.914,155.2 375.914,152.158 C375.914,149.242 377.642,147.136 380.432,147.136 C383.204,147.136 384.698,149.206 384.698,151.852 C384.698,152.14 384.68,152.59 384.644,152.842 L377.66,152.842 C377.84,154.678 378.902,155.74 380.702,155.74 C381.764,155.74 382.574,155.344 383.15,154.57 Z M390.566,157.198 C387.848,157.198 386.264,154.948 386.264,152.248 C386.264,149.404 387.938,147.136 390.656,147.136 C391.934,147.136 393.05,147.694 393.806,148.738 L393.842,148.738 L393.842,143.176 L395.552,143.176 L395.552,157 L393.878,157 L393.86,155.434 L393.824,155.434 C393.014,156.604 391.862,157.198 390.566,157.198 Z M390.872,155.704 C392.78,155.704 393.896,154.21 393.896,152.158 C393.896,150.034 392.78,148.63 390.926,148.63 C388.91,148.63 387.992,150.34 387.992,152.194 C387.992,153.994 388.91,155.704 390.872,155.704 Z M401.546,157.198 C399.836,157.198 398.504,156.694 397.496,155.74 L398.54,154.57 C399.386,155.38 400.448,155.758 401.6,155.758 C403.13,155.758 403.868,155.2 403.868,154.372 C403.868,153.454 402.896,153.238 401.276,152.896 C399.458,152.5 397.838,151.942 397.838,150.07 C397.838,148.414 399.134,147.136 401.654,147.136 C403.202,147.136 404.408,147.604 405.416,148.522 L404.39,149.692 C403.562,148.936 402.644,148.576 401.6,148.576 C400.25,148.576 399.566,149.152 399.566,149.89 C399.566,150.79 400.43,150.988 402.104,151.348 C403.886,151.744 405.596,152.248 405.596,154.174 C405.596,155.938 404.192,157.198 401.546,157.198 Z" id="User-needs" fill="#607C7B"></path>
            </g>
        </g>
    </g>
</svg>